<svg width="1440" height="18" viewBox="0 0 1440 18" fill="none" xmlns="http://www.w3.org/2000/svg">
<path d="M1440 7.27484L1405.6 8.61381C1371.2 9.94223 1302.4 12.6202 1233.92 12.8837C1165.28 13.1473 1097.12 10.9965 1028.48 11.0387C960 11.0703 891.2 13.2843 822.72 14.8131C754.08 16.3418 685.92 17.1853 617.28 17.607C548.8 18.0287 480 18.0287 411.52 17.976C342.88 17.9232 274.72 17.8178 206.08 17.4172C137.6 17.006 68.7999 16.3101 34.4 15.9517L2.09477e-07 15.6037L1.5736e-06 -3.7885e-09L34.4 3.00356e-06C68.7999 6.01089e-06 137.6 1.20256e-05 206.08 1.80123e-05C274.72 2.4013e-05 342.88 2.99717e-05 411.52 3.59724e-05C480 4.19591e-05 548.8 4.79738e-05 617.28 5.39605e-05C685.92 5.99612e-05 754.08 6.592e-05 822.72 7.19207e-05C891.2 7.79074e-05 960 8.39221e-05 1028.48 8.99088e-05C1097.12 9.59095e-05 1165.28 0.000101868 1233.92 0.000107869C1302.4 0.000113856 1371.2 0.00011987 1405.6 0.000122878L1440 0.000125885L1440 7.27484Z" fill="#FFFFFF"/>
</svg>
