<svg width="1440" height="36" viewBox="0 0 1440 36" fill="none" xmlns="http://www.w3.org/2000/svg">
<path d="M1440 13.8334L1405.6 15.5306C1371.2 17.2435 1302.4 20.6379 1233.92 23.0579C1165.28 25.4623 1097.12 26.8766 1028.48 28.8723C960 30.8524 891.2 33.4296 822.72 34.5768C754.08 35.7239 685.92 35.4725 617.28 34.2939C548.8 33.1153 480 31.0096 411.52 28.5267C342.88 26.0438 274.72 23.1523 206.08 22.4294C137.6 21.6908 68.7999 23.1052 34.4 23.8123L-9.44122e-07 24.5195L-3.0598e-06 0.318974L34.4 0.318971C68.7999 0.318968 137.6 0.318962 206.08 0.318956C274.72 0.31895 342.88 0.318944 411.52 0.318938C480 0.318932 548.8 0.318926 617.28 0.31892C685.92 0.318914 754.08 0.318908 822.72 0.318902C891.2 0.318896 960 0.31889 1028.48 0.318884C1097.12 0.318878 1165.28 0.318872 1233.92 0.318866C1302.4 0.31886 1371.2 0.318854 1405.6 0.318851L1440 0.318848L1440 13.8334Z" fill="#FFF2E1"/>
</svg>
