<svg width="76" height="83" viewBox="0 0 76 83" fill="none" xmlns="http://www.w3.org/2000/svg">
<path fill-rule="evenodd" clip-rule="evenodd" d="M53.72 41.6244C54.1962 40.1432 54.5064 38.5896 54.6505 37.0507C54.9326 34.0405 54.5947 29.8197 53.2587 26.3122C52.3429 23.9079 50.9553 21.8411 49.0093 20.6753C45.3028 18.4548 40.7967 19.4629 36.7377 22.1012C33.7772 24.0255 31.0567 26.8087 29.0807 29.7522C29.4651 27.137 29.5157 23.93 28.7435 21.1372C27.8804 18.0055 25.9974 15.393 22.4786 14.584C15.1235 12.8942 10.285 17.0769 7.9169 22.9681C5.59127 28.7554 5.68637 36.1968 8.10809 41.1511C8.23699 41.4127 8.55358 41.5213 8.81536 41.3932C9.07713 41.2652 9.18575 40.9488 9.05692 40.6873C6.75103 35.9662 6.68022 28.8765 8.89716 23.362C11.0717 17.9516 15.4877 14.0611 22.2409 15.6137C25.3402 16.3262 26.9662 18.6592 27.7268 21.4177C28.5177 24.2875 28.3864 27.6168 27.9412 30.1971C27.8215 30.8955 27.7069 31.5976 27.5824 32.2983C26.4764 34.48 25.8472 36.6435 25.8666 38.5182C25.8729 38.9832 26.2114 39.0658 26.3075 39.0843C26.4385 39.1098 26.6325 39.1081 26.8085 38.9154C26.8416 38.8792 26.8992 38.7994 26.9498 38.6777C27.0173 38.5119 27.1234 38.1602 27.1829 38.0082C27.432 37.3795 27.6293 36.7198 27.8183 36.0727C28.1488 34.9471 28.3846 33.7966 28.592 32.6414C28.6922 32.4485 28.7947 32.2564 28.901 32.0643C30.8109 28.6238 33.895 25.2084 37.3131 22.9867C41.0068 20.5859 45.0938 19.5607 48.4665 21.5813C50.2221 22.633 51.4456 24.5191 52.2717 26.6882C53.5488 30.0406 53.8687 34.0752 53.5991 36.9521C53.4344 38.7094 53.0429 40.487 52.4227 42.1411C52.2169 42.6901 51.9479 43.2226 51.6725 43.7401C51.6422 43.7969 51.5959 43.877 51.5421 43.9671C51.3712 44.2128 51.2123 44.4641 51.0661 44.7207C50.9892 44.8559 50.9734 44.9339 50.9706 44.9481C50.897 45.3196 51.1392 45.4684 51.257 45.5259C51.292 45.543 51.6615 45.7095 51.9228 45.3542C51.9757 45.2821 52.2433 44.8571 52.44 44.5249C54.269 41.9171 57.5469 40.0447 60.6534 39.6639C62.6228 39.4227 64.5273 39.7826 65.9202 40.9894C66.8463 41.792 67.5389 42.9661 67.8864 44.564C68.7245 48.4175 67.8447 52.2647 66.3558 55.9647C64.8328 59.7497 62.67 63.3815 60.9751 66.7136C60.8429 66.9732 60.9465 67.2914 61.2064 67.4235C61.466 67.5557 61.7842 67.4521 61.9163 67.1923C63.6245 63.8346 65.8006 60.1732 67.3357 56.3589C68.9047 52.4595 69.8017 48.4009 68.9184 44.3395C68.5141 42.4805 67.6892 41.1249 66.6118 40.1912C64.9994 38.7941 62.805 38.3363 60.5251 38.6157C58.1425 38.9077 55.6712 40.0082 53.72 41.6244Z" fill="#FFCC49" stroke="#FFCC49" stroke-width="2"/>
</svg>
