<svg width="864" height="50" viewBox="0 0 864 50" fill="none" xmlns="http://www.w3.org/2000/svg">
<path d="M880 20.1988L858.978 23.9166C837.956 27.6051 795.911 35.0405 754.062 35.7724C712.116 36.5042 670.462 30.5324 628.516 30.6495C586.667 30.7373 544.622 36.8848 502.773 41.1294C460.827 45.3741 419.173 47.716 377.227 48.8869C335.378 50.0578 293.333 50.0578 251.484 49.9115C209.538 49.7651 167.884 50.4719 125.938 49.3595C84.0888 48.2179 42.0444 48.2849 21.0222 47.2896L3.21396e-07 46.3236L4.37113e-06 -6.38098e-07L21.0222 1.19972e-06C42.0444 3.03754e-06 84.0888 6.71318e-06 125.938 1.03717e-05C167.884 1.40388e-05 209.538 1.76803e-05 251.484 2.13474e-05C293.333 2.50059e-05 335.378 2.86816e-05 377.227 3.23401e-05C419.173 3.60072e-05 460.827 3.96487e-05 502.773 4.33157e-05C544.622 4.69743e-05 586.667 5.06499e-05 628.516 5.43085e-05C670.462 5.79756e-05 712.116 6.1617e-05 754.062 6.52841e-05C795.911 6.89427e-05 837.956 7.26183e-05 858.978 7.44561e-05L880 7.62939e-05L880 20.1988Z" fill="#F5F5F5"/>
</svg>
