<svg width="232" height="217" viewBox="0 0 232 217" fill="none" xmlns="http://www.w3.org/2000/svg">
<path d="M229.049 56.9447C228.944 56.8001 228.836 56.6566 228.729 56.5108C228.599 56.636 228.381 56.7514 228.367 56.8875C228.354 57.0152 228.558 57.1646 228.667 57.3043C228.795 57.1841 228.923 57.065 229.049 56.9447ZM258.434 20.0914C258.296 20.1983 258.157 20.3053 258.019 20.4122C258.279 20.4353 258.538 20.4584 258.798 20.4814C258.676 20.3514 258.556 20.2214 258.434 20.0914ZM226.338 50.1795C226.238 50.0421 226.139 49.906 226.038 49.7699C226.014 50.0251 225.989 50.2791 225.965 50.5343C226.089 50.4152 226.214 50.2973 226.338 50.1795ZM214.194 52.904C214.086 52.7642 213.979 52.6233 213.872 52.4836C213.74 52.6013 213.519 52.7095 213.504 52.8408C213.491 52.9624 213.698 53.1094 213.807 53.2455C213.936 53.1312 214.065 53.017 214.194 52.904ZM199.005 33.5842C198.869 33.6887 198.732 33.7932 198.596 33.8977C198.851 33.9208 199.106 33.9451 199.361 33.9694C199.242 33.8405 199.123 33.713 199.005 33.5842ZM196.665 35.362C196.547 35.2247 196.437 34.9914 196.306 34.9792C196.176 34.9659 196.027 35.1773 195.884 35.2903C196.005 35.4216 196.115 35.6428 196.25 35.6586C196.374 35.6744 196.525 35.4702 196.665 35.362ZM251.695 41.6521C251.57 41.7688 251.446 41.8842 251.321 41.9996C251.551 42.0203 251.781 42.041 252.01 42.0628C251.906 41.9268 251.8 41.7894 251.695 41.6521ZM223.642 56.9471C223.533 56.8025 223.426 56.6579 223.318 56.5132C223.187 56.6372 222.966 56.7526 222.951 56.8888C222.939 57.0176 223.146 57.1671 223.255 57.3068C223.384 57.1877 223.513 57.0674 223.642 56.9471ZM195.27 20.5823C194.961 20.3405 194.728 20.0112 194.478 19.9978C194.135 19.9796 193.781 20.2044 193.431 20.3234C193.63 20.5386 193.818 20.9141 194.033 20.9311C194.378 20.9566 194.743 20.7464 195.27 20.5823ZM249.074 50.3277C249.214 49.9497 249.457 49.5997 249.428 49.2716C249.407 49.0359 249.027 48.8305 248.806 48.6118C248.685 48.9594 248.459 49.313 248.481 49.6508C248.495 49.8829 248.855 50.0931 249.074 50.3277ZM195.049 0.890625C194.976 1.2175 194.903 1.54564 194.83 1.87378H197.865C197.879 1.66595 197.895 1.45811 197.91 1.25036C196.957 1.13005 196.002 1.01093 195.049 0.890625ZM187.9 5.26909C187.9 5.45139 187.901 5.63491 187.901 5.81721H192.292C192.286 5.63491 192.281 5.45139 192.275 5.26909H187.9ZM201.014 -7.23087C200.657 -7.44106 200.3 -7.65128 199.944 -7.86155C200.294 -7.644 200.644 -7.42772 200.994 -7.21136C201.685 -6.81276 202.376 -6.41415 203.065 -6.01682C203.179 -6.2951 203.292 -6.5734 203.406 -6.85288C202.609 -6.97809 201.811 -7.10447 201.014 -7.23087ZM223.986 -15.3462C223.636 -15.5516 223.285 -15.7581 222.935 -15.9635C223.27 -15.7423 223.605 -15.52 223.938 -15.2988C224.282 -15.0873 224.625 -14.8771 224.968 -14.6657C224.641 -14.8929 224.313 -15.1201 223.986 -15.3462ZM214.512 62.9759C212.835 64.9676 210.829 66.7687 209.534 68.9852C203.511 79.2965 197.758 89.7682 191.763 100.098C187.217 107.931 182.41 115.611 177.8 123.408C175.435 127.407 173.271 131.523 170.975 135.561C167.039 142.48 163.349 149.56 159.042 156.239C154.246 163.675 150.5 171.708 145.352 178.955C141.936 183.762 139.477 189.249 136.549 194.408C133.273 200.175 130.02 205.958 126.568 211.618C126.099 212.387 124.526 212.483 123.499 212.877C121.667 209.93 123.6 208.1 124.6 206.355C130.32 196.386 136.208 186.516 142.067 176.629C150.745 161.984 159.502 147.385 168.12 132.704C173.491 123.552 178.58 114.235 183.952 105.084C192.57 90.4026 201.341 75.8112 209.973 61.1372C210.846 59.6522 211.205 57.867 211.804 56.2204C212.012 55.8704 212.219 55.5204 212.427 55.1705C212.223 55.524 212.019 55.8777 211.815 56.2313C208.238 60.6682 204.537 65.0127 201.108 69.5625C193.786 79.2759 186.567 89.0695 179.377 98.8825C174.409 105.662 169.623 112.575 164.643 119.346C155.994 131.106 147.189 142.753 138.58 154.543C131.41 164.367 124.489 174.374 117.336 184.213C112.007 191.541 106.484 198.728 101.069 205.95C98.6473 204.851 97.7658 203.72 99.2125 201.693C99.8496 200.8 100.244 199.73 100.895 198.849C108.136 189.071 115.402 179.311 122.671 169.554C129.94 159.796 137.264 150.078 144.485 140.284C149.344 133.697 154.013 126.969 158.862 120.374C167.637 108.436 176.525 96.5784 185.285 84.629C190.123 78.0291 194.789 71.304 199.55 64.648C201.607 61.7728 203.758 58.9632 205.75 56.0454C206.211 55.3709 206.203 54.3744 206.409 53.5262C206.859 53.0754 207.308 52.6245 207.756 52.1737C208.205 51.7228 208.655 51.272 209.105 50.8211C209.561 50.3763 210.017 49.9315 210.474 49.4868C210.672 49.1368 210.869 48.7867 211.067 48.4356C210.862 48.7783 210.655 49.1198 210.447 49.4624C210.003 49.9182 209.557 50.3739 209.112 50.8296C208.661 51.278 208.211 51.7277 207.76 52.1773C207.309 52.6257 206.857 53.0741 206.406 53.5226C204.035 56.1207 201.685 58.7384 199.291 61.3147C192.897 68.1978 186.387 74.9764 180.11 81.9652C175.508 87.0874 171.212 92.4807 166.762 97.739C166.037 98.5945 165.217 99.3687 164.448 100.188C157.561 107.536 150.604 114.82 143.809 122.254C135.982 130.816 128.322 139.53 120.546 148.139C115.454 153.777 110.262 159.322 105.16 164.951C96.9162 174.046 88.717 183.182 80.4765 192.281C79.578 193.272 78.535 194.133 77.2439 195.352C76.5642 194.596 75.977 193.946 75.5333 193.452C75.6062 192.688 75.4809 192.105 75.7132 191.847C81.572 185.389 87.5523 179.041 93.3308 172.514C98.0431 167.19 102.498 161.636 107.122 156.234C108.436 154.7 110.01 153.393 111.354 151.884C118.173 144.227 124.943 136.529 131.759 128.871C132.954 127.528 134.345 126.361 135.539 125.02C142.355 117.361 149.138 109.673 155.938 102C156.384 101.495 156.885 101.038 157.347 100.547C164.709 92.72 172.184 84.9948 179.399 77.0337C187.622 67.9571 195.613 58.6703 203.705 49.4745C203.911 49.1258 204.115 48.7783 204.319 48.4307C204.115 48.7783 203.911 49.127 203.706 49.4758C202.374 50.1576 200.805 50.5829 199.745 51.5611C191.684 58.9996 183.789 66.6192 175.712 74.0406C166.509 82.4999 157.168 90.8121 147.89 99.1888C143.248 103.379 138.595 107.554 133.974 111.768C123.408 121.401 112.884 131.079 102.296 140.688C93.3722 148.787 84.3815 156.812 75.4262 164.874C70.7795 169.058 66.1852 173.298 61.479 177.411C60.1903 178.539 58.5853 179.301 57.1932 180.188C55.6504 179.02 54.3897 178.013 55.9774 176.246C56.1282 176.078 56.2718 175.902 56.4384 175.754C63.4485 169.552 70.478 163.375 77.4626 157.148C81.2838 153.742 85.0162 150.24 88.8106 146.805C93.8936 142.208 98.995 137.63 104.098 133.054C104.928 132.309 105.834 131.648 106.648 130.887C114.011 124.016 121.306 117.071 128.729 110.267C138.11 101.668 147.593 93.1794 157.035 84.646C161.673 80.4534 166.286 76.2341 170.964 72.0841C178.296 65.5752 185.701 59.1466 193.005 52.6074C194.478 51.2889 195.643 49.6252 196.948 48.1208C197.399 47.6711 197.849 47.2215 198.301 46.7719C198.752 46.3222 199.203 45.8738 199.654 45.4241C200.108 44.977 200.56 44.5297 201.014 44.0825L201.67 43.0581C201.445 43.3947 201.222 43.7302 200.998 44.0668C200.551 44.52 200.103 44.9733 199.656 45.4266C199.207 45.8775 198.757 46.3283 198.309 46.7792C197.859 47.2301 197.409 47.6809 196.959 48.1305C193.909 47.9215 192.145 50.3775 190.097 51.8455C174.805 62.8191 159.678 74.0211 144.516 85.1758C134.167 92.7893 123.808 100.388 113.52 108.084C98.6156 119.235 83.809 130.515 68.8867 141.642C62.8552 146.139 56.6122 150.353 50.5041 154.749C48.3425 156.305 46.339 158.078 44.181 159.637C42.4376 160.896 40.5702 161.984 38.7672 163.142C36.3016 160.079 38.299 158.524 39.9987 157.168C43.8113 154.125 47.7443 151.229 51.6688 148.331C61.643 140.965 71.6196 133.604 81.6314 126.29C90.2172 120.018 98.8832 113.857 107.453 107.564C112.631 103.762 117.67 99.7708 122.814 95.9221C128.491 91.6773 134.199 87.4738 139.924 83.2958C149.222 76.5099 158.548 69.7605 167.859 62.9928C173.415 58.9534 179.023 54.9808 184.489 50.8246C186.563 49.2473 188.306 47.2373 190.201 45.4241C192.22 45.5275 193.616 44.6963 194.252 42.7239C195.155 42.2767 196.058 41.8295 196.96 41.3811C197.414 40.9339 197.866 40.4854 198.318 40.037C198.529 39.6943 198.738 39.3516 198.947 39.0077C198.729 39.3431 198.51 39.6773 198.293 40.0115C197.844 40.4635 197.396 40.9169 196.948 41.369C196.05 41.8222 195.152 42.2743 194.254 42.7263C192.241 42.6328 190.83 43.4445 190.203 45.4266C185.122 48.0503 179.937 50.4905 174.983 53.3341C163.079 60.1638 151.277 67.1696 139.45 74.1293C133.726 77.498 128.027 80.9103 122.334 84.33C112.086 90.4828 101.858 96.6658 91.6081 102.815C86.1018 106.117 80.5786 109.392 75.0444 112.645C65.1542 118.461 55.2409 124.235 45.3555 130.059C39.8274 133.317 34.343 136.65 28.8259 139.927C27.1542 140.92 25.4388 141.84 22.972 143.228C23.1009 141.173 22.7179 139.57 23.3453 138.855C24.6255 137.399 26.3724 136.29 28.066 135.269C36.98 129.901 45.922 124.577 54.8846 119.292C61.3695 115.469 67.9127 111.743 74.4134 107.946C81.8672 103.592 89.3079 99.2105 96.7472 94.8309C106.473 89.1046 116.209 83.3955 125.912 77.6292C133.151 73.3284 140.325 68.9208 147.561 64.614C157.454 58.7262 167.49 53.068 177.227 46.9323C180.698 44.7437 185.081 43.7957 187.5 40.0261C188.399 39.574 189.297 39.122 190.196 38.6698C191.097 38.2214 191.998 37.7718 192.898 37.3222C193.114 36.9795 193.329 36.638 193.543 36.2953C193.331 36.6404 193.119 36.9855 192.907 37.3307C192.006 37.7804 191.107 38.2312 190.207 38.6821C189.305 39.1304 188.401 39.5777 187.5 40.0261C185.014 40.8634 182.436 41.4929 180.061 42.5732C170.995 46.699 162.021 51.0252 152.964 55.1741C138.906 61.6136 124.796 67.9425 110.733 74.3736C104.498 77.2257 98.3241 80.214 92.1213 83.1367C82.9057 87.4775 73.8422 92.1865 64.4285 96.0412C56.4883 99.2933 49.1242 103.695 41.0321 106.683C33.8712 109.326 27.2551 113.439 20.3933 116.892C18.8067 117.691 17.2215 118.5 15.5948 119.209C13.9219 119.938 12.2441 120.149 10.2563 118.29C11.466 117.281 12.4166 116.121 13.6433 115.526C19.614 112.637 25.6977 109.98 31.6646 107.082C38.5726 103.726 45.3349 100.064 52.2806 96.791C61.2724 92.5571 70.3844 88.5809 79.4394 84.4843C80.2467 84.1198 81.0176 83.6775 81.8163 83.2959C91.2081 78.8116 100.561 74.2448 110.004 69.8687C128.059 61.5006 146.159 53.2309 164.251 44.9405C172.684 41.0761 181.142 37.2699 189.571 33.397C190.301 33.0615 190.895 32.4236 191.551 31.9253C192.347 31.7953 193.142 31.6665 193.937 31.5365C193.818 31.2557 193.696 30.975 193.577 30.6955C192.902 31.1063 192.227 31.517 191.553 31.9277C186.477 33.3314 181.323 34.5028 176.346 36.1944C169.269 38.5994 162.294 41.3155 155.325 44.0254C144.264 48.3286 132.905 51.8127 121.73 55.7731C111.202 59.5027 100.577 63.1229 89.9411 66.6288C76.1677 71.1702 62.5344 76.1405 48.8473 80.9492C41.5964 83.4976 34.3843 86.1565 27.1165 88.6514C19.6395 91.2192 12.1165 93.646 4.52033 96.1664C2.3356 93.9098 2.2359 92.4077 4.60181 91.585C11.6508 89.1339 18.7849 86.927 25.8461 84.5075C30.4198 82.9398 34.8987 81.0975 39.4664 79.5079C42.7756 78.3559 46.1908 77.5016 49.505 76.3605C54.4945 74.6421 59.4268 72.7585 64.4017 70.9988C76.8269 66.6046 89.336 62.4351 101.671 57.805C113.195 53.4812 125.077 50.2669 136.516 45.6174C148.285 40.8354 160.628 37.4862 172.632 33.2572C178.539 31.1743 184.702 29.7002 190.196 26.5212C191.437 26.4215 192.678 26.3231 194.616 26.1687C192.464 25.0423 191.102 24.5549 190.207 26.5333C185.909 27.4484 181.599 28.3088 177.317 29.2919C167.69 31.5024 158.059 33.7141 148.457 36.0328C130.746 40.3105 113.052 44.6586 95.3539 48.9921C83.8418 51.8103 72.4538 55.3867 60.7921 57.2789C49.8673 59.0507 39.5393 62.9515 28.6727 64.7452C20.2183 66.1403 11.9401 68.3363 3.77383 70.9673C1.14655 71.8143 0.27483 70.8543 0.0705808 67.3933C10.0302 65.0552 19.7988 61.825 30.0173 60.0872C38.0061 58.7286 45.7871 56.1705 53.6908 54.2711C59.0268 52.989 64.4344 52.0059 69.7765 50.7445C75.5477 49.3798 81.2474 47.7028 87.0344 46.4146C102.033 43.0764 116.806 38.8084 131.893 35.7983C141.355 33.9098 150.635 31.1197 160.022 28.8362C167.272 27.0717 174.566 25.4773 181.834 23.7808C183.962 23.285 186.068 22.6993 189.336 21.8583C187.657 21.4743 186.99 21.1207 186.395 21.2179C178.584 22.483 170.786 23.8307 162.976 25.1018C161.877 25.2805 160.729 25.1808 159.605 25.1784C153.149 25.1638 146.863 26.2709 140.586 27.7182C136.941 28.5592 133.153 28.7985 129.421 29.2312C121.295 30.173 113.147 30.9313 105.04 32.0128C96.3083 33.1795 87.6301 34.7399 78.9022 35.9271C71.0167 37.0002 62.9683 37.2117 55.2215 38.8753C46.1129 40.833 36.8159 40.8124 27.6988 42.5769C19.9046 44.0851 11.9121 44.5821 3.99867 45.4509C2.72576 45.5907 1.41037 45.3441 0.057224 45.2735C-0.303859 42.5599 1.08819 41.6582 2.98355 41.3969C9.98275 40.4308 17.0184 39.7041 23.992 38.5933C32.0854 37.3052 40.2151 36.5445 48.3632 35.7278C58.8467 34.6779 69.1954 32.3167 79.6267 30.6712C82.8898 30.1572 86.1676 30.1656 89.4891 29.4535C95.0841 28.2529 100.962 28.4328 106.696 27.7936C111.73 27.2333 116.732 26.3632 121.742 25.5988C125.443 25.0349 129.123 24.3143 132.836 23.8513C140.73 22.8645 148.72 22.4283 156.522 20.9664C164.177 19.5336 171.957 19.7122 179.585 18.3572C183.424 17.6755 187.273 17.0447 191.101 16.0227C183.159 16.4578 175.173 14.4697 167.257 16.9451C165.816 17.3959 164.126 17.0666 162.551 17.0691C153.098 17.091 143.643 16.9755 134.192 17.1456C113.127 17.526 92.0093 17.2684 71.0252 18.7996C58.0238 19.7487 45.0247 18.7582 32.1461 20.061C24.1074 20.874 16.1261 21.0234 8.10322 21.1498C6.11057 21.1802 3.91482 21.6153 2.65527 18.5686C3.92091 18.068 5.22661 17.1481 6.5749 17.0824C17.7284 16.5319 28.8879 16.0762 40.0499 15.725C45.4455 15.5549 50.9126 16.1856 56.2425 15.5597C71.436 13.7721 86.7547 15.4783 101.853 14.0285C114.417 12.8218 126.939 14.014 139.391 12.8826C159.093 11.0938 178.814 11.9772 198.523 11.5337C198.707 11.53 198.887 11.2858 199.63 10.7486C197.52 10.6076 195.914 10.4667 194.304 10.3974C184.495 9.9745 174.696 9.20162 164.9 8.65475C158.261 8.28412 151.375 8.80546 144.977 7.37758C137.277 5.65923 129.341 7.79807 121.876 5.01022C121.678 4.93613 121.428 5.00422 121.203 4.99087C112.748 4.52662 104.144 4.86566 95.8778 3.35388C88.4008 1.98674 80.8669 2.87139 73.4033 1.20897C68.0357 0.013237 62.1939 1.06926 56.5758 0.827469C52.1626 0.636696 47.7725 -0.0293045 43.3665 -0.438797C39.1855 -0.8265 35.036 -0.227333 30.7711 -1.49487C27.2465 -2.54359 23.1799 -1.86669 19.3563 -1.78651C16.0823 -1.71723 13.1802 -2.3735 10.931 -4.89751C11.6714 -7.17245 13.4148 -7.43977 15.2372 -7.17126C16.746 -6.95008 18.1842 -6.09814 19.6845 -6.00098C28.3602 -5.44075 37.0456 -4.9996 45.7286 -4.55851C55.3064 -4.0724 64.9719 -4.24134 74.433 -2.92887C79.7836 -2.18515 85.2325 -2.83772 90.3326 -1.64562C97.5507 0.0411301 105.045 -1.8121 112.085 0.735123C112.488 0.880951 112.979 0.775177 113.427 0.799507C122.335 1.26983 131.325 1.15189 140.126 2.38293C148.61 3.57147 157.148 2.67947 165.49 3.81208C172.177 4.72107 178.737 4.70891 185.504 3.97126C179.278 2.94442 173.047 1.94183 166.825 0.882133C160.758 -0.152046 154.706 -1.27123 148.64 -2.3066C139.531 -3.8597 130.629 -6.36925 121.375 -7.37057C113.11 -8.26493 104.999 -10.5144 96.7947 -12.0298C90.2977 -13.2304 83.7519 -14.1747 77.2439 -15.3267C71.1893 -16.3985 65.1774 -17.7243 59.1095 -18.7026C50.1967 -20.139 41.5221 -22.8211 32.4537 -23.5016C29.2903 -23.7386 26.2047 -24.9903 22.6255 -25.8944C24.7482 -30.1296 28.1098 -29.1111 30.5048 -28.6615C43.2339 -26.2748 55.8148 -22.9912 68.6059 -21.0796C74.9254 -20.1354 81.2633 -19.337 87.5488 -18.0914C95.3212 -16.5529 103.141 -15.2428 110.944 -13.8611C115.92 -12.9801 120.913 -12.1975 125.882 -11.2775C133.664 -9.83872 141.423 -8.27347 149.21 -6.85648C153.974 -5.98881 158.789 -5.38364 163.551 -4.50618C169.378 -3.43439 175.141 -1.94205 181 -1.12786C184.814 -0.598053 188.473 1.58819 193.412 0.274513C181.422 -3.26061 170.287 -6.58308 159.127 -9.82285C140.142 -15.3364 121.317 -21.3774 102.155 -26.3282C88.9748 -29.7345 76.0962 -34.3063 63.0717 -38.3154C55.7285 -40.5757 48.3511 -42.717 41.0151 -44.9979C39.8541 -45.3588 38.8353 -46.1755 37.791 -46.7576C39.0736 -49.4798 41.4298 -49.7678 43.1416 -48.9C50.1395 -45.3479 57.9435 -44.7342 65.2649 -42.3937C83.8904 -36.4378 102.644 -30.928 121.561 -25.926C134.726 -22.4456 147.616 -17.9237 160.648 -13.928C170.722 -10.8388 180.814 -7.80195 190.93 -4.85257C192.395 -4.42601 194.039 -4.61314 195.6 -4.51716C196.269 -4.10277 196.935 -3.68955 197.604 -3.27641C197.725 -3.5547 197.848 -3.833 197.971 -4.11248C197.183 -4.24977 196.396 -4.38713 195.608 -4.52569C192.855 -5.68256 190.113 -6.86864 187.346 -7.99272C173.464 -13.6278 159.837 -19.8559 145.91 -25.4047C129.32 -32.0144 113.055 -39.4407 96.6109 -46.421C83.4381 -52.0123 70.2081 -57.4675 57.051 -62.9616C56.8614 -66.2756 57.5191 -67.2757 59.547 -66.5101C64.2848 -64.7225 68.9475 -62.7344 73.6331 -60.8082C76.6907 -59.5504 79.736 -58.2623 82.7863 -56.9875C92.3399 -52.993 101.902 -49.0241 111.442 -44.9979C118.754 -41.9124 125.998 -38.6666 133.338 -35.6479C145.76 -30.5403 157.971 -24.9417 170.612 -20.3371C178.267 -17.5494 185.572 -13.8077 193.053 -10.5362C193.843 -10.1911 194.754 -10.123 195.608 -9.92617C196.288 -9.51666 196.969 -9.10835 197.648 -8.70003C197.769 -8.98804 197.887 -9.27724 198.006 -9.56525C197.204 -9.68192 196.401 -9.79861 195.597 -9.91527C194.103 -11.1305 192.744 -12.5851 191.092 -13.5245C176.874 -21.607 162.597 -29.59 148.347 -37.6166C141.644 -41.3911 134.96 -45.2021 128.266 -48.9912C120.381 -53.456 112.5 -57.9305 104.602 -62.3722C98.0857 -66.0361 91.5327 -69.6344 85.0223 -73.3106C82.1981 -74.9062 79.443 -76.6209 76.3902 -78.4413C77.178 -79.563 77.6632 -80.2532 78.0595 -80.8171C78.6565 -80.8171 79.1113 -80.9532 79.4189 -80.7977C90.0788 -75.3995 100.565 -69.7292 110.744 -63.4173C116.111 -60.0912 121.94 -57.3715 127.491 -54.2386C140.205 -47.0626 153.009 -40.0446 165.749 -32.9136C175.388 -27.5191 184.974 -22.0287 194.616 -16.6391C195.741 -16.0109 197.069 -15.7484 198.303 -15.317C198.942 -13.3447 200.362 -12.5511 202.361 -12.6264C203.254 -12.1683 204.148 -11.7102 205.042 -11.252C205.394 -11.0479 205.745 -10.8449 206.097 -10.6407C205.756 -10.857 205.417 -11.0721 205.077 -11.2872C204.167 -11.7296 203.259 -12.172 202.35 -12.6143C201.74 -14.617 200.334 -15.4324 198.307 -15.323C196.997 -16.8214 195.899 -18.6066 194.337 -19.7672C188.293 -24.2514 182.072 -28.5011 175.969 -32.9075C166.091 -40.0385 156.238 -47.2048 146.403 -54.3941C137.817 -60.6684 129.28 -67.0107 120.701 -73.296C114.272 -78.0063 107.8 -82.6581 101.386 -87.3903C100.71 -87.8898 100.027 -88.6991 99.8584 -89.4744C99.6979 -90.212 100.031 -91.2243 100.494 -91.8648C100.762 -92.2355 101.834 -92.3801 102.334 -92.1564C103.318 -91.7177 104.168 -90.9667 105.053 -90.3178C115.776 -82.4528 126.514 -74.6072 137.21 -66.707C145.583 -60.5226 153.891 -54.2496 162.256 -48.0543C165.281 -45.8145 168.42 -43.728 171.455 -41.5017C181.82 -33.8992 192.151 -26.2517 202.537 -18.6795C203.19 -18.2032 204.211 -18.2312 205.061 -18.0245C205.512 -17.5749 205.963 -17.1253 206.413 -16.6756C206.863 -16.2247 207.313 -15.7739 207.762 -15.3243C208.432 -13.6619 209.383 -12.5037 211.626 -13.8247C210.335 -14.3217 209.045 -14.8187 207.754 -15.3158C207.304 -15.7654 206.853 -16.215 206.403 -16.6646C205.952 -17.1143 205.502 -17.5652 205.053 -18.016C198.089 -25.8676 190.98 -33.5674 182.61 -39.9887C181.371 -40.9391 180.309 -42.1239 179.18 -43.2152C164.52 -57.3897 149.888 -71.591 135.184 -85.7181C132.466 -88.3297 129.437 -90.6143 126.598 -93.1031C125.761 -93.836 124.778 -94.6392 124.425 -95.6139C124.113 -96.4791 124.321 -97.7842 124.808 -98.585C125.065 -99.008 126.549 -99.0748 127.229 -98.7601C128.203 -98.308 128.981 -97.3966 129.786 -96.6213C142.859 -84.0387 155.908 -71.4293 168.997 -58.8614C179.168 -49.0957 189.325 -39.3119 199.608 -29.6629C206.266 -23.4153 213.138 -17.395 219.915 -11.2739C220.36 -10.8194 220.805 -10.3636 221.25 -9.90919C221.599 -9.70625 221.947 -9.50323 222.296 -9.30031C221.955 -9.51176 221.614 -9.72205 221.273 -9.93225C220.819 -10.3771 220.364 -10.823 219.909 -11.2666C219.12 -12.7941 218.516 -14.4554 217.514 -15.8262C208.9 -27.6116 200.204 -39.3349 191.556 -51.0935C187.492 -56.6181 183.504 -62.1996 179.435 -67.7204C172.217 -77.5129 165.026 -87.3259 157.681 -97.0222C155.937 -99.3263 155.914 -100.988 158.694 -103C161.091 -99.9158 163.521 -96.8522 165.883 -93.7374C170.83 -87.2129 175.77 -80.6822 180.658 -74.1138C183.43 -70.3879 186.087 -66.5769 188.807 -62.8133C194.248 -55.2886 199.696 -47.7699 205.141 -40.2488C209.163 -34.694 213.136 -29.1027 217.235 -23.6061C218.391 -22.0555 219.913 -20.7782 221.268 -19.3759C221.611 -19.1596 221.955 -18.942 222.299 -18.7257C221.952 -18.9384 221.604 -19.1522 221.258 -19.365C220.777 -20.8208 220.48 -22.3702 219.789 -23.7179C210.985 -40.8661 202.164 -58.007 193.263 -75.1055C189.268 -82.7797 185.086 -90.3555 180.593 -98.7151C181.315 -99.3834 182.051 -100.064 183.155 -101.085C186.865 -97.2301 188.933 -93.0861 191.071 -89.1196C195.478 -80.9483 199.439 -72.5377 203.66 -64.2643C211.308 -49.2768 219.006 -34.3148 226.714 -19.3576C226.986 -18.829 227.578 -18.4656 228.021 -18.0257C228.153 -17.2383 228.285 -16.4508 228.417 -15.6633C228.702 -15.7885 228.986 -15.9148 229.271 -16.04C228.85 -16.6987 228.431 -17.3573 228.01 -18.016C227.293 -21.6751 227.06 -25.5165 225.764 -28.9593C222.354 -38.0225 220.257 -47.4868 217.045 -56.5767C213.383 -66.9439 210.713 -77.6004 207.126 -87.9724C206.441 -89.9569 205.939 -91.6631 207.142 -93.5722C210.571 -93.3024 210.923 -90.3409 211.638 -88.3054C213.383 -83.346 214.455 -78.1545 216.03 -73.1295C217.474 -68.5225 219.317 -64.0419 220.805 -59.4471C222.021 -55.6944 222.863 -51.8228 224.065 -48.064C225.734 -42.8373 227.712 -37.7065 229.324 -32.4628C231.445 -25.5627 233.341 -18.592 235.639 -10.5898C235.873 -12.4819 236.104 -13.3167 236.059 -14.1358C235.665 -21.1915 235.008 -28.2155 233.589 -35.1594C233.235 -36.8923 233.498 -38.7432 233.356 -40.5308C232.914 -46.0552 232.737 -51.6259 231.863 -57.0848C230.603 -64.9534 229.305 -72.7917 229.329 -80.7855C229.333 -81.6617 229.437 -82.5379 229.521 -83.8333C230.615 -83.9427 231.624 -84.0448 232.502 -84.1323C232.887 -83.4967 233.291 -83.1382 233.307 -82.7615C233.657 -74.3496 234.727 -66.0301 236.03 -57.7106C236.954 -51.8094 236.384 -45.6274 237.708 -39.8514C239.054 -33.9806 237.808 -27.8814 240.022 -22.1648C240.555 -20.788 240.17 -19.049 240.179 -17.4765C240.193 -15.0837 240.182 -12.6909 240.182 -9.12418C241.563 -10.8388 242.492 -11.4635 242.589 -12.1975C243.224 -17.022 243.59 -21.8829 244.216 -26.7099C244.922 -32.1566 245.823 -37.5789 246.609 -43.016C247.175 -46.9436 247.706 -50.8773 248.223 -54.811C248.712 -58.5309 249.144 -62.2592 249.643 -65.9779C249.729 -66.6194 250.004 -67.2405 250.235 -67.8554C251.074 -70.0829 252.774 -71.3419 253.974 -70.5253C255.697 -69.3525 254.715 -67.9769 254.353 -66.419C253.46 -62.5703 252.719 -58.639 252.441 -54.7041C251.863 -46.5328 249.671 -38.6216 249.351 -30.3543C249.049 -22.5222 246.923 -14.7628 245.644 -6.96347C245.545 -6.3583 245.805 -5.69357 246.029 -4.16236C251.486 -15.6002 256.612 -26.2797 261.678 -36.9883C264.118 -42.1446 266.372 -47.3896 268.859 -52.5215C269.844 -54.5534 270.861 -54.4963 274.03 -52.3271C272.012 -48.5684 269.83 -44.8084 267.934 -40.9087C264.744 -34.3404 261.724 -27.6893 258.657 -21.0615C256.056 -15.4422 253.469 -9.81688 250.925 -4.17207C250.389 -2.98354 250.055 -1.70391 249.63 -0.466805C249.421 -0.119232 249.213 0.227081 249.005 0.574654C249.209 0.22345 249.415 -0.126572 249.618 -0.477707C250.179 -0.81311 250.83 -1.05743 251.291 -1.49735C262.292 -12.014 273.272 -22.5537 284.261 -33.0826C285.206 -33.9879 286.199 -34.8435 287.42 -35.9481C288.424 -35.0403 289.188 -34.3501 289.996 -33.6197C279.218 -22.7713 268.607 -12.1173 258.035 -1.42199C256.483 0.146904 255.123 1.90656 253.675 3.5787C258.29 2.17996 262.97 0.964729 267.5 -0.66729C272.466 -2.45618 277.277 -4.6691 282.183 -6.62925C288.267 -9.05973 294.379 -11.4197 300.401 -13.7809C302.235 -10.9579 302.191 -9.61758 300.255 -8.86651C297.39 -7.75578 294.397 -6.96956 291.543 -5.82841C279.677 -1.08414 267.847 3.75004 255.991 8.52228C254.99 8.92577 253.907 9.12018 251.466 9.80197C259.175 10.5992 265.519 10.1616 271.838 10.2358C278.583 10.316 285.329 10.2419 292.075 10.2577C298.53 10.2735 304.987 10.3196 311.291 10.3512C311.918 13.0406 310.592 13.9872 309.013 14.2668C307.266 14.5766 305.427 14.3907 303.629 14.3919C288.59 14.3968 273.55 14.3944 258.388 14.8756C267.723 19.3526 277.911 21.3261 287.435 25.1626C297.153 29.0757 307.837 30.4951 316.991 36.1897C315.732 38.7368 314.186 39.0928 311.934 38.1668C308.681 36.8289 305.346 35.6732 302.003 34.5697C289.703 30.5145 277.385 26.5139 265.076 22.4878C263.835 22.0819 262.604 21.6445 260.878 21.0526C262.256 25.0616 265.894 25.9403 268.512 27.7729C275.934 32.9656 283.515 37.9359 291.089 42.9075C297.927 47.3965 304.879 51.7119 311.697 56.2301C313.531 57.4453 315.263 58.9559 316.636 60.6585C317.211 61.3718 316.731 62.9346 316.731 64.9482C309.476 59.9901 302.989 55.4706 296.414 51.0811C285.561 43.8359 274.657 36.6648 263.744 29.5107C263.243 29.1813 262.438 29.3138 261.774 29.2312C261.323 28.7815 260.872 28.3319 260.422 27.8811C259.73 27.1167 259.04 26.3523 258.348 25.5879C258.127 25.9173 257.906 26.2478 257.685 26.5784C258.601 27.0085 259.516 27.4399 260.432 27.8713C260.882 28.3222 261.331 28.7718 261.781 29.2226C264.129 33.6072 267.604 37.0488 271.086 40.511C280.494 49.8696 289.915 59.2196 299.192 68.7106C304.03 73.6603 308.554 78.9162 313.264 83.9922C314.67 85.5076 314.944 86.9185 313.27 89.0075C311.926 87.8494 310.704 86.9599 309.674 85.8855C303.476 79.4168 297.413 72.8169 291.121 66.443C287.119 62.389 282.175 59.1248 278.767 54.6588C273.544 47.817 266.923 42.4396 261.212 36.1447C260.64 35.5127 259.792 35.1299 259.073 34.6316C258.727 34.4166 258.382 34.2015 258.037 33.9863C258.385 34.1979 258.733 34.4093 259.082 34.6207C259.167 35.2842 259.04 36.0863 259.371 36.5882C264.722 44.7048 270.123 52.7874 275.528 60.8674C285.734 76.1223 295.955 91.3663 306.154 106.625C307.111 108.056 307.949 109.566 308.886 111.108C308.006 111.847 307.345 112.402 306.34 113.248C305.003 111.948 303.495 110.924 302.574 109.518C294.459 97.1301 286.47 84.6606 278.4 72.2421C271.654 61.864 264.852 51.5199 258.053 41.1757C257.827 40.8306 257.357 40.6447 255.934 39.6056C262.9 56.7077 270.583 72.2445 277.788 87.9928C284.899 103.534 291.962 119.1 298.74 134.693C296.022 136.435 294.868 136.065 293.87 133.856C290.684 126.793 287.233 119.85 284.02 112.799C281.093 106.376 278.43 99.8316 275.493 93.414C271.437 84.5536 267.151 75.8003 263.125 66.9266C260.669 61.5115 258.569 55.9348 256.185 50.4857C255.597 49.1404 254.524 48.0066 253.673 46.7767C253.548 45.9795 253.424 45.1812 253.3 44.384C253.02 44.5006 252.738 44.6185 252.459 44.7364C252.865 45.4157 253.27 46.095 253.676 46.7744C255.418 53.3427 257.024 59.9488 258.926 66.4697C263.783 83.1282 269.439 99.5886 273.471 116.44C276.136 127.588 280.898 138.087 282.728 149.418C283.068 151.522 283.267 153.648 283.702 157.117C281.541 155.555 280.036 155.051 279.733 154.147C278.488 150.407 277.717 146.514 276.565 142.739C274.898 137.273 272.89 131.907 271.319 126.415C267.153 111.853 263.166 97.2395 259.056 82.6603C257.803 78.221 256.32 73.8474 255.047 69.4142C253.444 63.829 251.947 58.2134 250.199 51.8613C248.409 58.7384 250.822 64.529 251.434 70.3998C252.184 77.5952 253.796 84.7032 255.061 91.8439C255.902 96.5967 257.154 101.312 257.553 106.1C257.959 110.967 258.042 115.824 259.065 120.655C260.567 127.746 261.747 134.908 262.896 142.067C263.596 146.428 263.945 150.843 264.516 155.223C265.336 161.539 266.214 167.847 267.065 174.139C265.573 175.331 264.219 175.716 263.175 173.773C262.653 172.799 261.995 171.786 261.869 170.735C261.286 165.899 260.929 161.037 260.375 156.198C259.873 151.811 259.338 147.422 258.602 143.07C257.505 136.572 256.172 130.115 255.029 123.626C254.077 118.215 253.055 112.803 252.438 107.35C251.916 102.731 252.194 98.0987 251.061 93.4492C249.293 86.2065 248.199 78.7874 247.049 71.4072C246.233 66.1756 245.794 60.8857 244.653 55.5678C244.516 56.8146 244.266 58.0591 244.263 59.3059C244.246 67.6291 243.614 76.0203 244.439 84.2633C246.186 101.717 244.359 119.263 245.913 136.611C247.419 153.436 246.274 170.193 246.962 186.963C247.016 188.252 246.808 189.553 246.73 190.714C244.226 191.492 243.478 190.042 242.971 188.545C242.695 187.731 242.876 186.761 242.856 185.862C242.394 164.586 241.913 143.308 241.485 122.032C241.381 116.858 241.89 111.638 241.359 106.517C239.556 89.123 240.382 71.6685 239.255 54.1934C239.117 55.4609 239.077 56.7478 238.827 57.9922C237.428 64.9337 238.011 72.0769 236.388 79.039C235.396 83.3008 235.788 87.8105 235.067 92.251C233.822 99.9034 234.368 107.835 233.295 115.529C232.224 123.198 233.042 131.05 230.846 138.581C230.724 139 230.799 139.475 230.769 139.924C230.306 146.799 230.635 153.855 229.137 160.497C227.856 166.176 229.323 172.102 226.865 177.541C226.522 178.297 226.8 179.322 226.737 180.218C226.269 186.871 225.838 193.528 225.255 200.17C225.17 201.153 224.345 202.073 223.583 203.572C222.595 202.422 221.376 201.655 221.385 200.907C221.446 196.693 221.786 192.484 222.074 188.277C222.119 187.629 222.485 187.003 222.533 186.354C223.023 179.706 223.332 173.039 223.987 166.406C224.572 160.489 225.529 154.608 226.325 148.712C226.384 148.275 226.525 147.846 226.558 147.407C227.036 140.98 227.746 134.558 227.911 128.122C228.15 118.794 228.888 109.543 230.613 100.371C230.694 99.935 230.633 99.4732 230.664 99.0247C231.126 92.1477 231.409 85.2524 232.114 78.4009C232.699 72.716 233.884 67.0943 234.591 61.4192C234.889 59.0215 234.641 56.5558 234.129 54.1034C232.546 62.1143 231.023 70.1373 229.351 78.1311C228.632 81.5654 227.49 84.9097 226.747 88.3403C225.307 94.9937 224.023 101.681 222.656 108.35C221.774 112.652 220.859 116.947 219.958 121.245C218.608 127.693 217.269 134.143 215.908 140.588C214.005 149.614 212.038 158.626 210.196 167.663C209.275 172.181 208.736 176.78 207.735 181.278C205.496 191.324 203.077 201.33 200.709 211.449C197.357 210.942 196.58 209.367 197.25 206.65C199.408 197.918 202.105 189.26 203.441 180.399C205.344 167.751 209.515 155.601 211.377 143.043C213.191 130.813 216.602 118.974 218.664 106.825C220.571 95.5868 223.043 84.437 226.063 73.4136C227.271 69.0083 227.62 64.3686 227.431 59.64C210.424 111.547 193.415 163.453 176.504 215.065C174.264 215.773 172.695 215.821 172.694 213.492C172.692 212.219 173.178 210.92 173.585 209.681C176.674 200.284 179.812 190.905 182.907 181.513C186.829 169.607 190.734 157.696 194.631 145.783C199 132.421 203.349 119.051 207.711 105.685C211.394 94.3983 215.138 83.1294 218.732 71.8143C219.79 68.4846 220.427 65.0211 221.258 61.6197C221.675 60.9501 222.091 60.2805 222.51 59.6097C222.221 59.4869 221.934 59.363 221.648 59.2403C221.521 60.0362 221.395 60.8334 221.269 61.6306C218.622 66.8914 215.831 72.0877 213.362 77.4312C210.049 84.5974 207.067 91.9179 203.792 99.1037C197.831 112.186 191.36 125.051 185.847 138.317C180.584 150.982 174.756 163.356 168.944 175.761C162.76 188.96 157.793 202.712 150.986 215.637C150.788 216.012 150.46 216.319 149.924 217C148.942 216.273 147.95 215.54 146.968 214.813C151.739 204.139 156.402 193.709 161.06 183.277C168.083 167.55 175.066 151.804 182.138 136.097C185.476 128.679 189.206 121.43 192.365 113.939C198.711 98.8862 206.945 84.6655 212.081 69.0825C212.765 67.0044 213.694 65.0077 214.509 62.9722C214.959 62.073 215.407 61.1712 215.857 60.2707C216.307 59.3715 216.757 58.471 217.206 57.5705C217.658 56.6712 218.11 55.7732 218.562 54.8739C218.768 54.5239 218.974 54.1727 219.18 53.8215C218.974 54.1727 218.768 54.5239 218.563 54.8751C218.114 55.7768 217.666 56.6785 217.218 57.5802C216.766 58.4795 216.315 59.3787 215.866 60.2793C215.415 61.1773 214.964 62.0766 214.512 62.9759Z" fill="#FFE19F" fill-opacity="0.32"/>
</svg>
