<svg width="280" height="63" viewBox="0 0 280 63" fill="none" xmlns="http://www.w3.org/2000/svg">
<path d="M338 25.4505L328.97 30.1349C319.94 34.7824 301.88 44.1511 283.904 45.0732C265.886 45.9953 247.994 38.4708 229.976 38.6184C212 38.729 193.94 46.4748 175.964 51.8231C157.946 57.1714 140.054 60.1222 122.036 61.5975C104.06 63.0729 86 63.0729 68.024 62.8885C50.006 62.7041 32.114 63.5947 14.096 62.1931C-3.88 60.7545 -21.94 60.839 -30.97 59.585L-40 58.3678L-40 5.10116e-06L-30.97 5.89059e-06C-21.94 6.68002e-06 -3.88 8.25887e-06 14.096 9.83038e-06C32.114 1.14056e-05 50.006 1.29697e-05 68.024 1.45449e-05C86 1.61164e-05 104.06 1.76953e-05 122.036 1.92668e-05C140.054 2.0842e-05 157.946 2.24062e-05 175.964 2.39813e-05C193.94 2.55528e-05 212 2.71317e-05 229.976 2.87032e-05C247.994 3.02784e-05 265.886 3.18426e-05 283.904 3.34178e-05C301.88 3.49893e-05 319.94 3.65681e-05 328.97 3.73575e-05L338 3.8147e-05L338 25.4505Z" fill="#F5F5F5"/>
</svg>
