<svg width="320" height="276" viewBox="0 0 320 276" fill="none" xmlns="http://www.w3.org/2000/svg">
<path d="M283.792 182.972C285.103 180.615 286.675 179.199 289.255 180.093C290.73 180.604 291.155 181.92 291.019 183.403C290.878 184.954 290.017 185.947 288.48 186.082C287.505 186.168 286.257 186.235 285.569 185.724C284.719 185.092 284.322 183.85 283.792 182.972Z" fill="#FFE19F" fill-opacity="0.72"/>
<path d="M283.73 242.947C286.515 239.634 288.432 238.979 290.127 240.573C291.338 241.712 291.366 244.025 290.182 245.202C288.539 246.836 286.603 246.214 283.73 242.947Z" fill="#FFE19F" fill-opacity="0.72"/>
<path d="M312.664 34.1697C315.42 30.8649 317.356 30.1998 319.053 31.7874C320.273 32.9277 320.3 35.2332 319.108 36.4146C317.453 38.0556 315.505 37.4321 312.664 34.1697Z" fill="#FFE19F" fill-opacity="0.72"/>
<path d="M229.905 126.971C228.244 126.898 226.883 125.357 226.882 123.55C226.881 121.638 228.67 119.884 230.398 120.103C232.132 120.323 233.247 121.81 233.16 123.786C233.083 125.53 231.537 127.044 229.905 126.971Z" fill="#FFE19F" fill-opacity="0.72"/>
<path d="M316.708 90.8805C318.606 90.992 319.906 92.045 319.933 93.4944C319.962 95.0945 317.822 97.2227 316.251 97.1558C314.63 97.0878 312.633 94.8564 312.793 93.2935C312.956 91.6901 314.48 90.7507 316.708 90.8805Z" fill="#FFE19F" fill-opacity="0.72"/>
<path d="M316.826 119.898C318.626 121.016 320.283 121.997 319.819 124.267C319.533 125.667 317.201 127.027 315.844 126.605C314.397 126.155 312.812 125.529 312.807 123.683C312.798 120.996 315.263 120.926 316.826 119.898Z" fill="#FFE19F" fill-opacity="0.72"/>
<path d="M316.314 156.214C314.134 156.197 312.653 155.021 312.769 153.398C312.87 151.989 314.73 150.074 316.129 149.938C317.679 149.788 319.876 151.827 319.934 153.468C319.99 155.067 318.457 156.23 316.314 156.214Z" fill="#FFE19F" fill-opacity="0.72"/>
<path d="M316.229 186.174C314.017 186.128 312.594 184.931 312.78 183.274C312.942 181.825 314.823 179.966 316.213 179.881C317.773 179.787 319.937 181.893 319.94 183.509C319.944 185.098 318.384 186.218 316.229 186.174Z" fill="#FFE19F" fill-opacity="0.72"/>
<path d="M312.691 213.124C315.324 209.702 317.154 208.99 318.954 210.513C320.216 211.579 320.342 213.887 319.207 215.141C317.646 216.866 315.622 216.297 312.691 213.124Z" fill="#FFE19F" fill-opacity="0.72"/>
<path d="M283.76 34.3015C286.419 30.8712 288.227 30.1634 290.021 31.6801C291.276 32.7399 291.409 35.0574 290.288 36.3109C288.742 38.039 286.731 37.4781 283.76 34.3015Z" fill="#FFE19F" fill-opacity="0.72"/>
<path d="M319.904 272.108C320.074 273.672 318.095 275.899 316.461 275.98C315.138 276.047 313.121 274.312 312.807 272.841C312.46 271.208 313.837 269.847 315.982 269.704C318.201 269.556 319.727 270.492 319.904 272.108Z" fill="#FFE19F" fill-opacity="0.72"/>
<path d="M283.759 4.3167C286.444 0.929428 288.285 0.227416 290.046 1.74754C291.289 2.81999 291.397 5.1339 290.261 6.37549C288.686 8.09691 286.696 7.52504 283.759 4.3167Z" fill="#FFE19F" fill-opacity="0.72"/>
<path d="M283.897 64.4341C284.376 62.0423 285.448 60.5973 288.075 60.9161C289.869 61.1339 290.838 61.9977 291.034 63.8359C291.224 65.6072 290.055 66.2372 288.775 66.8195C286.126 68.0233 285.14 65.9748 283.897 64.4341Z" fill="#FFE19F" fill-opacity="0.72"/>
<path d="M283.751 212.811C286.698 209.609 288.681 209.036 290.258 210.746C291.399 211.983 291.295 214.295 290.049 215.373C288.276 216.908 286.446 216.216 283.751 212.811Z" fill="#FFE19F" fill-opacity="0.72"/>
<path d="M312.625 4.03389C314.034 2.40384 314.934 0.155234 317.528 1.41751C318.878 2.07497 320.29 3.24276 319.799 4.96685C319.538 5.87892 318.379 6.64145 317.464 7.21733C316.975 7.52557 316.136 7.36876 315.473 7.28063C315.001 7.21779 314.39 7.04462 314.138 6.70228C313.554 5.912 313.149 4.98908 312.625 4.03389Z" fill="#FFE19F" fill-opacity="0.72"/>
<path d="M312.853 64.4618C313.255 62.224 314.145 60.6526 316.809 60.9055C318.308 61.0479 319.433 61.5759 319.852 63.0794C320.215 64.3757 318.861 66.5082 317.262 67.0086C314.937 67.7364 313.959 65.9578 312.853 64.4618Z" fill="#FFE19F" fill-opacity="0.72"/>
<path d="M312.748 243.363C313.463 240.459 314.837 239.337 317.298 239.769C318.805 240.033 320.153 240.925 319.816 242.36C319.512 243.652 318.404 245.177 317.235 245.753C315.006 246.848 314.064 244.639 312.748 243.363Z" fill="#FFE19F" fill-opacity="0.72"/>
<path d="M283.87 152.679C285.139 151.122 286.218 149.096 288.4 150.26C289.545 150.871 290.605 152.412 290.865 153.701C291.161 155.165 289.759 155.968 288.262 156.204C285.757 156.6 284.481 155.363 283.87 152.679Z" fill="#FFE19F" fill-opacity="0.72"/>
<path d="M171.913 119.986C174.138 120.665 176.073 121.642 175.688 123.747C175.444 125.088 173.758 126.165 172.763 127.307C167.94 124.03 167.909 123.62 171.913 119.986Z" fill="#FFE19F" fill-opacity="0.72"/>
<path d="M283.819 94.5092C284.541 91.5819 285.932 90.4864 288.379 90.9019C289.891 91.159 291.223 92.0622 290.881 93.4966C290.574 94.7843 289.465 96.2973 288.296 96.8733C286.065 97.9739 285.137 95.7428 283.819 94.5092Z" fill="#FFE19F" fill-opacity="0.72"/>
<path d="M200.771 127.003C198.842 125.906 197.243 124.43 198.183 122.141C198.574 121.19 200.266 120.201 201.329 120.241C202.687 120.291 204.158 121.052 204.287 123.07C204.46 125.746 202.962 126.622 200.771 127.003Z" fill="#FFE19F" fill-opacity="0.72"/>
<path d="M258.831 67.2232C256.886 67.1615 255.757 65.9387 255.819 63.958C255.879 61.9817 257.073 60.8713 259.067 60.9352C261.04 60.9989 262.124 62.1783 262.073 64.2013C262.023 66.1989 260.856 67.2869 258.831 67.2232Z" fill="#FFE19F" fill-opacity="0.72"/>
<path d="M175.829 272.133C175.956 273.629 174.401 275.724 173.005 275.939C171.466 276.176 169.24 274.295 169.06 272.605C168.904 271.132 170.123 269.92 171.97 269.709C174.019 269.473 175.693 270.527 175.829 272.133Z" fill="#FFE19F" fill-opacity="0.72"/>
<path d="M175.329 4.23308C175.312 6.18861 174.097 7.35938 172.129 7.32106C170.162 7.28311 169.005 6.08835 169.031 4.12166C169.057 2.14544 170.235 1.0071 172.231 1.02992C174.188 1.05274 175.346 2.25023 175.329 4.23308Z" fill="#FFE19F" fill-opacity="0.72"/>
<path d="M175.33 34.192C175.297 36.1411 174.072 37.3122 172.11 37.2727C170.148 37.2337 168.997 36.0328 169.027 34.0571C169.059 32.0835 170.239 30.9541 172.246 30.9784C174.208 31.0024 175.364 32.207 175.33 34.192Z" fill="#FFE19F" fill-opacity="0.72"/>
<path d="M204.243 242.968C204.209 244.924 203 246.083 201.027 246.05C199.064 246.018 197.926 244.828 197.952 242.837C197.979 240.857 199.153 239.728 201.162 239.753C203.117 239.777 204.275 240.985 204.243 242.968Z" fill="#FFE19F" fill-opacity="0.72"/>
<path d="M262.073 4.10491C262.103 6.10292 260.982 7.28362 259.016 7.3257C257.026 7.36825 255.856 6.23826 255.824 4.24499C255.793 2.25119 256.926 1.05953 258.882 1.02588C260.89 0.991633 262.043 2.10488 262.073 4.10491Z" fill="#FFE19F" fill-opacity="0.72"/>
<path d="M287.41 275.985C286.037 275.999 284.234 274.059 284.154 272.48C284.089 271.146 285.591 269.773 287.193 269.703C289.395 269.608 290.903 270.614 290.989 272.235C291.075 273.853 289.056 275.968 287.41 275.985Z" fill="#FFE19F" fill-opacity="0.72"/>
<path d="M259.051 37.2773C257.052 37.3277 255.868 36.2092 255.823 34.2277C255.778 32.2298 256.903 31.023 258.849 30.9805C260.861 30.9364 262.023 32.0357 262.073 34.0296C262.124 36.027 261.006 37.2276 259.051 37.2773Z" fill="#FFE19F" fill-opacity="0.72"/>
<path d="M175.33 213.2C175.201 215.104 173.878 216.231 171.929 216.099C170.017 215.968 168.895 214.656 169.025 212.704C169.152 210.815 170.484 209.679 172.43 209.799C174.312 209.916 175.462 211.264 175.33 213.2Z" fill="#FFE19F" fill-opacity="0.72"/>
<path d="M175.331 242.95C175.295 244.899 174.078 246.076 172.122 246.05C170.153 246.026 169.002 244.836 169.025 242.851C169.047 240.887 170.236 239.741 172.235 239.753C174.199 239.765 175.366 240.97 175.331 242.95Z" fill="#FFE19F" fill-opacity="0.72"/>
<path d="M204.243 213.186C204.126 215.09 202.808 216.226 200.862 216.103C198.952 215.983 197.831 214.681 197.95 212.722C198.066 210.827 199.386 209.685 201.328 209.8C203.219 209.911 204.362 211.239 204.243 213.186Z" fill="#FFE19F" fill-opacity="0.72"/>
<path d="M229.936 7.32732C227.986 7.28173 226.857 6.08009 226.899 4.09148C226.94 2.09411 228.096 0.991176 230.105 1.03061C232.072 1.06945 233.187 2.2543 233.147 4.26165C233.106 6.24974 231.93 7.37356 229.936 7.32732Z" fill="#FFE19F" fill-opacity="0.72"/>
<path d="M201.045 186.156C199.078 186.12 197.927 184.927 197.954 182.954C197.981 180.972 199.159 179.831 201.148 179.858C203.102 179.883 204.272 181.094 204.248 183.063C204.222 185.02 203.008 186.193 201.045 186.156Z" fill="#FFE19F" fill-opacity="0.72"/>
<path d="M288.054 119.949C289.78 121.15 291.629 122.156 290.769 124.499C290.181 126.096 288.539 126.939 287.069 126.561C285.979 126.28 284.562 124.952 284.385 123.904C283.939 121.262 286.236 120.703 288.054 119.949Z" fill="#FFE19F" fill-opacity="0.72"/>
<path d="M201.186 67.2233C199.186 67.2689 197.999 66.1459 197.956 64.1685C197.911 62.1879 199.04 60.9927 201.008 60.9332C202.974 60.8736 204.198 62.0276 204.244 63.9847C204.289 65.9579 203.137 67.1797 201.186 67.2233Z" fill="#FFE19F" fill-opacity="0.72"/>
<path d="M201.189 37.2749C199.187 37.3169 197.998 36.1927 197.956 34.219C197.913 32.2383 199.047 31.0326 201.004 30.9785C202.975 30.9241 204.193 32.0733 204.24 34.0338C204.289 36.0054 203.132 37.2343 201.189 37.2749Z" fill="#FFE19F" fill-opacity="0.72"/>
<path d="M201.189 7.32472C199.186 7.36467 197.998 6.24157 197.957 4.26838C197.914 2.27108 199.035 1.07924 201.001 1.02995C202.977 0.980656 204.188 2.12368 204.238 4.08317C204.288 6.0625 203.137 7.28633 201.189 7.32472Z" fill="#FFE19F" fill-opacity="0.72"/>
<path d="M230.223 246.053C228.225 246.156 226.997 245.069 226.899 243.108C226.8 241.123 227.901 239.859 229.818 239.753C231.778 239.645 233.043 240.766 233.148 242.702C233.254 244.683 232.146 245.953 230.223 246.053Z" fill="#FFE19F" fill-opacity="0.72"/>
<path d="M229.924 216.105C227.98 216.058 226.853 214.85 226.898 212.858C226.943 210.864 228.108 209.757 230.117 209.802C232.066 209.846 233.194 211.054 233.149 213.049C233.103 215.033 231.922 216.153 229.924 216.105Z" fill="#FFE19F" fill-opacity="0.72"/>
<path d="M233.148 182.931C233.179 184.926 232.046 186.122 230.095 186.155C228.091 186.188 226.933 185.074 226.898 183.077C226.863 181.075 227.983 179.893 229.947 179.857C231.949 179.821 233.117 180.943 233.148 182.931Z" fill="#FFE19F" fill-opacity="0.72"/>
<path d="M258.865 216.105C256.923 216.066 255.783 214.855 255.822 212.868C255.861 210.878 257.036 209.757 259.034 209.804C260.994 209.851 262.116 211.043 262.076 213.039C262.037 215.038 260.876 216.146 258.865 216.105Z" fill="#FFE19F" fill-opacity="0.72"/>
<path d="M233.146 64.1588C233.111 66.1511 231.949 67.2615 229.941 67.2232C227.981 67.186 226.86 65.997 226.898 63.9973C226.935 62.0019 228.092 60.8948 230.104 60.9299C232.067 60.9638 233.181 62.1453 233.146 64.1588Z" fill="#FFE19F" fill-opacity="0.72"/>
<path d="M230.112 37.2784C228.103 37.3241 226.938 36.2148 226.898 34.2195C226.859 32.2184 227.976 31.0225 229.927 30.979C231.926 30.9338 233.103 32.0509 233.148 34.036C233.192 36.0271 232.062 37.2342 230.112 37.2784Z" fill="#FFE19F" fill-opacity="0.72"/>
<path d="M256.123 270.235C260.824 269.595 262.07 270.185 262.068 272.847C262.067 274.397 260.526 275.816 258.688 275.96C256.6 276.122 255.857 274.567 256.123 270.235Z" fill="#FFE19F" fill-opacity="0.72"/>
<path d="M259.207 246.052C257.235 246.184 255.948 245.086 255.821 243.161C255.691 241.185 256.792 239.876 258.688 239.752C260.64 239.624 261.941 240.738 262.075 242.649C262.213 244.624 261.119 245.923 259.207 246.052Z" fill="#FFE19F" fill-opacity="0.72"/>
<path d="M258.691 186.16C256.8 186.043 255.696 184.732 255.821 182.753C255.944 180.83 257.225 179.734 259.204 179.859C261.119 179.98 262.21 181.271 262.074 183.255C261.943 185.161 260.64 186.281 258.691 186.16Z" fill="#FFE19F" fill-opacity="0.72"/>
<path d="M256.274 155.822C255.801 151.535 256.464 149.903 258.495 149.923C260.453 149.942 262.234 151.663 262.072 153.376C261.843 155.788 260.902 156.213 256.274 155.822Z" fill="#FFE19F" fill-opacity="0.72"/>
<path d="M259.183 119.986C263.037 123.427 263.038 123.669 259.259 127.022C257.714 126.525 255.997 126.384 255.778 124.059C255.554 121.662 256.821 120.675 259.183 119.986Z" fill="#FFE19F" fill-opacity="0.72"/>
<path d="M204.069 270.281C204.136 271.458 204.336 272.319 204.2 273.124C203.927 274.75 201.995 276.243 200.631 275.744C199.467 275.317 198.018 274.945 197.942 273.15C197.86 271.231 198.774 269.887 200.78 269.752C201.859 269.68 202.972 270.089 204.069 270.281Z" fill="#FFE19F" fill-opacity="0.72"/>
<path d="M171.933 97.0782C170.335 96.1559 168.717 95.1551 169.16 92.8823C169.436 91.4648 171.83 89.9815 173.107 90.567C174.012 90.9824 174.979 92.0035 175.235 92.9407C175.787 94.9585 175.277 95.4196 171.933 97.0782Z" fill="#FFE19F" fill-opacity="0.72"/>
<path d="M174.809 155.85C170.624 156.171 168.96 155.428 169.044 153.44C169.111 151.848 171.216 149.864 172.767 149.927C174.751 150.008 175.379 151.688 174.809 155.85Z" fill="#FFE19F" fill-opacity="0.72"/>
<path d="M256.276 91.2609C260.892 90.8539 262.125 91.5031 262.068 94.1191C262.035 95.6331 260.204 97.1887 258.646 97.0251C256.545 96.8062 255.833 95.1997 256.276 91.2609Z" fill="#FFE19F" fill-opacity="0.72"/>
<path d="M204.001 91.1378C204.111 92.4638 204.31 93.2989 204.217 94.1001C204.034 95.678 202.143 97.3652 200.82 96.9625C199.625 96.5991 198.185 96.2336 197.956 94.5293C197.706 92.6868 198.625 91.2492 200.583 90.9432C201.534 90.7945 202.546 91.0389 204.001 91.1378Z" fill="#FFE19F" fill-opacity="0.72"/>
<path d="M230.113 156.195C228.071 156.239 226.907 155.107 226.898 153.071C226.89 151.295 228.053 149.916 229.553 149.923C231.202 149.931 233.065 151.47 233.136 152.882C233.239 154.936 232.129 156.154 230.113 156.195Z" fill="#FFE19F" fill-opacity="0.72"/>
<path d="M169.05 63.4959C169.106 62.0381 170.508 60.9172 172.255 60.9341C174.229 60.9543 175.371 62.1466 175.329 64.1441C175.293 65.8431 174.054 67.2392 172.611 67.2073C170.999 67.1712 168.991 65.078 169.05 63.4959Z" fill="#FFE19F" fill-opacity="0.72"/>
<path d="M175.33 182.79C175.447 184.756 174.314 186.059 172.401 186.158C170.659 186.247 169.219 185.199 169.07 183.733C168.91 182.171 170.797 180.035 172.469 179.889C173.942 179.759 175.227 181.062 175.33 182.79Z" fill="#FFE19F" fill-opacity="0.72"/>
<path d="M200.96 150.053C202.589 149.969 204.278 151.573 204.239 153.168C204.196 154.929 203.196 156.029 201.487 156.196C199.543 156.386 198.157 155.303 197.949 153.431C197.775 151.861 199.311 150.138 200.96 150.053Z" fill="#FFE19F" fill-opacity="0.72"/>
<path d="M230.159 97.0261C228.521 97.1048 226.867 95.5173 226.899 93.9193C226.935 92.1098 227.85 91.0983 229.634 90.8932C231.587 90.669 232.943 91.7444 233.151 93.6473C233.324 95.2347 231.807 96.9475 230.159 97.0261Z" fill="#FFE19F" fill-opacity="0.72"/>
<path d="M226.902 272.717C226.962 270.736 228.143 269.646 230.16 269.709C232.137 269.77 233.223 270.969 233.138 272.995C233.084 274.299 231.517 275.788 230.14 275.846C228.492 275.915 226.853 274.332 226.902 272.717Z" fill="#FFE19F" fill-opacity="0.72"/>
<path d="M103.792 182.972C105.103 180.615 106.675 179.199 109.255 180.093C110.73 180.604 111.155 181.92 111.019 183.403C110.878 184.954 110.017 185.947 108.48 186.082C107.505 186.168 106.257 186.235 105.569 185.724C104.719 185.092 104.322 183.85 103.792 182.972Z" fill="#FFE19F" fill-opacity="0.72"/>
<path d="M103.73 242.947C106.515 239.634 108.432 238.979 110.127 240.573C111.338 241.712 111.366 244.025 110.182 245.202C108.539 246.836 106.603 246.214 103.73 242.947Z" fill="#FFE19F" fill-opacity="0.72"/>
<path d="M132.664 34.1697C135.42 30.8649 137.356 30.1998 139.053 31.7874C140.273 32.9277 140.3 35.2332 139.108 36.4146C137.453 38.0556 135.505 37.4321 132.664 34.1697Z" fill="#FFE19F" fill-opacity="0.72"/>
<path d="M49.9047 126.971C48.244 126.898 46.8829 125.357 46.8819 123.55C46.8808 121.638 48.6701 119.884 50.3978 120.103C52.1318 120.323 53.2475 121.81 53.1603 123.786C53.0828 125.53 51.5368 127.044 49.9047 126.971Z" fill="#FFE19F" fill-opacity="0.72"/>
<path d="M136.708 90.8805C138.606 90.992 139.906 92.045 139.933 93.4944C139.962 95.0945 137.822 97.2227 136.251 97.1558C134.63 97.0878 132.633 94.8564 132.793 93.2935C132.956 91.6901 134.48 90.7507 136.708 90.8805Z" fill="#FFE19F" fill-opacity="0.72"/>
<path d="M136.826 119.898C138.626 121.016 140.283 121.997 139.819 124.267C139.533 125.667 137.201 127.027 135.844 126.605C134.397 126.155 132.812 125.529 132.807 123.683C132.798 120.996 135.263 120.926 136.826 119.898Z" fill="#FFE19F" fill-opacity="0.72"/>
<path d="M136.314 156.214C134.134 156.197 132.653 155.021 132.769 153.398C132.87 151.989 134.73 150.074 136.129 149.938C137.679 149.788 139.876 151.827 139.934 153.468C139.99 155.067 138.457 156.23 136.314 156.214Z" fill="#FFE19F" fill-opacity="0.72"/>
<path d="M136.229 186.174C134.017 186.128 132.594 184.931 132.78 183.274C132.942 181.825 134.823 179.966 136.213 179.881C137.773 179.787 139.937 181.893 139.94 183.509C139.944 185.098 138.384 186.218 136.229 186.174Z" fill="#FFE19F" fill-opacity="0.72"/>
<path d="M132.691 213.124C135.324 209.702 137.154 208.99 138.954 210.513C140.216 211.579 140.342 213.887 139.207 215.141C137.646 216.866 135.622 216.297 132.691 213.124Z" fill="#FFE19F" fill-opacity="0.72"/>
<path d="M103.76 34.3015C106.419 30.8712 108.227 30.1634 110.021 31.6801C111.276 32.7399 111.409 35.0574 110.288 36.3109C108.742 38.039 106.731 37.4781 103.76 34.3015Z" fill="#FFE19F" fill-opacity="0.72"/>
<path d="M139.904 272.108C140.074 273.672 138.095 275.899 136.461 275.98C135.138 276.047 133.121 274.312 132.807 272.841C132.46 271.208 133.837 269.847 135.982 269.704C138.201 269.556 139.727 270.492 139.904 272.108Z" fill="#FFE19F" fill-opacity="0.72"/>
<path d="M103.759 4.3167C106.444 0.929428 108.285 0.227416 110.046 1.74754C111.289 2.81999 111.397 5.1339 110.261 6.37549C108.686 8.09691 106.696 7.52504 103.759 4.3167Z" fill="#FFE19F" fill-opacity="0.72"/>
<path d="M103.897 64.4341C104.376 62.0423 105.448 60.5973 108.075 60.9161C109.869 61.1339 110.838 61.9977 111.034 63.8359C111.224 65.6072 110.055 66.2372 108.775 66.8195C106.126 68.0233 105.14 65.9748 103.897 64.4341Z" fill="#FFE19F" fill-opacity="0.72"/>
<path d="M103.751 212.811C106.698 209.609 108.681 209.036 110.258 210.746C111.399 211.983 111.295 214.295 110.049 215.373C108.276 216.908 106.446 216.216 103.751 212.811Z" fill="#FFE19F" fill-opacity="0.72"/>
<path d="M132.625 4.03389C134.034 2.40384 134.934 0.155234 137.528 1.41751C138.878 2.07497 140.29 3.24276 139.799 4.96685C139.538 5.87892 138.379 6.64145 137.464 7.21733C136.975 7.52557 136.136 7.36876 135.473 7.28063C135.001 7.21779 134.39 7.04462 134.138 6.70228C133.554 5.912 133.149 4.98908 132.625 4.03389Z" fill="#FFE19F" fill-opacity="0.72"/>
<path d="M132.853 64.4618C133.255 62.224 134.145 60.6526 136.809 60.9055C138.308 61.0479 139.433 61.5759 139.852 63.0794C140.215 64.3757 138.861 66.5082 137.262 67.0086C134.937 67.7364 133.959 65.9578 132.853 64.4618Z" fill="#FFE19F" fill-opacity="0.72"/>
<path d="M132.748 243.363C133.463 240.459 134.837 239.337 137.298 239.769C138.805 240.033 140.153 240.925 139.816 242.36C139.512 243.652 138.404 245.177 137.235 245.753C135.006 246.848 134.064 244.639 132.748 243.363Z" fill="#FFE19F" fill-opacity="0.72"/>
<path d="M103.87 152.679C105.139 151.122 106.218 149.096 108.4 150.26C109.545 150.871 110.605 152.412 110.865 153.701C111.161 155.165 109.759 155.968 108.262 156.204C105.757 156.6 104.481 155.363 103.87 152.679Z" fill="#FFE19F" fill-opacity="0.72"/>
<path d="M-8.08695 119.986C-5.86202 120.665 -3.92722 121.642 -4.3118 123.747C-4.55616 125.088 -6.24242 126.165 -7.23699 127.307C-12.0597 124.03 -12.0906 123.62 -8.08695 119.986Z" fill="#FFE19F" fill-opacity="0.72"/>
<path d="M103.819 94.5092C104.541 91.5819 105.932 90.4864 108.379 90.9019C109.891 91.159 111.223 92.0622 110.881 93.4966C110.574 94.7843 109.465 96.2973 108.296 96.8733C106.065 97.9739 105.137 95.7428 103.819 94.5092Z" fill="#FFE19F" fill-opacity="0.72"/>
<path d="M20.7713 127.003C18.8418 125.906 17.2427 124.43 18.183 122.141C18.574 121.19 20.2656 120.201 21.3291 120.241C22.6871 120.291 24.1576 121.052 24.2873 123.07C24.4604 125.746 22.9623 126.622 20.7713 127.003Z" fill="#FFE19F" fill-opacity="0.72"/>
<path d="M78.8311 67.2232C76.8856 67.1615 75.7572 65.9387 75.8188 63.958C75.8794 61.9817 77.0726 60.8713 79.067 60.9352C81.0401 60.9989 82.1239 62.1783 82.0729 64.2013C82.0229 66.1989 80.8563 67.2869 78.8311 67.2232Z" fill="#FFE19F" fill-opacity="0.72"/>
<path d="M-4.17057 272.133C-4.04417 273.629 -5.5986 275.724 -6.99479 275.939C-8.53437 276.176 -10.7604 274.295 -10.9399 272.605C-11.0961 271.132 -9.87745 269.92 -8.02969 269.709C-5.98109 269.473 -4.30656 270.527 -4.17057 272.133Z" fill="#FFE19F" fill-opacity="0.72"/>
<path d="M-4.67111 4.23308C-4.68811 6.18861 -5.90254 7.35938 -7.87143 7.32106C-9.83818 7.28311 -10.9953 6.08835 -10.9688 4.12166C-10.9432 2.14544 -9.76483 1.0071 -7.76949 1.02992C-5.81226 1.05274 -4.65413 2.25023 -4.67111 4.23308Z" fill="#FFE19F" fill-opacity="0.72"/>
<path d="M-4.67009 34.192C-4.70305 36.1411 -5.92809 37.3122 -7.88953 37.2727C-9.85201 37.2337 -11.0027 36.0328 -10.973 34.0571C-10.9411 32.0835 -9.76064 30.9541 -7.75354 30.9784C-5.79204 31.0024 -4.63611 32.207 -4.67009 34.192Z" fill="#FFE19F" fill-opacity="0.72"/>
<path d="M24.2426 242.968C24.2085 244.924 23.0004 246.083 21.0274 246.05C19.0638 246.018 17.9258 244.828 17.9524 242.837C17.9789 240.857 19.153 239.728 21.1623 239.753C23.1174 239.777 24.2755 240.985 24.2426 242.968Z" fill="#FFE19F" fill-opacity="0.72"/>
<path d="M82.0729 4.10491C82.1026 6.10292 80.9816 7.28362 79.016 7.3257C77.0259 7.36825 75.8559 6.23826 75.8241 4.24499C75.7933 2.25119 76.9259 1.05953 78.8821 1.02588C80.8902 0.991633 82.0431 2.10488 82.0729 4.10491Z" fill="#FFE19F" fill-opacity="0.72"/>
<path d="M107.41 275.985C106.037 275.999 104.234 274.059 104.154 272.48C104.089 271.146 105.591 269.773 107.193 269.703C109.395 269.608 110.903 270.614 110.989 272.235C111.075 273.853 109.056 275.968 107.41 275.985Z" fill="#FFE19F" fill-opacity="0.72"/>
<path d="M79.0511 37.2773C77.0525 37.3277 75.8677 36.2092 75.8231 34.2277C75.7785 32.2298 76.9027 31.023 78.8492 30.9805C80.8606 30.9364 82.023 32.0357 82.073 34.0296C82.1239 36.027 81.0061 37.2276 79.0511 37.2773Z" fill="#FFE19F" fill-opacity="0.72"/>
<path d="M-4.66989 213.2C-4.79946 215.104 -6.12229 216.231 -8.07096 216.099C-9.98254 215.968 -11.1045 214.656 -10.9749 212.704C-10.8484 210.815 -9.51606 209.679 -7.56953 209.799C-5.6878 209.916 -4.5381 211.264 -4.66989 213.2Z" fill="#FFE19F" fill-opacity="0.72"/>
<path d="M-4.66899 242.95C-4.70504 244.899 -5.92166 246.076 -7.87771 246.05C-9.84661 246.026 -10.9984 244.836 -10.975 242.851C-10.9527 240.887 -9.76373 239.741 -7.76512 239.753C-5.8005 239.765 -4.63383 240.97 -4.66899 242.95Z" fill="#FFE19F" fill-opacity="0.72"/>
<path d="M24.2426 213.186C24.1257 215.09 22.8081 216.226 20.8616 216.103C18.9522 215.983 17.8312 214.681 17.9503 212.722C18.066 210.827 19.3857 209.685 21.328 209.8C23.2194 209.911 24.3616 211.239 24.2426 213.186Z" fill="#FFE19F" fill-opacity="0.72"/>
<path d="M49.9355 7.32732C47.9857 7.28173 46.8573 6.08009 46.8988 4.09148C46.9402 2.09411 48.0963 0.991176 50.1055 1.03061C52.0723 1.06945 53.1869 2.2543 53.1465 4.26165C53.1061 6.24974 51.9299 7.37356 49.9355 7.32732Z" fill="#FFE19F" fill-opacity="0.72"/>
<path d="M21.0453 186.156C19.0775 186.12 17.9268 184.927 17.9545 182.954C17.9809 180.972 19.1593 179.831 21.1484 179.858C23.1024 179.883 24.2722 181.094 24.2478 183.063C24.2223 185.02 23.0079 186.193 21.0453 186.156Z" fill="#FFE19F" fill-opacity="0.72"/>
<path d="M108.054 119.949C109.78 121.15 111.629 122.156 110.769 124.499C110.181 126.096 108.539 126.939 107.069 126.561C105.979 126.28 104.562 124.952 104.385 123.904C103.939 121.262 106.236 120.703 108.054 119.949Z" fill="#FFE19F" fill-opacity="0.72"/>
<path d="M21.1858 67.2233C19.1861 67.2689 17.9992 66.1459 17.9556 64.1685C17.9111 62.1879 19.0395 60.9927 21.0083 60.9332C22.974 60.8736 24.198 62.0276 24.2437 63.9847C24.2894 65.9579 23.1366 67.1797 21.1858 67.2233Z" fill="#FFE19F" fill-opacity="0.72"/>
<path d="M21.1889 37.2749C19.1871 37.3169 17.9981 36.1927 17.9556 34.219C17.9131 32.2383 19.0468 31.0326 21.004 30.9785C22.975 30.9241 24.1927 32.0733 24.2404 34.0338C24.2893 36.0054 23.1323 37.2343 21.1889 37.2749Z" fill="#FFE19F" fill-opacity="0.72"/>
<path d="M21.189 7.32472C19.1861 7.36467 17.9982 6.24157 17.9567 4.26838C17.9142 2.27108 19.0352 1.07924 21.0009 1.02995C22.9772 0.980656 24.1885 2.12368 24.2384 4.08317C24.2884 6.0625 23.1366 7.28633 21.189 7.32472Z" fill="#FFE19F" fill-opacity="0.72"/>
<path d="M50.2235 246.053C48.2249 246.156 46.9966 245.069 46.8988 243.108C46.8 241.123 47.9008 239.859 49.8176 239.753C51.778 239.645 53.0434 240.766 53.1476 242.702C53.2538 244.683 52.1456 245.953 50.2235 246.053Z" fill="#FFE19F" fill-opacity="0.72"/>
<path d="M49.924 216.105C47.9796 216.058 46.8533 214.85 46.8979 212.858C46.9426 210.864 48.1081 209.757 50.1173 209.802C52.0661 209.846 53.1945 211.054 53.1488 213.049C53.1031 215.033 51.9216 216.153 49.924 216.105Z" fill="#FFE19F" fill-opacity="0.72"/>
<path d="M53.1477 182.931C53.1786 184.926 52.0459 186.122 50.095 186.155C48.0911 186.188 46.933 185.074 46.8979 183.077C46.8628 181.075 47.9828 179.893 49.9474 179.857C51.9491 179.821 53.1169 180.943 53.1477 182.931Z" fill="#FFE19F" fill-opacity="0.72"/>
<path d="M78.8651 216.105C76.9228 216.066 75.7827 214.855 75.822 212.868C75.8613 210.878 77.0365 209.757 79.0341 209.804C80.9944 209.851 82.1165 211.043 82.0761 213.039C82.0367 215.038 80.8764 216.146 78.8651 216.105Z" fill="#FFE19F" fill-opacity="0.72"/>
<path d="M53.1456 64.1588C53.1105 66.1511 51.9492 67.2615 49.941 67.2232C47.9806 67.186 46.8597 65.997 46.8979 63.9973C46.9351 62.0019 48.0922 60.8948 50.1036 60.9299C52.0672 60.9638 53.1807 62.1453 53.1456 64.1588Z" fill="#FFE19F" fill-opacity="0.72"/>
<path d="M50.112 37.2784C48.1027 37.3241 46.9382 36.2148 46.8978 34.2195C46.8585 32.2184 47.9763 31.0225 49.9271 30.979C51.9257 30.9338 53.103 32.0509 53.1477 34.036C53.1923 36.0271 52.0618 37.2342 50.112 37.2784Z" fill="#FFE19F" fill-opacity="0.72"/>
<path d="M76.1227 270.235C80.8244 269.595 82.0697 270.185 82.0676 272.847C82.0665 274.397 80.5258 275.816 78.6877 275.96C76.5998 276.122 75.8571 274.567 76.1227 270.235Z" fill="#FFE19F" fill-opacity="0.72"/>
<path d="M79.2073 246.052C77.2352 246.184 75.9485 245.086 75.821 243.161C75.6913 241.185 76.7921 239.876 78.6877 239.752C80.6396 239.624 81.9411 240.738 82.075 242.649C82.2131 244.624 81.1188 245.923 79.2073 246.052Z" fill="#FFE19F" fill-opacity="0.72"/>
<path d="M78.6909 186.16C76.7996 186.043 75.6956 184.732 75.821 182.753C75.9442 180.83 77.2246 179.734 79.204 179.859C81.1187 179.98 82.2099 181.271 82.074 183.255C81.9432 185.161 80.6396 186.281 78.6909 186.16Z" fill="#FFE19F" fill-opacity="0.72"/>
<path d="M76.2737 155.822C75.8008 151.535 76.4638 149.903 78.4954 149.923C80.4526 149.942 82.2345 151.663 82.0719 153.376C81.8434 155.788 80.902 156.213 76.2737 155.822Z" fill="#FFE19F" fill-opacity="0.72"/>
<path d="M79.1828 119.986C83.0366 123.427 83.0377 123.669 79.2593 127.022C77.7144 126.525 75.9974 126.384 75.7784 124.059C75.5543 121.662 76.8208 120.675 79.1828 119.986Z" fill="#FFE19F" fill-opacity="0.72"/>
<path d="M24.0692 270.281C24.1362 271.458 24.336 272.319 24.2 273.124C23.927 274.75 21.9952 276.243 20.6309 275.744C19.4675 275.317 18.0182 274.945 17.9417 273.15C17.8599 271.231 18.7736 269.887 20.7797 269.752C21.8592 269.68 22.9717 270.089 24.0692 270.281Z" fill="#FFE19F" fill-opacity="0.72"/>
<path d="M-8.06694 97.0782C-9.66497 96.1559 -11.2833 95.1551 -10.8402 92.8823C-10.5639 91.4648 -8.17 89.9815 -6.89287 90.567C-5.98761 90.9824 -5.02068 92.0035 -4.76464 92.9407C-4.21314 94.9585 -4.72313 95.4196 -8.06694 97.0782Z" fill="#FFE19F" fill-opacity="0.72"/>
<path d="M-5.19071 155.85C-9.37597 156.171 -11.0399 155.428 -10.956 153.44C-10.889 151.848 -8.78413 149.864 -7.23287 149.927C-5.24905 150.008 -4.62118 151.688 -5.19071 155.85Z" fill="#FFE19F" fill-opacity="0.72"/>
<path d="M76.2758 91.2609C80.8925 90.8539 82.125 91.5031 82.0677 94.1191C82.0347 95.6331 80.204 97.1887 78.6463 97.0251C76.5446 96.8062 75.8327 95.1997 76.2758 91.2609Z" fill="#FFE19F" fill-opacity="0.72"/>
<path d="M24.0014 91.1378C24.1109 92.4638 24.3096 93.2989 24.2171 94.1001C24.0343 95.678 22.1431 97.3652 20.8202 96.9625C19.6248 96.5991 18.1851 96.2336 17.9556 94.5293C17.7059 92.6868 18.6251 91.2492 20.5833 90.9432C21.5342 90.7945 22.5457 91.0389 24.0014 91.1378Z" fill="#FFE19F" fill-opacity="0.72"/>
<path d="M50.113 156.195C48.0708 156.239 46.9073 155.107 46.8978 153.071C46.8903 151.295 48.0527 149.916 49.553 149.923C51.2021 149.931 53.0647 151.47 53.1359 152.882C53.239 154.936 52.1286 156.154 50.113 156.195Z" fill="#FFE19F" fill-opacity="0.72"/>
<path d="M-10.9496 63.4959C-10.8943 62.0381 -9.49178 60.9172 -7.745 60.9341C-5.77085 60.9543 -4.62856 62.1466 -4.6711 64.1441C-4.70716 65.8431 -5.94608 67.2392 -7.38903 67.2073C-9.00086 67.1712 -11.0091 65.078 -10.9496 63.4959Z" fill="#FFE19F" fill-opacity="0.72"/>
<path d="M-4.67004 182.79C-4.55311 184.756 -5.68581 186.059 -7.5994 186.158C-9.34092 186.247 -10.7806 185.199 -10.9304 183.733C-11.0898 182.171 -9.20277 180.035 -7.53143 179.889C-6.05767 179.759 -4.77302 181.062 -4.67004 182.79Z" fill="#FFE19F" fill-opacity="0.72"/>
<path d="M20.9604 150.053C22.5893 149.969 24.2776 151.573 24.2393 153.168C24.1958 154.929 23.196 156.029 21.4874 156.196C19.543 156.386 18.1574 155.303 17.9492 153.431C17.7749 151.861 19.3114 150.138 20.9604 150.053Z" fill="#FFE19F" fill-opacity="0.72"/>
<path d="M50.1587 97.0261C48.5213 97.1048 46.867 95.5173 46.8989 93.9193C46.9349 92.1098 47.8499 91.0983 49.6338 90.8932C51.5867 90.669 52.9425 91.7444 53.1508 93.6473C53.324 95.2347 51.8067 96.9475 50.1587 97.0261Z" fill="#FFE19F" fill-opacity="0.72"/>
<path d="M46.9021 272.717C46.9616 270.736 48.1432 269.646 50.1598 269.709C52.1371 269.77 53.2231 270.969 53.1381 272.995C53.0839 274.299 51.5167 275.788 50.1396 275.846C48.4916 275.915 46.8532 274.332 46.9021 272.717Z" fill="#FFE19F" fill-opacity="0.72"/>
</svg>
