<svg width="391" height="194" viewBox="0 0 391 194" fill="none" xmlns="http://www.w3.org/2000/svg">
<path d="M390.109 66.7832C391.428 69.5351 391.474 70.743 388.93 71.7919C376.348 76.9796 363.527 81.9399 351.497 87.7096C344.024 91.2939 338.585 90.8261 331.353 87.3798C319.314 81.6438 306.402 76.8133 293.036 71.2601C277.188 77.8649 260.935 84.6398 244.395 91.5333C235.584 87.9271 227.156 84.5456 218.827 81.0453C212.152 78.2413 205.56 75.3359 199.015 72.3839C196.658 71.3204 194.66 71.3195 192.275 72.3638C180.726 77.4209 169.132 82.4278 157.492 87.3808C154.367 88.7101 151.024 89.7855 147.354 91.135C130.094 85.9088 115.288 77.293 97.9739 71.3241C89.6573 74.8133 81.3475 78.3044 73.0296 81.7881C66.3467 84.5867 59.6143 87.3305 52.9847 90.1911C50.3321 91.3351 47.959 91.1313 45.474 90.0641C31.9913 84.2715 18.4865 78.5027 5.02193 72.6881C3.21275 71.907 1.59079 70.9092 0 70.0742C1.09172 67.4364 2.80074 67.0664 5.57943 68.2632C13.8648 71.8339 22.2139 75.3323 30.5279 78.8727C36.956 81.61 43.3672 84.3684 49.8564 87.1478C62.6257 81.5891 74.7308 75.8503 87.4649 70.9138C99.1996 66.3647 96.8967 65.6073 109.025 70.9239C121.401 76.3492 133.997 81.5278 147.121 87.0783C163.047 80.2879 179.202 73.4008 195.632 66.3948C211.711 73.2053 227.902 80.065 244.383 87.0463C260.64 80.1692 276.869 73.3039 293.203 66.3948C309.256 73.2546 325.029 79.9947 341.285 86.9412C357.732 81.0363 372.889 73.0043 390.109 66.7832Z" fill="#FEF3E6"/>
<path d="M341.663 58.2249C337.77 56.679 333.514 55.081 329.39 53.3304C318.782 48.826 308.242 44.2441 297.658 39.7123C294.546 38.3802 291.873 38.1664 288.292 39.7754C275.802 45.387 262.966 50.6159 250.23 55.9554C248.359 56.7393 246.325 57.3322 244.084 58.1116C236.779 55.1586 229.37 52.2376 222.066 49.1925C214.333 45.9681 206.647 42.6844 199.048 39.3066C196.339 38.1024 194.33 38.4487 191.718 39.567C177.808 45.5177 163.759 51.3112 149.752 57.1477C148.928 57.4903 148.022 57.7361 146.811 58.1426C138.474 54.7503 130.047 51.3615 121.679 47.9014C115.399 45.3039 109.121 42.6954 102.984 39.9371C99.4804 38.3619 96.4692 38.3866 92.9042 39.9553C79.9309 45.6675 66.8236 51.229 53.7308 56.806C52.3116 57.4108 50.6599 57.7461 49.0587 58.224C34.0969 51.9298 19.295 45.7205 4.5334 39.4637C3.10114 38.8562 1.60915 38.0915 0.742282 37.133C0.161305 36.4889 0.631702 35.3742 0.631702 33.6254C18.6035 39.4811 33.1962 47.8923 50.0282 53.8713C66.1779 46.9731 82.3287 40.0742 98.516 33.1595C114.803 40.1235 130.766 46.9494 147.261 54.002C163.217 47.1193 179.324 40.171 195.723 33.0965C211.812 40.0092 227.755 46.8599 244.374 54.001C260.205 47.2079 276.334 40.2878 293.059 33.1111C308.815 39.8978 324.746 46.7594 341.278 53.8804C357.572 47.8804 373.003 40.1975 389.675 33.7059C391.013 37.1495 390.701 37.7927 387.385 39.2747C383.49 41.016 379.612 42.7786 375.629 44.414C364.516 48.9759 353.355 53.4766 341.663 58.2249Z" fill="#FEF3E6"/>
<path d="M147.112 20.7557C163.295 13.8383 179.273 7.00961 195.667 0.00279524C211.853 6.93745 227.999 13.8548 244.354 20.8626C260.39 13.9745 276.342 7.12108 292.919 0C308.954 6.82045 325.153 13.7095 341.603 20.7063C349.845 17.27 357.893 13.7962 366.102 10.5263C374.013 7.37419 381.014 3.01418 389.983 0.919181C392.359 4.01834 389.501 5.19231 387.182 6.24584C382.9 8.19193 378.404 9.90594 374.005 11.7241C364.569 15.6255 355.145 19.5414 345.697 23.4263C344.244 24.0238 342.686 24.4953 341.304 24.9795C326.418 18.73 311.817 12.5957 297.209 6.47146C294.271 5.23982 291.769 5.17592 288.474 6.60485C273.992 12.8881 259.238 18.8634 244.253 25.0864C229.933 19.0279 215.565 12.9767 201.247 6.87074C197.591 5.31205 194.704 5.15216 190.617 6.97949C177.287 12.9411 163.498 18.3966 149.875 24.0339C149.047 24.3765 148.128 24.6104 147.052 24.9594C139.725 22.0165 132.3 19.1129 124.988 16.075C117.247 12.8579 109.535 9.59984 101.974 6.17915C98.8774 4.77754 96.3561 5.53495 93.8075 6.57475C89.3938 8.37647 85.1281 10.3554 80.7391 12.1892C70.7005 16.3838 60.6256 20.5336 50.0697 24.9073C48.115 24.2467 45.6313 23.5596 43.3634 22.6168C30.5929 17.3029 17.851 11.9553 5.16363 6.54363C3.3493 5.76983 1.76233 4.667 0.340492 3.54685C-0.0273008 3.25631 0.430163 2.24306 0.881173 1.72048C1.14889 1.40887 2.2758 1.16678 2.78657 1.30748C5.04666 1.92876 7.35353 2.55188 9.4096 3.44089C20.3905 8.18552 31.2909 13.0233 42.2432 17.799C44.5176 18.7904 46.8999 19.6583 49.5525 20.7109C56.8228 17.6565 64.1384 14.6122 71.4127 11.5195C78.9013 8.33626 86.4266 5.19054 93.7827 1.86112C97.3386 0.252175 100.131 0.515332 103.659 2.09505C117.188 8.15624 130.934 13.9799 144.609 19.8804C145.418 20.2294 146.314 20.4788 147.112 20.7557Z" fill="#FEF3E6"/>
<path d="M390.109 168.783C391.428 171.535 391.474 172.743 388.93 173.792C376.348 178.98 363.527 183.94 351.497 189.71C344.024 193.294 338.585 192.826 331.353 189.38C319.314 183.644 306.402 178.813 293.036 173.26C277.188 179.865 260.935 186.64 244.395 193.533C235.584 189.927 227.156 186.546 218.827 183.045C212.152 180.241 205.56 177.336 199.015 174.384C196.658 173.32 194.66 173.319 192.275 174.364C180.726 179.421 169.132 184.428 157.492 189.381C154.367 190.71 151.024 191.785 147.354 193.135C130.094 187.909 115.288 179.293 97.9739 173.324C89.6573 176.813 81.3475 180.304 73.0296 183.788C66.3467 186.587 59.6143 189.33 52.9847 192.191C50.3321 193.335 47.959 193.131 45.474 192.064C31.9913 186.271 18.4865 180.503 5.02193 174.688C3.21275 173.907 1.59079 172.909 0 172.074C1.09172 169.436 2.80074 169.066 5.57943 170.263C13.8648 173.834 22.2139 177.332 30.5279 180.873C36.956 183.61 43.3672 186.368 49.8564 189.148C62.6257 183.589 74.7308 177.85 87.4649 172.914C99.1996 168.365 96.8967 167.607 109.025 172.924C121.401 178.349 133.997 183.528 147.121 189.078C163.047 182.288 179.202 175.401 195.632 168.395C211.711 175.205 227.902 182.065 244.383 189.046C260.64 182.169 276.869 175.304 293.203 168.395C309.256 175.255 325.029 181.995 341.285 188.941C357.732 183.036 372.889 175.004 390.109 168.783Z" fill="#FEF3E6"/>
<path d="M341.663 160.225C337.77 158.679 333.514 157.081 329.39 155.33C318.782 150.826 308.242 146.244 297.658 141.712C294.546 140.38 291.873 140.166 288.292 141.775C275.802 147.387 262.966 152.616 250.23 157.955C248.359 158.739 246.325 159.332 244.084 160.112C236.779 157.159 229.37 154.238 222.066 151.192C214.333 147.968 206.647 144.684 199.048 141.307C196.339 140.102 194.33 140.449 191.718 141.567C177.808 147.518 163.759 153.311 149.752 159.148C148.928 159.49 148.022 159.736 146.811 160.143C138.474 156.75 130.047 153.361 121.679 149.901C115.399 147.304 109.121 144.695 102.984 141.937C99.4804 140.362 96.4692 140.387 92.9042 141.955C79.9309 147.668 66.8236 153.229 53.7308 158.806C52.3116 159.411 50.6599 159.746 49.0587 160.224C34.0969 153.93 19.295 147.721 4.5334 141.464C3.10114 140.856 1.60915 140.091 0.742282 139.133C0.161305 138.489 0.631702 137.374 0.631702 135.625C18.6035 141.481 33.1962 149.892 50.0282 155.871C66.1779 148.973 82.3287 142.074 98.516 135.16C114.803 142.123 130.766 148.949 147.261 156.002C163.217 149.119 179.324 142.171 195.723 135.096C211.812 142.009 227.755 148.86 244.374 156.001C260.205 149.208 276.334 142.288 293.059 135.111C308.815 141.898 324.746 148.759 341.278 155.88C357.572 149.88 373.003 142.197 389.675 135.706C391.013 139.149 390.701 139.793 387.385 141.275C383.49 143.016 379.612 144.779 375.629 146.414C364.516 150.976 353.355 155.477 341.663 160.225Z" fill="#FEF3E6"/>
<path d="M147.112 122.756C163.295 115.838 179.273 109.01 195.667 102.003C211.853 108.937 227.999 115.855 244.354 122.863C260.39 115.974 276.342 109.121 292.919 102C308.954 108.82 325.153 115.709 341.603 122.706C349.845 119.27 357.893 115.796 366.102 112.526C374.013 109.374 381.014 105.014 389.983 102.919C392.359 106.018 389.501 107.192 387.182 108.246C382.9 110.192 378.404 111.906 374.005 113.724C364.569 117.625 355.145 121.541 345.697 125.426C344.244 126.024 342.686 126.495 341.304 126.979C326.418 120.73 311.817 114.596 297.209 108.471C294.271 107.24 291.769 107.176 288.474 108.605C273.992 114.888 259.238 120.863 244.253 127.086C229.933 121.028 215.565 114.977 201.247 108.871C197.591 107.312 194.704 107.152 190.617 108.979C177.287 114.941 163.498 120.397 149.875 126.034C149.047 126.377 148.128 126.61 147.052 126.959C139.725 124.017 132.3 121.113 124.988 118.075C117.247 114.858 109.535 111.6 101.974 108.179C98.8774 106.778 96.3561 107.535 93.8075 108.575C89.3938 110.376 85.1281 112.355 80.7391 114.189C70.7005 118.384 60.6256 122.534 50.0697 126.907C48.115 126.247 45.6313 125.56 43.3634 124.617C30.5929 119.303 17.851 113.955 5.16363 108.544C3.3493 107.77 1.76233 106.667 0.340492 105.547C-0.0273008 105.256 0.430163 104.243 0.881173 103.72C1.14889 103.409 2.2758 103.167 2.78657 103.307C5.04666 103.929 7.35353 104.552 9.4096 105.441C20.3905 110.186 31.2909 115.023 42.2432 119.799C44.5176 120.79 46.8999 121.658 49.5525 122.711C56.8228 119.657 64.1384 116.612 71.4127 113.519C78.9013 110.336 86.4266 107.191 93.7827 103.861C97.3386 102.252 100.131 102.515 103.659 104.095C117.188 110.156 130.934 115.98 144.609 121.88C145.418 122.229 146.314 122.479 147.112 122.756Z" fill="#FEF3E6"/>
</svg>
