<svg width="320" height="276" viewBox="0 0 320 276" fill="none" xmlns="http://www.w3.org/2000/svg">
<path d="M283.792 182.291C285.103 179.934 286.675 178.518 289.255 179.412C290.73 179.923 291.155 181.239 291.019 182.722C290.878 184.273 290.017 185.266 288.48 185.401C287.505 185.487 286.257 185.554 285.569 185.043C284.719 184.411 284.322 183.169 283.792 182.291Z" fill="#FFE19F" fill-opacity="0.72"/>
<path d="M283.73 242.266C286.515 238.953 288.432 238.298 290.127 239.892C291.338 241.031 291.366 243.344 290.182 244.521C288.539 246.155 286.603 245.533 283.73 242.266Z" fill="#FFE19F" fill-opacity="0.72"/>
<path d="M312.664 33.4886C315.42 30.1839 317.356 29.5187 319.053 31.1064C320.273 32.2467 320.3 34.5522 319.108 35.7335C317.453 37.3745 315.505 36.7511 312.664 33.4886Z" fill="#FFE19F" fill-opacity="0.72"/>
<path d="M229.905 126.29C228.244 126.217 226.883 124.676 226.882 122.869C226.881 120.957 228.67 119.203 230.398 119.422C232.132 119.642 233.247 121.129 233.16 123.105C233.083 124.849 231.537 126.363 229.905 126.29Z" fill="#FFE19F" fill-opacity="0.72"/>
<path d="M316.708 90.1994C318.606 90.311 319.906 91.364 319.933 92.8133C319.962 94.4134 317.822 96.5417 316.251 96.4747C314.63 96.4068 312.633 94.1754 312.793 92.6124C312.956 91.009 314.48 90.0697 316.708 90.1994Z" fill="#FFE19F" fill-opacity="0.72"/>
<path d="M316.826 119.217C318.626 120.335 320.283 121.316 319.819 123.586C319.533 124.986 317.201 126.346 315.844 125.924C314.397 125.474 312.812 124.848 312.807 123.002C312.798 120.315 315.263 120.245 316.826 119.217Z" fill="#FFE19F" fill-opacity="0.72"/>
<path d="M316.314 155.533C314.134 155.516 312.653 154.34 312.769 152.717C312.87 151.308 314.73 149.393 316.129 149.257C317.679 149.107 319.876 151.146 319.934 152.787C319.99 154.386 318.457 155.549 316.314 155.533Z" fill="#FFE19F" fill-opacity="0.72"/>
<path d="M316.229 185.492C314.017 185.447 312.594 184.25 312.78 182.593C312.942 181.143 314.823 179.285 316.213 179.2C317.773 179.106 319.937 181.212 319.94 182.828C319.944 184.417 318.384 185.537 316.229 185.492Z" fill="#FFE19F" fill-opacity="0.72"/>
<path d="M312.691 212.443C315.324 209.021 317.154 208.309 318.954 209.832C320.216 210.898 320.342 213.205 319.207 214.46C317.646 216.185 315.622 215.616 312.691 212.443Z" fill="#FFE19F" fill-opacity="0.72"/>
<path d="M283.76 33.6205C286.419 30.1901 288.227 29.4824 290.021 30.999C291.276 32.0589 291.409 34.3764 290.288 35.6298C288.742 37.3579 286.731 36.7971 283.76 33.6205Z" fill="#FFE19F" fill-opacity="0.72"/>
<path d="M319.904 271.427C320.074 272.991 318.095 275.218 316.461 275.299C315.138 275.366 313.121 273.631 312.807 272.16C312.46 270.527 313.837 269.166 315.982 269.023C318.201 268.875 319.727 269.811 319.904 271.427Z" fill="#FFE19F" fill-opacity="0.72"/>
<path d="M283.759 3.63567C286.444 0.248398 288.285 -0.453615 290.046 1.06651C291.289 2.13896 291.397 4.45287 290.261 5.69445C288.686 7.41588 286.696 6.84401 283.759 3.63567Z" fill="#FFE19F" fill-opacity="0.72"/>
<path d="M283.897 63.7531C284.376 61.3613 285.448 59.9163 288.075 60.235C289.869 60.4529 290.838 61.3167 291.034 63.1549C291.224 64.9261 290.055 65.5562 288.775 66.1385C286.126 67.3423 285.14 65.2938 283.897 63.7531Z" fill="#FFE19F" fill-opacity="0.72"/>
<path d="M283.751 212.13C286.698 208.928 288.681 208.355 290.258 210.065C291.399 211.302 291.295 213.614 290.049 214.692C288.276 216.227 286.446 215.534 283.751 212.13Z" fill="#FFE19F" fill-opacity="0.72"/>
<path d="M312.625 3.35286C314.034 1.72281 314.934 -0.525796 317.528 0.73648C318.878 1.39394 320.29 2.56173 319.799 4.28581C319.538 5.19789 318.379 5.96042 317.464 6.5363C316.975 6.84454 316.136 6.68773 315.473 6.59959C315.001 6.53676 314.39 6.36359 314.138 6.02125C313.554 5.23097 313.149 4.30805 312.625 3.35286Z" fill="#FFE19F" fill-opacity="0.72"/>
<path d="M312.853 63.7807C313.255 61.543 314.145 59.9716 316.809 60.2245C318.308 60.3669 319.433 60.8949 319.852 62.3983C320.215 63.6947 318.861 65.8271 317.262 66.3276C314.937 67.0554 313.959 65.2768 312.853 63.7807Z" fill="#FFE19F" fill-opacity="0.72"/>
<path d="M312.748 242.682C313.463 239.778 314.837 238.656 317.298 239.088C318.805 239.352 320.153 240.244 319.816 241.679C319.512 242.971 318.404 244.496 317.235 245.072C315.006 246.167 314.064 243.958 312.748 242.682Z" fill="#FFE19F" fill-opacity="0.72"/>
<path d="M283.87 151.998C285.139 150.441 286.218 148.415 288.4 149.579C289.545 150.19 290.605 151.731 290.865 153.02C291.161 154.484 289.759 155.287 288.262 155.523C285.757 155.919 284.481 154.682 283.87 151.998Z" fill="#FFE19F" fill-opacity="0.72"/>
<path d="M171.913 119.305C174.138 119.984 176.073 120.961 175.688 123.066C175.444 124.406 173.758 125.484 172.763 126.626C167.94 123.349 167.909 122.939 171.913 119.305Z" fill="#FFE19F" fill-opacity="0.72"/>
<path d="M283.819 93.8281C284.541 90.9009 285.932 89.8054 288.379 90.2208C289.891 90.478 291.223 91.3811 290.881 92.8155C290.574 94.1033 289.465 95.6163 288.296 96.1922C286.065 97.2929 285.137 95.0617 283.819 93.8281Z" fill="#FFE19F" fill-opacity="0.72"/>
<path d="M200.771 126.322C198.842 125.225 197.243 123.749 198.183 121.46C198.574 120.509 200.266 119.52 201.329 119.56C202.687 119.61 204.158 120.371 204.287 122.389C204.46 125.065 202.962 125.941 200.771 126.322Z" fill="#FFE19F" fill-opacity="0.72"/>
<path d="M258.831 66.5421C256.886 66.4805 255.757 65.2576 255.819 63.277C255.879 61.3007 257.073 60.1903 259.067 60.2541C261.04 60.3179 262.124 61.4973 262.073 63.5203C262.023 65.5179 260.856 66.6059 258.831 66.5421Z" fill="#FFE19F" fill-opacity="0.72"/>
<path d="M175.829 271.452C175.956 272.948 174.401 275.043 173.005 275.258C171.466 275.495 169.24 273.614 169.06 271.924C168.904 270.451 170.123 269.239 171.97 269.028C174.019 268.792 175.693 269.846 175.829 271.452Z" fill="#FFE19F" fill-opacity="0.72"/>
<path d="M175.329 3.55204C175.312 5.50758 174.097 6.67835 172.129 6.64002C170.162 6.60208 169.005 5.40732 169.031 3.44063C169.057 1.46441 170.235 0.326065 172.231 0.348888C174.188 0.371711 175.346 1.5692 175.329 3.55204Z" fill="#FFE19F" fill-opacity="0.72"/>
<path d="M175.33 33.5109C175.297 35.46 174.072 36.6311 172.11 36.5917C170.148 36.5527 168.997 35.3518 169.027 33.376C169.059 31.4025 170.239 30.2731 172.246 30.2974C174.208 30.3213 175.364 31.5259 175.33 33.5109Z" fill="#FFE19F" fill-opacity="0.72"/>
<path d="M204.243 242.287C204.209 244.243 203 245.402 201.027 245.369C199.064 245.337 197.926 244.147 197.952 242.156C197.979 240.176 199.153 239.047 201.162 239.072C203.117 239.096 204.275 240.304 204.243 242.287Z" fill="#FFE19F" fill-opacity="0.72"/>
<path d="M262.073 3.42388C262.103 5.42189 260.982 6.60259 259.016 6.64467C257.026 6.68722 255.856 5.55723 255.824 3.56396C255.793 1.57016 256.926 0.378498 258.882 0.344848C260.89 0.310602 262.043 1.42384 262.073 3.42388Z" fill="#FFE19F" fill-opacity="0.72"/>
<path d="M287.41 275.304C286.037 275.318 284.234 273.378 284.154 271.799C284.089 270.465 285.591 269.092 287.193 269.022C289.395 268.927 290.903 269.933 290.989 271.554C291.075 273.172 289.056 275.287 287.41 275.304Z" fill="#FFE19F" fill-opacity="0.72"/>
<path d="M259.051 36.5963C257.052 36.6467 255.868 35.5281 255.823 33.5467C255.778 31.5488 256.903 30.342 258.849 30.2995C260.861 30.2554 262.023 31.3547 262.073 33.3485C262.124 35.346 261.006 36.5466 259.051 36.5963Z" fill="#FFE19F" fill-opacity="0.72"/>
<path d="M175.33 212.519C175.201 214.423 173.878 215.55 171.929 215.418C170.017 215.287 168.895 213.975 169.025 212.023C169.152 210.134 170.484 208.998 172.43 209.118C174.312 209.235 175.462 210.583 175.33 212.519Z" fill="#FFE19F" fill-opacity="0.72"/>
<path d="M175.331 242.269C175.295 244.218 174.078 245.395 172.122 245.369C170.153 245.345 169.002 244.155 169.025 242.17C169.047 240.206 170.236 239.06 172.235 239.072C174.199 239.084 175.366 240.289 175.331 242.269Z" fill="#FFE19F" fill-opacity="0.72"/>
<path d="M204.243 212.505C204.126 214.409 202.808 215.545 200.862 215.422C198.952 215.302 197.831 214 197.95 212.041C198.066 210.146 199.386 209.004 201.328 209.119C203.219 209.23 204.362 210.557 204.243 212.505Z" fill="#FFE19F" fill-opacity="0.72"/>
<path d="M229.936 6.64629C227.986 6.6007 226.857 5.39906 226.899 3.41045C226.94 1.41308 228.096 0.310145 230.105 0.349576C232.072 0.388422 233.187 1.57326 233.147 3.58062C233.106 5.56871 231.93 6.69253 229.936 6.64629Z" fill="#FFE19F" fill-opacity="0.72"/>
<path d="M201.045 185.475C199.078 185.439 197.927 184.246 197.954 182.273C197.981 180.291 199.159 179.15 201.148 179.177C203.102 179.202 204.272 180.412 204.248 182.382C204.222 184.338 203.008 185.512 201.045 185.475Z" fill="#FFE19F" fill-opacity="0.72"/>
<path d="M288.054 119.268C289.78 120.469 291.629 121.475 290.769 123.818C290.181 125.415 288.539 126.258 287.069 125.88C285.979 125.599 284.562 124.27 284.385 123.223C283.939 120.581 286.236 120.022 288.054 119.268Z" fill="#FFE19F" fill-opacity="0.72"/>
<path d="M201.186 66.5423C199.186 66.5879 197.999 65.4649 197.956 63.4875C197.911 61.5069 199.04 60.3116 201.008 60.2522C202.974 60.1926 204.198 61.3465 204.244 63.3037C204.289 65.2769 203.137 66.4987 201.186 66.5423Z" fill="#FFE19F" fill-opacity="0.72"/>
<path d="M201.189 36.5938C199.187 36.6359 197.998 35.5117 197.956 33.538C197.913 31.5573 199.047 30.3515 201.004 30.2975C202.975 30.2431 204.193 31.3923 204.24 33.3528C204.289 35.3244 203.132 36.5533 201.189 36.5938Z" fill="#FFE19F" fill-opacity="0.72"/>
<path d="M201.189 6.64368C199.186 6.68364 197.998 5.56054 197.957 3.58735C197.914 1.59005 199.035 0.398208 201.001 0.348917C202.977 0.299626 204.188 1.44265 204.238 3.40214C204.288 5.38147 203.137 6.6053 201.189 6.64368Z" fill="#FFE19F" fill-opacity="0.72"/>
<path d="M230.223 245.372C228.225 245.475 226.997 244.388 226.899 242.427C226.8 240.442 227.901 239.178 229.818 239.072C231.778 238.964 233.043 240.085 233.148 242.021C233.254 244.002 232.146 245.272 230.223 245.372Z" fill="#FFE19F" fill-opacity="0.72"/>
<path d="M229.924 215.424C227.98 215.377 226.853 214.169 226.898 212.177C226.943 210.183 228.108 209.076 230.117 209.121C232.066 209.165 233.194 210.373 233.149 212.368C233.103 214.352 231.922 215.472 229.924 215.424Z" fill="#FFE19F" fill-opacity="0.72"/>
<path d="M233.148 182.25C233.179 184.245 232.046 185.441 230.095 185.474C228.091 185.507 226.933 184.393 226.898 182.396C226.863 180.394 227.983 179.212 229.947 179.176C231.949 179.14 233.117 180.262 233.148 182.25Z" fill="#FFE19F" fill-opacity="0.72"/>
<path d="M258.865 215.424C256.923 215.385 255.783 214.174 255.822 212.187C255.861 210.196 257.036 209.076 259.034 209.123C260.994 209.17 262.116 210.362 262.076 212.358C262.037 214.357 260.876 215.465 258.865 215.424Z" fill="#FFE19F" fill-opacity="0.72"/>
<path d="M233.146 63.4778C233.111 65.47 231.949 66.5804 229.941 66.5422C227.981 66.5049 226.86 65.3159 226.898 63.3163C226.935 61.3209 228.092 60.2137 230.104 60.2488C232.067 60.2828 233.181 61.4643 233.146 63.4778Z" fill="#FFE19F" fill-opacity="0.72"/>
<path d="M230.112 36.5974C228.103 36.643 226.938 35.5338 226.898 33.5385C226.859 31.5374 227.976 30.3415 229.927 30.2979C231.926 30.2527 233.103 31.3699 233.148 33.3549C233.192 35.3461 232.062 36.5532 230.112 36.5974Z" fill="#FFE19F" fill-opacity="0.72"/>
<path d="M256.123 269.554C260.824 268.914 262.07 269.504 262.068 272.166C262.067 273.716 260.526 275.135 258.688 275.279C256.6 275.441 255.857 273.886 256.123 269.554Z" fill="#FFE19F" fill-opacity="0.72"/>
<path d="M259.207 245.37C257.235 245.503 255.948 244.405 255.821 242.48C255.691 240.504 256.792 239.195 258.688 239.071C260.64 238.943 261.941 240.057 262.075 241.968C262.213 243.943 261.119 245.242 259.207 245.37Z" fill="#FFE19F" fill-opacity="0.72"/>
<path d="M258.691 185.479C256.8 185.362 255.696 184.051 255.821 182.072C255.944 180.149 257.225 179.052 259.204 179.178C261.119 179.299 262.21 180.59 262.074 182.574C261.943 184.48 260.64 185.6 258.691 185.479Z" fill="#FFE19F" fill-opacity="0.72"/>
<path d="M256.274 155.141C255.801 150.854 256.464 149.222 258.495 149.242C260.453 149.261 262.234 150.982 262.072 152.695C261.843 155.107 260.902 155.532 256.274 155.141Z" fill="#FFE19F" fill-opacity="0.72"/>
<path d="M259.183 119.305C263.037 122.746 263.038 122.988 259.259 126.341C257.714 125.844 255.997 125.703 255.778 123.378C255.554 120.981 256.821 119.994 259.183 119.305Z" fill="#FFE19F" fill-opacity="0.72"/>
<path d="M204.069 269.6C204.136 270.777 204.336 271.638 204.2 272.443C203.927 274.069 201.995 275.562 200.631 275.063C199.467 274.636 198.018 274.264 197.942 272.469C197.86 270.55 198.774 269.206 200.78 269.071C201.859 268.999 202.972 269.408 204.069 269.6Z" fill="#FFE19F" fill-opacity="0.72"/>
<path d="M171.933 96.3972C170.335 95.4749 168.717 94.474 169.16 92.2013C169.436 90.7838 171.83 89.3005 173.107 89.8859C174.012 90.3014 174.979 91.3225 175.235 92.2596C175.787 94.2774 175.277 94.7386 171.933 96.3972Z" fill="#FFE19F" fill-opacity="0.72"/>
<path d="M174.809 155.169C170.624 155.49 168.96 154.747 169.044 152.759C169.111 151.167 171.216 149.183 172.767 149.246C174.751 149.327 175.379 151.007 174.809 155.169Z" fill="#FFE19F" fill-opacity="0.72"/>
<path d="M256.276 90.5799C260.892 90.1729 262.125 90.8221 262.068 93.438C262.035 94.9521 260.204 96.5077 258.646 96.344C256.545 96.1252 255.833 94.5187 256.276 90.5799Z" fill="#FFE19F" fill-opacity="0.72"/>
<path d="M204.001 90.4567C204.111 91.7828 204.31 92.6179 204.217 93.419C204.034 94.997 202.143 96.6842 200.82 96.2815C199.625 95.9181 198.185 95.5525 197.956 93.8482C197.706 92.0058 198.625 90.5682 200.583 90.2622C201.534 90.1134 202.546 90.3579 204.001 90.4567Z" fill="#FFE19F" fill-opacity="0.72"/>
<path d="M230.113 155.514C228.071 155.558 226.907 154.426 226.898 152.39C226.89 150.614 228.053 149.235 229.553 149.242C231.202 149.25 233.065 150.789 233.136 152.201C233.239 154.255 232.129 155.473 230.113 155.514Z" fill="#FFE19F" fill-opacity="0.72"/>
<path d="M169.05 62.8148C169.106 61.3571 170.508 60.2361 172.255 60.2531C174.229 60.2733 175.371 61.4655 175.329 63.4631C175.293 65.1621 174.054 66.5581 172.611 66.5263C170.999 66.4902 168.991 64.397 169.05 62.8148Z" fill="#FFE19F" fill-opacity="0.72"/>
<path d="M175.33 182.109C175.447 184.075 174.314 185.378 172.401 185.477C170.659 185.566 169.219 184.518 169.07 183.052C168.91 181.49 170.797 179.354 172.469 179.208C173.942 179.078 175.227 180.381 175.33 182.109Z" fill="#FFE19F" fill-opacity="0.72"/>
<path d="M200.96 149.372C202.589 149.288 204.278 150.892 204.239 152.487C204.196 154.248 203.196 155.348 201.487 155.515C199.543 155.705 198.157 154.622 197.949 152.75C197.775 151.18 199.311 149.457 200.96 149.372Z" fill="#FFE19F" fill-opacity="0.72"/>
<path d="M230.159 96.3451C228.521 96.4237 226.867 94.8363 226.899 93.2383C226.935 91.4288 227.85 90.4172 229.634 90.2122C231.587 89.988 232.943 91.0634 233.151 92.9663C233.324 94.5537 231.807 96.2665 230.159 96.3451Z" fill="#FFE19F" fill-opacity="0.72"/>
<path d="M226.902 272.036C226.962 270.055 228.143 268.965 230.16 269.028C232.137 269.089 233.223 270.288 233.138 272.314C233.084 273.618 231.517 275.107 230.14 275.165C228.492 275.234 226.853 273.651 226.902 272.036Z" fill="#FFE19F" fill-opacity="0.72"/>
<path d="M103.792 182.291C105.103 179.934 106.675 178.518 109.255 179.412C110.73 179.923 111.155 181.239 111.019 182.722C110.878 184.273 110.017 185.266 108.48 185.401C107.505 185.487 106.257 185.554 105.569 185.043C104.719 184.411 104.322 183.169 103.792 182.291Z" fill="#FFE19F" fill-opacity="0.72"/>
<path d="M103.73 242.266C106.515 238.953 108.432 238.298 110.127 239.892C111.338 241.031 111.366 243.344 110.182 244.521C108.539 246.155 106.603 245.533 103.73 242.266Z" fill="#FFE19F" fill-opacity="0.72"/>
<path d="M132.664 33.4886C135.42 30.1839 137.356 29.5187 139.053 31.1064C140.273 32.2467 140.3 34.5522 139.108 35.7335C137.453 37.3745 135.505 36.7511 132.664 33.4886Z" fill="#FFE19F" fill-opacity="0.72"/>
<path d="M49.9047 126.29C48.244 126.217 46.8829 124.676 46.8819 122.869C46.8808 120.957 48.6701 119.203 50.3978 119.422C52.1318 119.642 53.2475 121.129 53.1603 123.105C53.0828 124.849 51.5368 126.363 49.9047 126.29Z" fill="#FFE19F" fill-opacity="0.72"/>
<path d="M136.708 90.1994C138.606 90.311 139.906 91.364 139.933 92.8133C139.962 94.4134 137.822 96.5417 136.251 96.4747C134.63 96.4068 132.633 94.1754 132.793 92.6124C132.956 91.009 134.48 90.0697 136.708 90.1994Z" fill="#FFE19F" fill-opacity="0.72"/>
<path d="M136.826 119.217C138.626 120.335 140.283 121.316 139.819 123.586C139.533 124.986 137.201 126.346 135.844 125.924C134.397 125.474 132.812 124.848 132.807 123.002C132.798 120.315 135.263 120.245 136.826 119.217Z" fill="#FFE19F" fill-opacity="0.72"/>
<path d="M136.314 155.533C134.134 155.516 132.653 154.34 132.769 152.717C132.87 151.308 134.73 149.393 136.129 149.257C137.679 149.107 139.876 151.146 139.934 152.787C139.99 154.386 138.457 155.549 136.314 155.533Z" fill="#FFE19F" fill-opacity="0.72"/>
<path d="M136.229 185.492C134.017 185.447 132.594 184.25 132.78 182.593C132.942 181.143 134.823 179.285 136.213 179.2C137.773 179.106 139.937 181.212 139.94 182.828C139.944 184.417 138.384 185.537 136.229 185.492Z" fill="#FFE19F" fill-opacity="0.72"/>
<path d="M132.691 212.443C135.324 209.021 137.154 208.309 138.954 209.832C140.216 210.898 140.342 213.205 139.207 214.46C137.646 216.185 135.622 215.616 132.691 212.443Z" fill="#FFE19F" fill-opacity="0.72"/>
<path d="M103.76 33.6205C106.419 30.1901 108.227 29.4824 110.021 30.999C111.276 32.0589 111.409 34.3764 110.288 35.6298C108.742 37.3579 106.731 36.7971 103.76 33.6205Z" fill="#FFE19F" fill-opacity="0.72"/>
<path d="M139.904 271.427C140.074 272.991 138.095 275.218 136.461 275.299C135.138 275.366 133.121 273.631 132.807 272.16C132.46 270.527 133.837 269.166 135.982 269.023C138.201 268.875 139.727 269.811 139.904 271.427Z" fill="#FFE19F" fill-opacity="0.72"/>
<path d="M103.759 3.63567C106.444 0.248398 108.285 -0.453615 110.046 1.06651C111.289 2.13896 111.397 4.45287 110.261 5.69445C108.686 7.41588 106.696 6.84401 103.759 3.63567Z" fill="#FFE19F" fill-opacity="0.72"/>
<path d="M103.897 63.7531C104.376 61.3613 105.448 59.9163 108.075 60.235C109.869 60.4529 110.838 61.3167 111.034 63.1549C111.224 64.9261 110.055 65.5562 108.775 66.1385C106.126 67.3423 105.14 65.2938 103.897 63.7531Z" fill="#FFE19F" fill-opacity="0.72"/>
<path d="M103.751 212.13C106.698 208.928 108.681 208.355 110.258 210.065C111.399 211.302 111.295 213.614 110.049 214.692C108.276 216.227 106.446 215.534 103.751 212.13Z" fill="#FFE19F" fill-opacity="0.72"/>
<path d="M132.625 3.35286C134.034 1.72281 134.934 -0.525796 137.528 0.73648C138.878 1.39394 140.29 2.56173 139.799 4.28581C139.538 5.19789 138.379 5.96042 137.464 6.5363C136.975 6.84454 136.136 6.68773 135.473 6.59959C135.001 6.53676 134.39 6.36359 134.138 6.02125C133.554 5.23097 133.149 4.30805 132.625 3.35286Z" fill="#FFE19F" fill-opacity="0.72"/>
<path d="M132.853 63.7807C133.255 61.543 134.145 59.9716 136.809 60.2245C138.308 60.3669 139.433 60.8949 139.852 62.3983C140.215 63.6947 138.861 65.8271 137.262 66.3276C134.937 67.0554 133.959 65.2768 132.853 63.7807Z" fill="#FFE19F" fill-opacity="0.72"/>
<path d="M132.748 242.682C133.463 239.778 134.837 238.656 137.298 239.088C138.805 239.352 140.153 240.244 139.816 241.679C139.512 242.971 138.404 244.496 137.235 245.072C135.006 246.167 134.064 243.958 132.748 242.682Z" fill="#FFE19F" fill-opacity="0.72"/>
<path d="M103.87 151.998C105.139 150.441 106.218 148.415 108.4 149.579C109.545 150.19 110.605 151.731 110.865 153.02C111.161 154.484 109.759 155.287 108.262 155.523C105.757 155.919 104.481 154.682 103.87 151.998Z" fill="#FFE19F" fill-opacity="0.72"/>
<path d="M-8.08695 119.305C-5.86202 119.984 -3.92722 120.961 -4.3118 123.066C-4.55616 124.406 -6.24242 125.484 -7.23699 126.626C-12.0597 123.349 -12.0906 122.939 -8.08695 119.305Z" fill="#FFE19F" fill-opacity="0.72"/>
<path d="M103.819 93.8281C104.541 90.9009 105.932 89.8054 108.379 90.2208C109.891 90.478 111.223 91.3811 110.881 92.8155C110.574 94.1033 109.465 95.6163 108.296 96.1922C106.065 97.2929 105.137 95.0617 103.819 93.8281Z" fill="#FFE19F" fill-opacity="0.72"/>
<path d="M20.7713 126.322C18.8418 125.225 17.2427 123.749 18.183 121.46C18.574 120.509 20.2656 119.52 21.3291 119.56C22.6871 119.61 24.1576 120.371 24.2873 122.389C24.4604 125.065 22.9623 125.941 20.7713 126.322Z" fill="#FFE19F" fill-opacity="0.72"/>
<path d="M78.8311 66.5421C76.8856 66.4805 75.7572 65.2576 75.8188 63.277C75.8794 61.3007 77.0726 60.1903 79.067 60.2541C81.0401 60.3179 82.1239 61.4973 82.0729 63.5203C82.0229 65.5179 80.8563 66.6059 78.8311 66.5421Z" fill="#FFE19F" fill-opacity="0.72"/>
<path d="M-4.17057 271.452C-4.04417 272.948 -5.5986 275.043 -6.99479 275.258C-8.53437 275.495 -10.7604 273.614 -10.9399 271.924C-11.0961 270.451 -9.87745 269.239 -8.02969 269.028C-5.98109 268.792 -4.30656 269.846 -4.17057 271.452Z" fill="#FFE19F" fill-opacity="0.72"/>
<path d="M-4.67111 3.55204C-4.68811 5.50758 -5.90254 6.67835 -7.87143 6.64002C-9.83818 6.60208 -10.9953 5.40732 -10.9688 3.44063C-10.9432 1.46441 -9.76483 0.326065 -7.76949 0.348888C-5.81226 0.371711 -4.65413 1.5692 -4.67111 3.55204Z" fill="#FFE19F" fill-opacity="0.72"/>
<path d="M-4.67009 33.5109C-4.70305 35.46 -5.92809 36.6311 -7.88953 36.5917C-9.85201 36.5527 -11.0027 35.3518 -10.973 33.376C-10.9411 31.4025 -9.76064 30.2731 -7.75354 30.2974C-5.79204 30.3213 -4.63611 31.5259 -4.67009 33.5109Z" fill="#FFE19F" fill-opacity="0.72"/>
<path d="M24.2426 242.287C24.2085 244.243 23.0004 245.402 21.0274 245.369C19.0638 245.337 17.9258 244.147 17.9524 242.156C17.9789 240.176 19.153 239.047 21.1623 239.072C23.1174 239.096 24.2755 240.304 24.2426 242.287Z" fill="#FFE19F" fill-opacity="0.72"/>
<path d="M82.0729 3.42388C82.1026 5.42189 80.9816 6.60259 79.016 6.64467C77.0259 6.68722 75.8559 5.55723 75.8241 3.56396C75.7933 1.57016 76.9259 0.378498 78.8821 0.344848C80.8902 0.310602 82.0431 1.42384 82.0729 3.42388Z" fill="#FFE19F" fill-opacity="0.72"/>
<path d="M107.41 275.304C106.037 275.318 104.234 273.378 104.154 271.799C104.089 270.465 105.591 269.092 107.193 269.022C109.395 268.927 110.903 269.933 110.989 271.554C111.075 273.172 109.056 275.287 107.41 275.304Z" fill="#FFE19F" fill-opacity="0.72"/>
<path d="M79.0511 36.5963C77.0525 36.6467 75.8677 35.5281 75.8231 33.5467C75.7785 31.5488 76.9027 30.342 78.8492 30.2995C80.8606 30.2554 82.023 31.3547 82.073 33.3485C82.1239 35.346 81.0061 36.5466 79.0511 36.5963Z" fill="#FFE19F" fill-opacity="0.72"/>
<path d="M-4.66989 212.519C-4.79946 214.423 -6.12229 215.55 -8.07096 215.418C-9.98254 215.287 -11.1045 213.975 -10.9749 212.023C-10.8484 210.134 -9.51606 208.998 -7.56953 209.118C-5.6878 209.235 -4.5381 210.583 -4.66989 212.519Z" fill="#FFE19F" fill-opacity="0.72"/>
<path d="M-4.66899 242.269C-4.70504 244.218 -5.92166 245.395 -7.87771 245.369C-9.84661 245.345 -10.9984 244.155 -10.975 242.17C-10.9527 240.206 -9.76373 239.06 -7.76512 239.072C-5.8005 239.084 -4.63383 240.289 -4.66899 242.269Z" fill="#FFE19F" fill-opacity="0.72"/>
<path d="M24.2426 212.505C24.1257 214.409 22.8081 215.545 20.8616 215.422C18.9522 215.302 17.8312 214 17.9503 212.041C18.066 210.146 19.3857 209.004 21.328 209.119C23.2194 209.23 24.3616 210.557 24.2426 212.505Z" fill="#FFE19F" fill-opacity="0.72"/>
<path d="M49.9355 6.64629C47.9857 6.6007 46.8573 5.39906 46.8988 3.41045C46.9402 1.41308 48.0963 0.310145 50.1055 0.349576C52.0723 0.388422 53.1869 1.57326 53.1465 3.58062C53.1061 5.56871 51.9299 6.69253 49.9355 6.64629Z" fill="#FFE19F" fill-opacity="0.72"/>
<path d="M21.0453 185.475C19.0775 185.439 17.9268 184.246 17.9545 182.273C17.9809 180.291 19.1593 179.15 21.1484 179.177C23.1024 179.202 24.2722 180.412 24.2478 182.382C24.2223 184.338 23.0079 185.512 21.0453 185.475Z" fill="#FFE19F" fill-opacity="0.72"/>
<path d="M108.054 119.268C109.78 120.469 111.629 121.475 110.769 123.818C110.181 125.415 108.539 126.258 107.069 125.88C105.979 125.599 104.562 124.27 104.385 123.223C103.939 120.581 106.236 120.022 108.054 119.268Z" fill="#FFE19F" fill-opacity="0.72"/>
<path d="M21.1858 66.5423C19.1861 66.5879 17.9992 65.4649 17.9556 63.4875C17.9111 61.5069 19.0395 60.3116 21.0083 60.2522C22.974 60.1926 24.198 61.3465 24.2437 63.3037C24.2894 65.2769 23.1366 66.4987 21.1858 66.5423Z" fill="#FFE19F" fill-opacity="0.72"/>
<path d="M21.1889 36.5938C19.1871 36.6359 17.9981 35.5117 17.9556 33.538C17.9131 31.5573 19.0468 30.3515 21.004 30.2975C22.975 30.2431 24.1927 31.3923 24.2404 33.3528C24.2893 35.3244 23.1323 36.5533 21.1889 36.5938Z" fill="#FFE19F" fill-opacity="0.72"/>
<path d="M21.189 6.64368C19.1861 6.68364 17.9982 5.56054 17.9567 3.58735C17.9142 1.59005 19.0352 0.398208 21.0009 0.348917C22.9772 0.299626 24.1885 1.44265 24.2384 3.40214C24.2884 5.38147 23.1366 6.6053 21.189 6.64368Z" fill="#FFE19F" fill-opacity="0.72"/>
<path d="M50.2235 245.372C48.2249 245.475 46.9966 244.388 46.8988 242.427C46.8 240.442 47.9008 239.178 49.8176 239.072C51.778 238.964 53.0434 240.085 53.1476 242.021C53.2538 244.002 52.1456 245.272 50.2235 245.372Z" fill="#FFE19F" fill-opacity="0.72"/>
<path d="M49.924 215.424C47.9796 215.377 46.8533 214.169 46.8979 212.177C46.9426 210.183 48.1081 209.076 50.1173 209.121C52.0661 209.165 53.1945 210.373 53.1488 212.368C53.1031 214.352 51.9216 215.472 49.924 215.424Z" fill="#FFE19F" fill-opacity="0.72"/>
<path d="M53.1477 182.25C53.1786 184.245 52.0459 185.441 50.095 185.474C48.0911 185.507 46.933 184.393 46.8979 182.396C46.8628 180.394 47.9828 179.212 49.9474 179.176C51.9491 179.14 53.1169 180.262 53.1477 182.25Z" fill="#FFE19F" fill-opacity="0.72"/>
<path d="M78.8651 215.424C76.9228 215.385 75.7827 214.174 75.822 212.187C75.8613 210.196 77.0365 209.076 79.0341 209.123C80.9944 209.17 82.1165 210.362 82.0761 212.358C82.0367 214.357 80.8764 215.465 78.8651 215.424Z" fill="#FFE19F" fill-opacity="0.72"/>
<path d="M53.1456 63.4778C53.1105 65.47 51.9492 66.5804 49.941 66.5422C47.9806 66.5049 46.8597 65.3159 46.8979 63.3163C46.9351 61.3209 48.0922 60.2137 50.1036 60.2488C52.0672 60.2828 53.1807 61.4643 53.1456 63.4778Z" fill="#FFE19F" fill-opacity="0.72"/>
<path d="M50.112 36.5974C48.1027 36.643 46.9382 35.5338 46.8978 33.5385C46.8585 31.5374 47.9763 30.3415 49.9271 30.2979C51.9257 30.2527 53.103 31.3699 53.1477 33.3549C53.1923 35.3461 52.0618 36.5532 50.112 36.5974Z" fill="#FFE19F" fill-opacity="0.72"/>
<path d="M76.1227 269.554C80.8244 268.914 82.0697 269.504 82.0676 272.166C82.0665 273.716 80.5258 275.135 78.6877 275.279C76.5998 275.441 75.8571 273.886 76.1227 269.554Z" fill="#FFE19F" fill-opacity="0.72"/>
<path d="M79.2073 245.37C77.2352 245.503 75.9485 244.405 75.821 242.48C75.6913 240.504 76.7921 239.195 78.6877 239.071C80.6396 238.943 81.9411 240.057 82.075 241.968C82.2131 243.943 81.1188 245.242 79.2073 245.37Z" fill="#FFE19F" fill-opacity="0.72"/>
<path d="M78.6909 185.479C76.7996 185.362 75.6956 184.051 75.821 182.072C75.9442 180.149 77.2246 179.052 79.204 179.178C81.1187 179.299 82.2099 180.59 82.074 182.574C81.9432 184.48 80.6396 185.6 78.6909 185.479Z" fill="#FFE19F" fill-opacity="0.72"/>
<path d="M76.2737 155.141C75.8008 150.854 76.4638 149.222 78.4954 149.242C80.4526 149.261 82.2345 150.982 82.0719 152.695C81.8434 155.107 80.902 155.532 76.2737 155.141Z" fill="#FFE19F" fill-opacity="0.72"/>
<path d="M79.1828 119.305C83.0366 122.746 83.0377 122.988 79.2593 126.341C77.7144 125.844 75.9974 125.703 75.7784 123.378C75.5543 120.981 76.8208 119.994 79.1828 119.305Z" fill="#FFE19F" fill-opacity="0.72"/>
<path d="M24.0692 269.6C24.1362 270.777 24.336 271.638 24.2 272.443C23.927 274.069 21.9952 275.562 20.6309 275.063C19.4675 274.636 18.0182 274.264 17.9417 272.469C17.8599 270.55 18.7736 269.206 20.7797 269.071C21.8592 268.999 22.9717 269.408 24.0692 269.6Z" fill="#FFE19F" fill-opacity="0.72"/>
<path d="M-8.06694 96.3972C-9.66497 95.4749 -11.2833 94.474 -10.8402 92.2013C-10.5639 90.7838 -8.17 89.3005 -6.89287 89.8859C-5.98761 90.3014 -5.02068 91.3225 -4.76464 92.2596C-4.21314 94.2774 -4.72313 94.7386 -8.06694 96.3972Z" fill="#FFE19F" fill-opacity="0.72"/>
<path d="M-5.19071 155.169C-9.37597 155.49 -11.0399 154.747 -10.956 152.759C-10.889 151.167 -8.78413 149.183 -7.23287 149.246C-5.24905 149.327 -4.62118 151.007 -5.19071 155.169Z" fill="#FFE19F" fill-opacity="0.72"/>
<path d="M76.2758 90.5799C80.8925 90.1729 82.125 90.8221 82.0677 93.438C82.0347 94.9521 80.204 96.5077 78.6463 96.344C76.5446 96.1252 75.8327 94.5187 76.2758 90.5799Z" fill="#FFE19F" fill-opacity="0.72"/>
<path d="M24.0014 90.4567C24.1109 91.7828 24.3096 92.6179 24.2171 93.419C24.0343 94.997 22.1431 96.6842 20.8202 96.2815C19.6248 95.9181 18.1851 95.5525 17.9556 93.8482C17.7059 92.0058 18.6251 90.5682 20.5833 90.2622C21.5342 90.1134 22.5457 90.3579 24.0014 90.4567Z" fill="#FFE19F" fill-opacity="0.72"/>
<path d="M50.113 155.514C48.0708 155.558 46.9073 154.426 46.8978 152.39C46.8903 150.614 48.0527 149.235 49.553 149.242C51.2021 149.25 53.0647 150.789 53.1359 152.201C53.239 154.255 52.1286 155.473 50.113 155.514Z" fill="#FFE19F" fill-opacity="0.72"/>
<path d="M-10.9496 62.8148C-10.8943 61.3571 -9.49178 60.2361 -7.745 60.2531C-5.77085 60.2733 -4.62856 61.4655 -4.6711 63.4631C-4.70716 65.1621 -5.94608 66.5581 -7.38903 66.5263C-9.00086 66.4902 -11.0091 64.397 -10.9496 62.8148Z" fill="#FFE19F" fill-opacity="0.72"/>
<path d="M-4.67004 182.109C-4.55311 184.075 -5.68581 185.378 -7.5994 185.477C-9.34092 185.566 -10.7806 184.518 -10.9304 183.052C-11.0898 181.49 -9.20277 179.354 -7.53143 179.208C-6.05767 179.078 -4.77302 180.381 -4.67004 182.109Z" fill="#FFE19F" fill-opacity="0.72"/>
<path d="M20.9604 149.372C22.5893 149.288 24.2776 150.892 24.2393 152.487C24.1958 154.248 23.196 155.348 21.4874 155.515C19.543 155.705 18.1574 154.622 17.9492 152.75C17.7749 151.18 19.3114 149.457 20.9604 149.372Z" fill="#FFE19F" fill-opacity="0.72"/>
<path d="M50.1587 96.3451C48.5213 96.4237 46.867 94.8363 46.8989 93.2383C46.9349 91.4288 47.8499 90.4172 49.6338 90.2122C51.5867 89.988 52.9425 91.0634 53.1508 92.9663C53.324 94.5537 51.8067 96.2665 50.1587 96.3451Z" fill="#FFE19F" fill-opacity="0.72"/>
<path d="M46.9021 272.036C46.9616 270.055 48.1432 268.965 50.1598 269.028C52.1371 269.089 53.2231 270.288 53.1381 272.314C53.0839 273.618 51.5167 275.107 50.1396 275.165C48.4916 275.234 46.8532 273.651 46.9021 272.036Z" fill="#FFE19F" fill-opacity="0.72"/>
</svg>
