<svg width="177" height="178" viewBox="0 0 177 178" fill="none" xmlns="http://www.w3.org/2000/svg">
<g id="spark, sparkle, 26">
<path id="Vector" d="M112.912 47.504C111.217 48.2489 109.52 48.9859 107.8 49.6789C106.893 50.0567 105.977 50.4257 105.099 50.8637C100.413 53.2057 95.7523 55.6057 91.0094 57.8334C88.0831 59.191 85.1428 60.5181 82.1883 61.8146L77.7511 63.7455L73.2928 65.6262C72.3807 65.9832 71.4417 66.2658 70.4847 66.4714C70.0966 66.5733 69.69 66.5807 69.2984 66.4928C68.9068 66.4049 68.5414 66.2244 68.2325 65.966C67.3611 65.2694 67.4571 64.09 68.5566 63.3471C69.2835 62.8816 70.0653 62.5097 70.8838 62.2401C72.7366 61.5897 74.5546 60.8623 76.3376 60.0579C78.1235 59.2599 79.8768 58.3883 81.5973 57.4431C82.5475 56.9223 83.5102 56.3219 84.5252 56.0244C87.7667 55.0703 90.7359 53.4378 93.8728 52.2261C96.2038 51.3239 98.4698 50.2428 100.776 49.2691L106.942 46.6584C108.992 45.7765 111.066 44.9453 113.12 44.0692C113.93 43.7508 114.759 43.4865 115.604 43.278C116.407 43.1009 117.219 42.9689 118.037 42.8825C118.76 42.8044 118.926 43.2585 118.309 43.8197C117.421 44.6229 116.479 45.3625 115.49 46.0333C115.084 46.3092 114.66 46.5626 114.225 46.798C113.783 47.015 113.338 47.2328 112.896 47.4493L112.912 47.504Z" fill="#FFCC49"/>
<path id="Vector_2" d="M121.117 100.889L118.755 100.743L116.394 100.539C115.559 100.469 114.72 100.398 113.883 100.4C112.766 100.4 111.649 100.413 110.533 100.431L107.184 100.466L100.49 100.55L92.2481 100.632L84.0054 100.761C83.1702 100.751 82.3366 100.68 81.5113 100.549C81.1708 100.51 80.8441 100.391 80.5572 100.201C80.2704 100.012 80.0314 99.7575 79.8592 99.4585C79.3665 98.6436 79.7935 97.7404 80.905 97.4745C81.6311 97.3174 82.3744 97.2554 83.1164 97.2898C86.4884 97.3787 89.8624 97.2526 93.2184 96.9123C94.1434 96.761 95.0826 96.7165 96.0179 96.7797C98.9073 97.1427 101.812 96.9021 104.704 97.0901C106.851 97.2315 109.011 97.2182 111.162 97.3493C114.997 97.5979 118.826 97.8841 122.645 98.3113C124.096 98.4579 125.514 98.8455 126.84 99.4584C127.415 99.7225 127.347 100.208 126.655 100.366C125.663 100.585 124.657 100.738 123.644 100.824C122.806 100.879 121.966 100.885 121.127 100.84L121.117 100.889Z" fill="#FFCC49"/>
<path id="Vector_3" d="M99.6115 146.844C98.518 146.016 97.4277 145.182 96.3405 144.343C95.7823 143.873 95.1969 143.437 94.5875 143.036C92.9422 142.006 91.2738 141.012 89.6063 140.019C87.9402 139.023 86.282 138.018 84.6411 136.987C82.6175 135.721 80.6079 134.435 78.5953 133.153L72.5789 129.274C71.9787 128.853 71.4316 128.359 70.9498 127.804C70.4674 127.288 70.4196 126.522 70.6136 125.679C70.896 124.451 71.9007 123.577 72.8844 123.837C73.5064 124.023 74.0835 124.337 74.5793 124.759C76.8841 126.587 79.3942 128.136 82.0575 129.372C82.795 129.718 83.5989 130.023 84.1636 130.598C85.972 132.424 88.2476 133.557 90.2099 135.148C91.6708 136.324 93.2373 137.359 94.7201 138.508C96.0424 139.531 97.3564 140.565 98.6622 141.609L102.518 144.823C103.529 145.656 104.328 146.72 104.848 147.926C104.908 148.045 104.932 148.179 104.916 148.311C104.899 148.443 104.845 148.567 104.758 148.668C104.671 148.768 104.557 148.84 104.429 148.874C104.302 148.909 104.167 148.904 104.043 148.86C103.182 148.608 102.337 148.304 101.512 147.95C100.865 147.612 100.243 147.227 99.6523 146.797L99.6115 146.844Z" fill="#FFCC49"/>
<path id="Vector_4" d="M60.4624 158.746C60.2905 158.419 60.1068 158.099 59.9544 157.761L59.5004 156.744C59.349 156.38 59.1677 156.03 58.9583 155.698C58.3682 154.83 57.7435 153.982 57.1697 153.106C56.5855 152.235 56.0063 151.362 55.4604 150.469C54.7867 149.371 54.1323 148.261 53.515 147.131L51.6624 143.74C51.4934 143.371 51.3941 142.974 51.3697 142.568C51.3226 142.173 51.6574 141.711 52.175 141.251C52.9291 140.579 53.9514 140.252 54.421 140.586C54.701 140.801 54.9061 141.1 55.0067 141.44C55.5301 142.936 56.3423 144.313 57.3964 145.491C57.6881 145.823 58.0509 146.135 58.128 146.574C58.3876 147.97 59.2718 149.023 59.7617 150.292C60.1195 151.238 60.662 152.086 61.0464 153.02C61.7394 154.681 62.469 156.32 63.1097 158.01C63.3853 158.705 63.44 159.469 63.2661 160.196C63.2432 160.285 63.2013 160.368 63.1433 160.439C63.0854 160.509 63.0128 160.566 62.9306 160.606C62.8485 160.645 62.7588 160.666 62.6678 160.667C62.5767 160.668 62.4866 160.649 62.4038 160.61C62.1888 160.473 61.9777 160.326 61.7735 160.173C61.5699 160.027 61.3791 159.864 61.2031 159.685C60.9428 159.387 60.71 159.066 60.5078 158.725L60.4624 158.746Z" fill="#FFCC49"/>
<path id="Vector_5" d="M62.1108 23.6219C61.7111 24.4102 61.304 25.193 60.8894 25.9701C60.6598 26.3761 60.4546 26.7957 60.2751 27.2266C59.8468 28.393 59.405 29.5568 58.9408 30.7135C58.4719 31.8679 57.9596 33.0033 57.404 34.1197C56.7061 35.4855 55.9671 36.8311 55.1725 38.1431C54.3785 39.4553 53.5493 40.745 52.6851 42.0121C52.3995 42.392 52.0523 42.7204 51.6583 42.9836C51.2906 43.2581 50.7249 43.1993 50.0982 42.9595C49.1857 42.6093 48.5088 41.8063 48.6518 41.181C48.7578 40.7946 48.9611 40.4424 49.2419 40.1587C50.4569 38.8295 51.3975 37.2696 52.0089 35.5699C52.1843 35.1002 52.3065 34.5797 52.6555 34.2299C53.7794 33.1111 54.2726 31.6165 55.1089 30.3234C55.4172 29.8401 55.6993 29.3404 55.954 28.8263C56.2197 28.3179 56.4697 27.8012 56.7415 27.2953C57.7089 25.4902 58.6647 23.668 59.5373 21.7999C59.9291 21.026 60.557 20.3996 61.3285 20.013C61.6827 19.7988 62.0831 19.9584 62.2933 20.4316L62.4506 20.9169C62.4788 20.9911 62.4923 21.0701 62.4903 21.1495L62.497 21.3722C62.5035 21.666 62.4924 21.9599 62.4638 22.2524C62.4386 22.4871 62.3887 22.7183 62.315 22.9423C62.2318 23.1615 62.1389 23.3776 62.0596 23.5975L62.1108 23.6219Z" fill="#FFCC49"/>
</g>
</svg>
