<svg width="59" height="80" viewBox="0 0 59 80" fill="none" xmlns="http://www.w3.org/2000/svg">
<g id="Group 22">
<path id="Vector" d="M30.8467 2.46945C29.8409 3.21515 29.7977 3.96232 30.305 5.18887C32.3194 10.0633 33.9604 15.1243 34.4153 20.372C35.0333 27.4884 33.3948 34.1333 28.5676 39.6665C25.5326 43.1456 22.23 46.3549 18.1392 48.6264C15.7814 49.9371 13.3307 50.7873 10.5817 50.6121C9.30193 50.5273 8.38118 49.8999 7.91954 48.8166C7.07114 46.8277 6.2043 44.8125 5.67928 42.722C4.45499 37.8602 3.5049 32.9237 4.45977 27.8865C6.24878 18.4935 10.7667 10.7601 18.6089 5.11061C19.0196 4.81688 19.3811 4.45304 19.7619 4.12022C23.4526 3.57383 27.152 3.02128 30.8467 2.46945ZM25.109 6.86056C16.0892 11.9113 10.0498 18.6859 8.74632 27.6384C7.82229 33.9829 10.0694 39.7667 12.1804 45.5466C12.4454 44.7953 12.4243 44.0384 12.6526 43.3652C14.3947 38.1912 15.3685 32.8607 16.0267 27.4563C16.1281 26.6133 16.3883 25.7321 16.8009 24.9975C17.6001 23.5807 19.233 23.5692 20.0216 24.9958C20.424 25.7151 20.6859 26.6588 20.6181 27.4677C20.3122 31.1831 19.8735 34.8844 19.4702 38.595C19.4203 39.0382 19.3014 39.4723 19.1724 40.1306C27.749 32.2751 30.672 19.5949 25.109 6.86056Z" fill="#FFCC49"/>
<path id="Vector_2" d="M47.0456 74.3296C37.3218 75.3462 30.1077 72.9283 23.5659 68.2121C20.5421 66.0349 18.0041 63.3543 15.9173 60.2625C14.2295 57.7696 14.6494 56.6951 17.0464 54.967C18.4826 53.9294 19.9997 53.6932 21.5532 53.2142C23.2363 52.6966 24.9017 51.9637 26.4159 51.0598C31.7279 47.899 43.1247 50.2151 47.1025 55.7355C48.7797 58.0605 50.5588 60.322 52.4473 62.4751C53.6066 63.793 55.0001 64.9308 56.4033 66.0041C57.6536 66.9599 57.9229 68.5367 56.5597 69.3503C53.0523 71.4476 49.8506 74.2641 47.0456 74.3296ZM49.3142 68.7622C47.2117 66.3748 45.1475 64.0495 43.1089 61.7009C41.912 60.3256 40.8342 58.8406 39.5742 57.528C38.1997 56.0969 36.5477 54.9445 34.5047 54.8333C32.2573 54.7139 29.9919 54.8296 27.7395 54.8707C27.4743 54.8764 27.2177 55.0357 26.6379 55.2337C27.7941 55.884 28.6763 56.4155 29.5832 56.8852C31.3921 57.8254 33.2666 58.654 35.0133 59.6955C35.5756 60.0278 36.1652 60.9322 36.1108 61.5068C36.0544 62.101 35.3129 62.8024 34.698 63.1218C34.003 63.487 33.1161 63.6049 32.3106 63.6188C29.3493 63.6737 26.6837 62.6969 24.2552 61.0409C23.9426 60.8261 23.618 60.6277 23.3014 60.4184C27.2313 67.6259 41.9142 72.1913 49.3142 68.7622Z" fill="#FFCC49"/>
</g>
</svg>
