<svg width="45" height="50" viewBox="0 0 45 50" fill="none" xmlns="http://www.w3.org/2000/svg">
<g id="Group 22">
<path id="Vector" d="M36.7059 9.06256C35.9949 9.02939 35.7072 9.3429 35.4897 10.0654C34.6246 12.9362 33.5279 15.7548 31.8417 18.2294C29.5556 21.5854 26.4453 23.9227 22.3304 24.6242C19.7432 25.0652 17.1351 25.2913 14.517 24.8211C13.0075 24.5507 11.6226 24.0441 10.475 22.9787C9.94192 22.4813 9.76198 21.874 9.9481 21.231C10.2895 20.0502 10.6322 18.8511 11.1524 17.7417C12.361 15.1606 13.7172 12.6451 15.9485 10.7701C20.113 7.27668 24.8827 5.49515 30.3671 5.82636C30.6536 5.84466 30.9436 5.8144 31.2309 5.8047C33.0526 6.89082 34.8804 7.97739 36.7059 9.06256ZM32.6005 8.93369C26.8128 7.9155 21.7177 8.72779 17.9254 12.2018C15.2377 14.6636 14.1481 18.0184 13 21.3227C13.3868 21.0871 13.6496 20.7462 13.9921 20.5318C16.6193 18.8795 18.9644 16.8821 21.197 14.7388C21.5447 14.404 21.9761 14.1094 22.4219 13.9342C23.2831 13.5976 24.0064 14.1795 23.8408 15.0913C23.7595 15.5527 23.5356 16.0624 23.2149 16.3943C21.7446 17.9205 20.2208 19.3928 18.7093 20.8819C18.528 21.0591 18.3196 21.2075 18.0261 21.4511C24.627 21.0748 30.4726 16.5415 32.6005 8.93369Z" fill="#FFCC49"/>
<path id="Vector_2" d="M18.0081 46.5324C13.3605 43.4845 11.0527 39.8263 9.86722 35.3977C9.31825 33.3519 9.1642 31.259 9.35666 29.1473C9.50954 27.4428 10.0807 27.1205 11.7576 27.2212C12.763 27.2805 13.5161 27.7219 14.3723 28.0694C15.2996 28.4465 16.2965 28.7224 17.2883 28.8687C20.7639 29.3863 24.9502 34.5033 24.7174 38.3643C24.6203 39.9911 24.5907 41.6266 24.6484 43.2536C24.6852 44.2508 24.8898 45.2528 25.1219 46.2299C25.3289 47.1003 24.8807 47.8915 23.9879 47.7597C21.6894 47.4225 19.2669 47.5118 18.0081 46.5324ZM21.0085 44.8961C20.9409 43.0889 20.8678 41.3228 20.8142 39.5557C20.7816 38.5198 20.8408 37.4784 20.7577 36.4474C20.6669 35.3231 20.3536 34.2217 19.4939 33.4383C18.5471 32.5778 17.5079 31.8143 16.5012 31.0227C16.3824 30.9299 16.2121 30.9079 15.8856 30.7866C16.161 31.4887 16.3584 32.0398 16.5889 32.5727C17.0476 33.637 17.5752 34.6758 17.97 35.7623C18.0982 36.1108 18.0327 36.7211 17.8022 36.9545C17.5638 37.1959 16.9851 37.2383 16.5995 37.1579C16.1621 37.0688 15.7292 36.802 15.3694 36.5185C14.0456 35.4782 13.2229 34.0898 12.7487 32.4874C12.6883 32.2805 12.6167 32.0764 12.5525 31.8704C11.6921 36.4572 16.517 43.746 21.0085 44.8961Z" fill="#FFCC49"/>
</g>
</svg>
