<svg width="48" height="32" viewBox="0 0 48 32" fill="none" xmlns="http://www.w3.org/2000/svg">
<path fill-rule="evenodd" clip-rule="evenodd" d="M24.333 22.876C22.7442 24.247 20.6834 25.0747 18.4314 25.0747C13.4065 25.0747 9.33301 20.9539 9.33301 15.8707C9.33301 10.7875 13.4065 6.66675 18.4314 6.66675C20.6834 6.66675 22.7442 7.49442 24.333 8.86545C25.9218 7.49442 27.9827 6.66675 30.2346 6.66675C35.2595 6.66675 39.333 10.7875 39.333 15.8707C39.333 20.9539 35.2595 25.0747 30.2346 25.0747C27.9827 25.0747 25.9218 24.247 24.333 22.876Z" fill="#ED0006"/>
<path fill-rule="evenodd" clip-rule="evenodd" d="M24.333 22.876C26.2893 21.1878 27.5297 18.6758 27.5297 15.8707C27.5297 13.0656 26.2893 10.5536 24.333 8.86545C25.9218 7.49442 27.9827 6.66675 30.2346 6.66675C35.2595 6.66675 39.333 10.7875 39.333 15.8707C39.333 20.9539 35.2595 25.0747 30.2346 25.0747C27.9827 25.0747 25.9218 24.247 24.333 22.876Z" fill="#F9A000"/>
<path fill-rule="evenodd" clip-rule="evenodd" d="M24.3329 8.86548C26.2892 10.5537 27.5296 13.0656 27.5296 15.8707C27.5296 18.6758 26.2892 21.1878 24.3329 22.876C22.3767 21.1878 21.1362 18.6758 21.1362 15.8707C21.1362 13.0656 22.3767 10.5537 24.3329 8.86548Z" fill="#FF5E00"/>
</svg>
