<svg width="47" height="32" viewBox="0 0 47 32" fill="none" xmlns="http://www.w3.org/2000/svg">
<path fill-rule="evenodd" clip-rule="evenodd" d="M26.8808 15.3174H28.4087C28.8932 15.2999 29.1878 15.2626 29.2939 15.2042C29.4387 15.1244 29.5359 14.9647 29.5843 14.7251C29.6153 14.5657 29.6307 14.3286 29.6307 14.0137C29.6307 13.6279 29.6 13.3419 29.5382 13.1551C29.4501 12.8935 29.239 12.7342 28.9046 12.6763C28.8385 12.6675 28.6802 12.6629 28.4294 12.6629H26.8808V15.3174ZM24.4299 19.7886V10.6667H28.996C29.6223 10.6667 30.1003 10.718 30.4286 10.8204C31.1796 11.0561 31.6835 11.5387 31.9416 12.2681C32.0748 12.6509 32.1414 13.2272 32.1414 13.9968C32.1414 14.922 32.0675 15.587 31.9214 15.9918C31.6285 16.7924 31.0256 17.2535 30.1153 17.373C30.0082 17.391 29.5527 17.407 28.7488 17.4198L28.3419 17.4335H26.8807V19.7886H24.4299ZM12.1235 13.5766H14.4035C14.4182 13.375 14.4256 13.2243 14.4256 13.1235C14.4256 11.8944 13.9295 11.1464 12.9374 10.8793C12.5308 10.7701 11.8488 10.715 10.8919 10.715C10.284 10.715 9.73143 10.7372 9.23329 10.7807C8.63461 10.829 8.14277 10.9904 7.75842 11.2654C7.49604 11.4446 7.30591 11.7066 7.18792 12.0516C7.07004 12.3965 7.01105 12.8551 7.01105 13.4271C7.01105 14.178 7.1202 14.7394 7.33839 15.1105C7.58663 15.5472 8.08411 15.8348 8.8306 15.9747C9.11408 16.0233 9.62029 16.0734 10.349 16.1255C11.2565 16.1867 11.7649 16.235 11.8741 16.2696C12.1663 16.3572 12.3127 16.6016 12.3127 17.0032C12.3127 17.1825 12.2954 17.329 12.2605 17.4422C12.1947 17.6261 12.0572 17.759 11.8476 17.8416C11.7298 17.8856 11.4569 17.9075 11.0291 17.9075H10.1909C9.96774 17.9027 9.77794 17.8616 9.62073 17.7834C9.39392 17.6699 9.28024 17.4152 9.28024 17.0191L9.28002 16.8294H7C7 17.5717 7.05424 18.1019 7.16384 18.4202C7.3606 18.9922 7.76715 19.372 8.38383 19.5594C8.88628 19.7125 9.77617 19.7886 11.0531 19.7886C11.818 19.7886 12.3867 19.7535 12.7585 19.6834C13.6458 19.5175 14.2161 19.1225 14.47 18.4972C14.6101 18.1563 14.68 17.6185 14.68 16.8841C14.68 16.5655 14.6648 16.2788 14.6341 16.0254C14.5816 15.6017 14.4171 15.2587 14.1412 14.9962C13.7907 14.6598 13.2257 14.4521 12.4464 14.3735C12.2009 14.3472 11.5855 14.3011 10.6 14.2356L10.1402 14.203C9.93835 14.19 9.7765 14.1463 9.65398 14.0719C9.48297 13.9671 9.39768 13.7484 9.39768 13.4163C9.39768 13.0495 9.49401 12.8112 9.68646 12.7016C9.87903 12.5924 10.2736 12.5379 10.8689 12.5379C11.4818 12.5379 11.8563 12.6327 11.992 12.8222C12.0795 12.9502 12.1235 13.2017 12.1235 13.5766ZM7.00865 21.5977L7.35046 21.5631C7.37101 21.6785 7.41277 21.7632 7.47563 21.8174C7.5386 21.8715 7.62345 21.8986 7.73028 21.8986C7.84341 21.8986 7.92859 21.8745 7.98603 21.8265C8.04337 21.7784 8.07199 21.7222 8.07199 21.6577C8.07199 21.6165 8.05994 21.5814 8.03597 21.5523C8.01189 21.5233 7.96991 21.4982 7.90992 21.4766C7.86882 21.4625 7.77536 21.4373 7.62942 21.401C7.44149 21.3545 7.30981 21.2972 7.23402 21.2291C7.12752 21.1335 7.07427 21.0169 7.07427 20.8792C7.07427 20.7908 7.09935 20.7079 7.14961 20.6309C7.19977 20.5538 7.27224 20.495 7.3667 20.4547C7.46127 20.4144 7.57539 20.3942 7.70907 20.3942C7.92737 20.3942 8.09165 20.4423 8.20202 20.5384C8.31238 20.6345 8.37027 20.7628 8.3758 20.9233L8.02371 20.9371C8.00868 20.8475 7.97642 20.7831 7.92693 20.7437C7.87755 20.7044 7.80342 20.6847 7.70454 20.6847C7.60246 20.6847 7.5227 20.7057 7.46492 20.7477C7.42769 20.7746 7.40912 20.8107 7.40912 20.8559C7.40912 20.8971 7.42658 20.9323 7.46138 20.9618C7.50557 20.999 7.61307 21.0378 7.78386 21.078C7.95455 21.1183 8.08082 21.16 8.16269 21.2034C8.24444 21.2466 8.30852 21.3058 8.35481 21.3809C8.40099 21.4561 8.42419 21.5489 8.42419 21.6593C8.42419 21.7596 8.39646 21.8533 8.341 21.9407C8.28554 22.0281 8.20721 22.0931 8.1059 22.1356C8.00459 22.1781 7.87832 22.1994 7.72708 22.1994C7.50701 22.1994 7.33798 22.1482 7.21999 22.0457C7.10211 21.9433 7.03163 21.794 7.00865 21.5977ZM8.78921 20.906H9.12406V22.1683H8.78921V20.906ZM8.7892 20.4253H9.12406V20.7332H8.7892V20.4253ZM10.3521 22.1682H10.6869V21.3822C10.6869 21.2846 10.6808 21.2096 10.6685 21.1572C10.6562 21.1048 10.6345 21.0579 10.6032 21.0167C10.5719 20.9754 10.5259 20.9414 10.465 20.9149C10.4041 20.8883 10.3368 20.8749 10.2633 20.8749C10.0964 20.8749 9.95791 20.9471 9.84798 21.0915V20.906H9.53732V22.1682H9.87218V21.5953C9.87218 21.4539 9.88057 21.3571 9.89759 21.3047C9.91449 21.2523 9.94576 21.2102 9.99149 21.1785C10.0372 21.1467 10.0888 21.1308 10.1464 21.1308C10.1912 21.1308 10.2297 21.1419 10.2616 21.1641C10.2935 21.1863 10.3165 21.2176 10.3308 21.2577C10.3449 21.2978 10.3521 21.3861 10.3521 21.5226V22.1682ZM11.3642 21.5099C11.3642 21.6443 11.3898 21.7426 11.4413 21.8049C11.4926 21.8675 11.5561 21.8986 11.6315 21.8986C11.7123 21.8986 11.7805 21.8666 11.8363 21.8026C11.892 21.7387 11.92 21.6438 11.92 21.5182C11.92 21.3872 11.8932 21.2898 11.8399 21.2262C11.7864 21.1626 11.719 21.1308 11.6374 21.1308C11.558 21.1308 11.4926 21.1621 11.4413 21.2244C11.3898 21.2869 11.3642 21.382 11.3642 21.5099ZM11.0638 22.2512L11.4435 22.2927C11.45 22.3398 11.4646 22.3721 11.4876 22.3898C11.5194 22.415 11.5695 22.4276 11.6378 22.4276C11.7251 22.4276 11.7907 22.4146 11.8344 22.3885C11.8637 22.371 11.886 22.3429 11.9011 22.304C11.9114 22.2761 11.9166 22.2251 11.9166 22.1505L11.9176 21.9663C11.8188 22.101 11.6936 22.1682 11.5415 22.1682C11.372 22.1682 11.2378 22.0965 11.1388 21.9528C11.0612 21.8392 11.0224 21.6978 11.0224 21.5287C11.0224 21.3167 11.0732 21.1548 11.175 21.0428C11.2767 20.9309 11.4033 20.8749 11.5546 20.8749C11.7106 20.8749 11.8393 20.9436 11.9407 21.0809V20.906H12.2515V22.0406C12.2515 22.1899 12.2392 22.3015 12.2146 22.3752C12.19 22.4491 12.1556 22.507 12.1112 22.549C12.0667 22.5911 12.0075 22.6241 11.9334 22.6479C11.8593 22.6717 11.7656 22.6836 11.6523 22.6836C11.4384 22.6836 11.2866 22.6466 11.197 22.5728C11.1074 22.499 11.0626 22.4054 11.0626 22.292C11.0626 22.2808 11.0631 22.2673 11.0638 22.2512ZM12.9873 20.4253H12.6524V22.1683H12.9873V20.4253ZM14.1532 21.4317C14.1509 21.3334 14.1258 21.2588 14.078 21.2076C14.0302 21.1564 13.9721 21.1308 13.9036 21.1308C13.8304 21.1308 13.7698 21.1579 13.7221 21.2118C13.6743 21.2657 13.6508 21.339 13.6516 21.4317H14.1532ZM14.136 21.7706L14.4674 21.826C14.4245 21.9476 14.3568 22.0403 14.2643 22.104C14.1719 22.1677 14.0561 22.1995 13.9172 22.1995C13.6973 22.1995 13.5345 22.1274 13.429 21.9834C13.3456 21.8681 13.304 21.7226 13.304 21.5466C13.304 21.3368 13.3586 21.1723 13.4682 21.0533C13.5777 20.9343 13.7161 20.8749 13.8835 20.8749C14.0717 20.8749 14.22 20.9373 14.3287 21.062C14.4375 21.187 14.4894 21.3781 14.4846 21.6357H13.6458C13.6481 21.7351 13.6753 21.8123 13.7272 21.8677C13.7791 21.9228 13.8439 21.9505 13.9214 21.9505C13.9741 21.9505 14.0185 21.9363 14.0544 21.9079C14.0903 21.8795 14.1176 21.8337 14.136 21.7706ZM15.5802 20.4253V22.1683H16.9025V21.8743H15.9324V21.4006H16.8025V21.1066H15.9324V20.7193H16.8681V20.4253H15.5802ZM18.0995 22.1682V21.9792C18.0534 22.0466 17.993 22.1002 17.918 22.1399C17.843 22.1795 17.7639 22.1994 17.6806 22.1994C17.5956 22.1994 17.5196 22.1807 17.4521 22.1434C17.3847 22.1061 17.3359 22.0537 17.3057 21.9863C17.2756 21.9188 17.2605 21.8255 17.2605 21.7064V20.906H17.5954V21.4865C17.5954 21.6643 17.6015 21.7732 17.6138 21.8131C17.6261 21.8534 17.6484 21.885 17.6809 21.9085C17.7134 21.9318 17.7545 21.9435 17.8044 21.9435C17.8614 21.9435 17.9126 21.928 17.9576 21.8965C18.0028 21.8652 18.0337 21.8264 18.0503 21.7799C18.0669 21.7335 18.0753 21.6199 18.0753 21.4391V20.906H18.4102V22.1682H18.0995ZM18.8112 22.1682H19.146V21.7779C19.146 21.563 19.1554 21.4217 19.1741 21.3543C19.1928 21.2869 19.2184 21.2403 19.251 21.2144C19.2836 21.1888 19.3232 21.1758 19.3702 21.1758C19.4186 21.1758 19.4712 21.1941 19.5275 21.2305L19.6294 20.9382C19.5589 20.896 19.4855 20.8749 19.4095 20.8749C19.3556 20.8749 19.3076 20.8889 19.2651 20.9166C19.2227 20.9445 19.175 21.0007 19.1219 21.0855V20.906H18.8112V22.1682ZM20.1062 21.5371C20.1062 21.663 20.136 21.7591 20.1955 21.826C20.255 21.8928 20.3284 21.9262 20.4158 21.9262C20.5031 21.9262 20.5763 21.8928 20.6354 21.826C20.6945 21.7591 20.7241 21.6621 20.7241 21.5348C20.7241 21.4108 20.6945 21.3152 20.6354 21.2484C20.5763 21.1816 20.5031 21.1482 20.4158 21.1482C20.3284 21.1482 20.255 21.1816 20.1955 21.2484C20.136 21.3152 20.1062 21.4115 20.1062 21.5371ZM19.7644 21.5192C19.7644 21.4079 19.7917 21.3001 19.8464 21.1958C19.901 21.0917 19.9783 21.0121 20.0785 20.9572C20.1786 20.9024 20.2905 20.8749 20.414 20.8749C20.6048 20.8749 20.7612 20.9371 20.8831 21.0616C21.005 21.1861 21.066 21.3435 21.066 21.5336C21.066 21.7253 21.0043 21.8843 20.8812 22.0103C20.7582 22.1364 20.6032 22.1995 20.4164 22.1995C20.3008 22.1995 20.1905 22.1731 20.0857 22.1208C19.9807 22.0682 19.901 21.9913 19.8464 21.8898C19.7917 21.7883 19.7644 21.6649 19.7644 21.5192ZM22.5084 21.2173V20.7193H22.6777C22.8041 20.7193 22.888 20.7233 22.9299 20.7313C22.9867 20.7417 23.0336 20.7676 23.0708 20.8091C23.1079 20.8506 23.1264 20.9033 23.1264 20.9671C23.1264 21.019 23.1132 21.0645 23.0868 21.1036C23.0604 21.1427 23.0238 21.1715 22.9773 21.1899C22.9307 21.2082 22.8383 21.2173 22.7002 21.2173H22.5084ZM22.1564 20.4253V22.1683H22.5085V21.5112H22.7374C22.8961 21.5112 23.0174 21.5029 23.1013 21.4862C23.1629 21.4727 23.2236 21.4453 23.2832 21.4036C23.3429 21.3619 23.3922 21.3046 23.4308 21.2318C23.4696 21.1587 23.4889 21.0688 23.4889 20.9618C23.4889 20.823 23.4553 20.7098 23.3881 20.6223C23.3208 20.5346 23.2374 20.4776 23.1377 20.4515C23.0729 20.4341 22.9336 20.4253 22.72 20.4253H22.1564ZM24.541 21.5631C24.4982 21.5775 24.4307 21.5946 24.3384 21.6145C24.246 21.6343 24.1856 21.6539 24.1573 21.6729C24.1138 21.704 24.0922 21.7434 24.0922 21.7911C24.0922 21.8381 24.1095 21.8786 24.1442 21.913C24.179 21.9471 24.2231 21.9643 24.2769 21.9643C24.3369 21.9643 24.3941 21.9444 24.4486 21.9047C24.4888 21.8743 24.5154 21.8374 24.5279 21.7935C24.5366 21.7649 24.541 21.7103 24.541 21.6299V21.5631ZM24.0923 21.2899L23.7919 21.2346C23.8259 21.1123 23.8845 21.0219 23.9675 20.9631C24.0507 20.9043 24.1742 20.8749 24.3381 20.8749C24.4869 20.8749 24.5978 20.8926 24.6706 20.9278C24.7434 20.9633 24.7948 21.0081 24.8244 21.0625C24.8541 21.1168 24.869 21.2168 24.869 21.3621L24.8656 21.7527C24.8656 21.8638 24.8709 21.9459 24.8815 21.9986C24.8922 22.0514 24.9122 22.1079 24.9415 22.1682H24.6101C24.6012 22.1464 24.5906 22.114 24.5779 22.0711C24.5724 22.0515 24.5684 22.0387 24.5662 22.0324C24.5092 22.088 24.4483 22.1298 24.3835 22.1577C24.3186 22.1855 24.2496 22.1995 24.176 22.1995C24.0463 22.1995 23.944 22.164 23.8693 22.0934C23.7946 22.0227 23.7573 21.9333 23.7573 21.8253C23.7573 21.7539 23.7743 21.6902 23.8082 21.6342C23.8424 21.5782 23.8901 21.5352 23.9514 21.5055C24.0128 21.4758 24.1013 21.4496 24.2169 21.4273C24.3728 21.398 24.4808 21.3707 24.541 21.3452V21.3115C24.541 21.2464 24.5251 21.2 24.4933 21.1723C24.4614 21.1446 24.4014 21.1308 24.313 21.1308C24.2533 21.1308 24.2068 21.1426 24.1734 21.1661C24.1399 21.1896 24.1128 21.2309 24.0923 21.2899ZM25.465 20.906H25.1094L25.5899 22.1718C25.57 22.243 25.5414 22.3018 25.504 22.3481C25.4665 22.3941 25.409 22.4172 25.3308 22.4172C25.2888 22.4172 25.2412 22.4121 25.1888 22.4016L25.2199 22.6633C25.2817 22.6768 25.3449 22.6836 25.4091 22.6836C25.4725 22.6836 25.5294 22.6768 25.5797 22.6632C25.6301 22.6498 25.6723 22.6308 25.7069 22.6066C25.7414 22.5824 25.772 22.5508 25.7985 22.512C25.825 22.473 25.853 22.4167 25.8823 22.3427L26.4076 20.906H26.0623L25.7671 21.8021L25.465 20.906ZM26.6686 20.906H26.9758V21.0784C27.0862 20.9427 27.2176 20.8749 27.37 20.8749C27.4509 20.8749 27.5212 20.8915 27.5807 20.9248C27.6403 20.9582 27.6891 21.0087 27.7271 21.0761C27.7825 21.0087 27.8425 20.9582 27.9066 20.9248C27.9709 20.8915 28.0393 20.8749 28.1122 20.8749C28.205 20.8749 28.2834 20.8937 28.3476 20.9316C28.4118 20.9691 28.4599 21.0245 28.4916 21.0977C28.5145 21.1516 28.5259 21.2389 28.5259 21.3596V22.1682H28.1911V21.4453C28.1911 21.3198 28.1796 21.2389 28.1567 21.2024C28.1258 21.1546 28.0784 21.1308 28.0144 21.1308C27.9677 21.1308 27.9237 21.145 27.8826 21.1737C27.8415 21.2024 27.8119 21.2442 27.7938 21.2994C27.7756 21.3545 27.7664 21.4417 27.7664 21.5608V22.1682H27.4316V21.4752C27.4316 21.3519 27.4257 21.2726 27.4138 21.2368C27.402 21.201 27.3836 21.1745 27.3586 21.157C27.3337 21.1396 27.3 21.1308 27.2572 21.1308C27.2059 21.1308 27.1596 21.1447 27.1185 21.1725C27.0774 21.2003 27.048 21.2404 27.0301 21.2928C27.0123 21.3452 27.0035 21.4321 27.0035 21.5536V22.1682H26.6686V20.906ZM29.6041 21.2076C29.6521 21.2588 29.677 21.3334 29.6795 21.4317H29.1779C29.1771 21.339 29.2006 21.2657 29.2484 21.2118C29.296 21.1579 29.3567 21.1308 29.4298 21.1308C29.4983 21.1308 29.5565 21.1564 29.6041 21.2076ZM29.9937 21.826L29.6622 21.7706C29.6439 21.8337 29.6167 21.8795 29.5806 21.9079C29.5447 21.9363 29.5004 21.9505 29.4477 21.9505C29.37 21.9505 29.3053 21.9228 29.2535 21.8677C29.2016 21.8123 29.1744 21.7351 29.1719 21.6357H30.0109C30.0157 21.3781 29.9636 21.187 29.8549 21.062C29.7462 20.9373 29.5979 20.8749 29.4098 20.8749C29.2423 20.8749 29.104 20.9343 28.9944 21.0533C28.885 21.1723 28.8301 21.3368 28.8301 21.5466C28.8301 21.7226 28.8718 21.8681 28.9552 21.9834C29.0608 22.1274 29.2235 22.1995 29.4434 22.1995C29.5824 22.1995 29.698 22.1677 29.7906 22.104C29.8831 22.0403 29.9507 21.9476 29.9937 21.826ZM31.5011 22.1682H31.1663V21.5226C31.1663 21.3861 31.1591 21.2978 31.1451 21.2577C31.1308 21.2176 31.1077 21.1863 31.0758 21.1641C31.0439 21.1419 31.0054 21.1308 30.9606 21.1308C30.9031 21.1308 30.8514 21.1467 30.8058 21.1785C30.76 21.2102 30.7288 21.2523 30.7118 21.3047C30.6949 21.3571 30.6864 21.4539 30.6864 21.5953V22.1682H30.3515V20.906H30.6622V21.0915C30.7722 20.9471 30.9106 20.8749 31.0774 20.8749C31.151 20.8749 31.2184 20.8883 31.2792 20.9149C31.34 20.9414 31.3862 20.9754 31.4175 21.0167C31.4488 21.0579 31.4704 21.1048 31.4827 21.1572C31.495 21.2096 31.5011 21.2846 31.5011 21.3822V22.1682ZM32.4892 21.1723V20.906H32.2613V20.4565L31.9264 20.6536V20.906H31.7745V21.1723H31.9264V21.724C31.9264 21.8423 31.9298 21.921 31.937 21.96C31.9456 22.0148 31.9611 22.0582 31.9835 22.0903C32.0061 22.1225 32.0413 22.1489 32.0892 22.169C32.1373 22.1893 32.1911 22.1995 32.2511 22.1995C32.3486 22.1995 32.436 22.1827 32.5133 22.1494L32.484 21.8907C32.4263 21.9121 32.3826 21.9228 32.3521 21.9228C32.3303 21.9228 32.312 21.9171 32.2967 21.9061C32.2816 21.8949 32.2719 21.8808 32.2677 21.8637C32.2634 21.8467 32.2613 21.7863 32.2613 21.683V21.1723H32.4892ZM32.6775 21.8121L33.0123 21.7602C33.0266 21.8247 33.0554 21.8737 33.0988 21.9072C33.1423 21.9407 33.2031 21.9573 33.2813 21.9573C33.3676 21.9573 33.4325 21.9414 33.4759 21.9095C33.5051 21.887 33.5198 21.8573 33.5198 21.8197C33.5198 21.7942 33.5118 21.773 33.4959 21.7564C33.4791 21.7403 33.4417 21.7256 33.3836 21.712C33.1131 21.6521 32.9415 21.5975 32.8692 21.5483C32.7689 21.48 32.7189 21.385 32.7189 21.2636C32.7189 21.1538 32.7621 21.0616 32.8488 20.987C32.9356 20.9123 33.0701 20.8749 33.2523 20.8749C33.4257 20.8749 33.5545 20.9029 33.6389 20.9588C33.7232 21.0148 33.7813 21.0975 33.8133 21.2069L33.4991 21.2657C33.4855 21.2166 33.4596 21.1789 33.4216 21.1528C33.3835 21.1266 33.3293 21.1135 33.2589 21.1135C33.1701 21.1135 33.1063 21.1258 33.068 21.1507C33.0423 21.1682 33.0295 21.1909 33.0295 21.2187C33.0295 21.2428 33.0406 21.2631 33.0629 21.2799C33.0931 21.3022 33.1975 21.3337 33.3759 21.3744C33.5543 21.4152 33.6789 21.465 33.7497 21.524C33.8196 21.5837 33.8547 21.667 33.8547 21.7738C33.8547 21.8901 33.8063 21.9902 33.7099 22.0738C33.6132 22.1576 33.4705 22.1995 33.2813 22.1995C33.1098 22.1995 32.9739 22.1646 32.8738 22.0952C32.7737 22.0256 32.7083 21.9314 32.6775 21.8121ZM35.6495 20.8334L35.8927 21.4802H35.4144L35.6495 20.8334ZM36.1593 22.1683H36.5385L35.8359 20.4253H35.4655L34.7915 22.1683H35.1642L35.3076 21.7741H36.0089L36.1593 22.1683ZM37.1132 22.1682H36.7784V20.906H37.089V21.0855C37.1422 21.0007 37.1898 20.9445 37.2323 20.9166C37.2746 20.8889 37.3227 20.8749 37.3767 20.8749C37.4527 20.8749 37.526 20.896 37.5966 20.9382L37.4947 21.2305C37.4382 21.1941 37.3858 21.1758 37.3374 21.1758C37.2903 21.1758 37.2507 21.1888 37.2181 21.2144C37.1855 21.2403 37.1598 21.2869 37.1413 21.3543C37.1225 21.4217 37.1132 21.563 37.1132 21.7779V22.1682ZM38.4884 21.2076C38.5361 21.2588 38.5612 21.3334 38.5636 21.4317H38.0621C38.0612 21.339 38.0847 21.2657 38.1325 21.2118C38.1803 21.1579 38.2407 21.1308 38.3141 21.1308C38.3824 21.1308 38.4406 21.1564 38.4884 21.2076ZM38.8778 21.826L38.5464 21.7706C38.5279 21.8337 38.5007 21.8795 38.4648 21.9079C38.4288 21.9363 38.3845 21.9505 38.3317 21.9505C38.2543 21.9505 38.1895 21.9228 38.1375 21.8677C38.0857 21.8123 38.0585 21.7351 38.0561 21.6357H38.895C38.8998 21.3781 38.8477 21.187 38.7391 21.062C38.6303 20.9373 38.4819 20.8749 38.2939 20.8749C38.1265 20.8749 37.988 20.9343 37.8786 21.0533C37.769 21.1723 37.7142 21.3368 37.7142 21.5466C37.7142 21.7226 37.7559 21.8681 37.8393 21.9834C37.9448 22.1274 38.1077 22.1995 38.3276 22.1995C38.4665 22.1995 38.5823 22.1677 38.6747 22.104C38.7672 22.0403 38.8349 21.9476 38.8778 21.826ZM39.933 21.5631C39.8904 21.5775 39.8228 21.5946 39.7304 21.6145C39.6381 21.6343 39.5777 21.6539 39.5493 21.6729C39.5058 21.704 39.4843 21.7434 39.4843 21.7911C39.4843 21.8381 39.5015 21.8786 39.5363 21.913C39.571 21.9471 39.6152 21.9643 39.669 21.9643C39.729 21.9643 39.7861 21.9444 39.8407 21.9047C39.8809 21.8743 39.9074 21.8374 39.92 21.7935C39.9286 21.7649 39.933 21.7103 39.933 21.6299V21.5631ZM39.4842 21.2899L39.1838 21.2346C39.2179 21.1123 39.2764 21.0219 39.3595 20.9631C39.4427 20.9043 39.5662 20.8749 39.73 20.8749C39.8788 20.8749 39.9898 20.8926 40.0626 20.9278C40.1354 20.9633 40.1867 21.0081 40.2164 21.0625C40.2461 21.1168 40.261 21.2168 40.261 21.3621L40.2576 21.7527C40.2576 21.8638 40.2629 21.9459 40.2735 21.9986C40.2842 22.0514 40.3042 22.1079 40.3333 22.1682H40.002C39.9932 22.1464 39.9827 22.114 39.9699 22.0711C39.9671 22.061 39.9647 22.0528 39.9627 22.0463L39.9582 22.0324C39.9012 22.088 39.8404 22.1298 39.7756 22.1577C39.7107 22.1855 39.6415 22.1995 39.568 22.1995C39.4383 22.1995 39.336 22.164 39.2613 22.0934C39.1867 22.0227 39.1494 21.9333 39.1494 21.8253C39.1494 21.7539 39.1663 21.6902 39.2003 21.6342C39.2343 21.5782 39.2821 21.5352 39.3434 21.5055C39.4048 21.4758 39.4933 21.4496 39.6088 21.4273C39.7647 21.398 39.8728 21.3707 39.933 21.3452V21.3115C39.933 21.2464 39.9171 21.2 39.8853 21.1723C39.8534 21.1446 39.7933 21.1308 39.705 21.1308C39.6453 21.1308 39.5988 21.1426 39.5653 21.1661C39.5319 21.1896 39.5048 21.2309 39.4842 21.2899ZM35.7378 12.4809L36.8861 16.435H34.6234L35.7378 12.4809ZM34.0961 18.2121H37.373L37.8405 19.7886H40.3229L37.5533 10.6667H33.8563L31.1202 19.7886H33.6559L34.0961 18.2121Z" fill="#10298E"/>
<path fill-rule="evenodd" clip-rule="evenodd" d="M21.0471 11.9502C22.0579 11.9502 22.9601 12.4166 23.5531 13.1473L24.0814 12.0126C23.2552 11.2303 22.1306 10.748 20.8903 10.748C18.9592 10.748 17.3072 11.9163 16.6292 13.5701H15.599L14.9907 14.8764H16.316C16.3061 14.9976 16.2997 15.1189 16.2997 15.2426C16.2997 15.3923 16.3074 15.5403 16.3222 15.6865H15.6561L15.0479 16.9932H16.6608C17.3581 18.6051 18.9894 19.7368 20.8903 19.7368C21.8482 19.7368 22.7371 19.4493 23.4731 18.9581V17.3567C22.8804 18.0327 22.0135 18.4598 21.0471 18.4598C19.9173 18.4598 18.9236 17.8763 18.3449 16.9932H21.7223L22.3305 15.6865H17.848C17.8249 15.5292 17.8125 15.3685 17.8125 15.2048C17.8125 15.0942 17.8183 14.9846 17.8289 14.8764H22.7074L23.3156 13.5701H18.2508C18.8109 12.6018 19.8532 11.9502 21.0471 11.9502" fill="#FFBE00"/>
</svg>
