<svg width="47" height="32" viewBox="0 0 47 32" fill="none" xmlns="http://www.w3.org/2000/svg">
<path fill-rule="evenodd" clip-rule="evenodd" d="M14.167 21.6776H11.3399L9.21994 13.5897C9.11932 13.2177 8.90566 12.8888 8.59139 12.7338C7.80708 12.3442 6.94282 12.0342 6 11.8778V11.5664H10.5542C11.1828 11.5664 11.6542 12.0342 11.7328 12.5774L12.8327 18.4114L15.6584 11.5664H18.407L14.167 21.6776ZM19.9783 21.6776H17.3084L19.5069 11.5664H22.1769L19.9783 21.6776ZM25.6312 14.3675C25.7097 13.823 26.1811 13.5116 26.7311 13.5116C27.5954 13.4334 28.5368 13.5898 29.3225 13.978L29.7939 11.801C29.0082 11.4896 28.144 11.3333 27.3597 11.3333C24.7683 11.3333 22.8826 12.7338 22.8826 14.6776C22.8826 16.1563 24.2183 16.9327 25.1611 17.4005C26.1811 17.8669 26.574 18.1783 26.4954 18.6447C26.4954 19.3442 25.7097 19.6556 24.9254 19.6556C23.9826 19.6556 23.0398 19.4224 22.1769 19.0329L21.7055 21.2112C22.6483 21.5994 23.6683 21.7558 24.6111 21.7558C27.5168 21.8326 29.3225 20.4334 29.3225 18.3333C29.3225 15.6885 25.6312 15.5335 25.6312 14.3675V14.3675ZM38.6667 21.6776L36.5467 11.5664H34.2696C33.7982 11.5664 33.3268 11.8778 33.1696 12.3442L29.2439 21.6776H31.9925L32.5411 20.2002H35.9181L36.2324 21.6776H38.6667ZM34.6624 14.2894L35.4467 18.1001H33.2482L34.6624 14.2894Z" fill="#172B85"/>
</svg>
