<svg width="24" height="24" viewBox="0 0 24 24" fill="none" xmlns="http://www.w3.org/2000/svg">
<g id="Bed">
<path id="Vector (Stroke)" fill-rule="evenodd" clip-rule="evenodd" d="M4.23129 6.41312C4.84504 5.79936 5.67747 5.45456 6.54545 5.45456C7.41344 5.45456 8.24587 5.79936 8.85962 6.41312C9.47338 7.02687 9.81818 7.8593 9.81818 8.72729C9.81818 9.59527 9.47338 10.4277 8.85962 11.0415C8.24587 11.6552 7.41344 12 6.54545 12C5.67747 12 4.84504 11.6552 4.23129 11.0415C3.61753 10.4277 3.27273 9.59527 3.27273 8.72729C3.27273 7.85931 3.61753 7.02687 4.23129 6.41312ZM6.54545 7.63638C6.25613 7.63638 5.97865 7.75131 5.77407 7.9559C5.56948 8.16048 5.45455 8.43796 5.45455 8.72729C5.45455 9.01661 5.56948 9.29409 5.77407 9.49868C5.97865 9.70326 6.25613 9.8182 6.54545 9.8182C6.83478 9.8182 7.11226 9.70326 7.31684 9.49868C7.52143 9.29409 7.63636 9.01661 7.63636 8.72729C7.63636 8.43796 7.52143 8.16048 7.31684 7.9559C7.11226 7.75131 6.83478 7.63638 6.54545 7.63638ZM1.09091 6.54547C1.6934 6.54547 2.18182 7.03389 2.18182 7.63638V13.0909H10.9091V8.72729C10.9091 8.12479 11.3975 7.63638 12 7.63638H19.6364C20.7937 7.63638 21.9036 8.09612 22.7219 8.91446C23.5403 9.7328 24 10.8427 24 12V17.4546C24 18.0571 23.5116 18.5455 22.9091 18.5455C22.3066 18.5455 21.8182 18.0571 21.8182 17.4546V15.2727H2.18182V17.4546C2.18182 18.0571 1.6934 18.5455 1.09091 18.5455C0.488417 18.5455 0 18.0571 0 17.4546V7.63638C0 7.03389 0.488417 6.54547 1.09091 6.54547ZM21.8182 13.0909V12C21.8182 11.4214 21.5883 10.8664 21.1791 10.4572C20.77 10.0481 20.215 9.8182 19.6364 9.8182H13.0909V13.0909H21.8182Z" fill="#1B4539"/>
</g>
</svg>
