<svg width="24" height="24" viewBox="0 0 24 24" fill="none" xmlns="http://www.w3.org/2000/svg">
<g id="Bubble" clip-path="url(#clip0_182_2305)">
<path id="Vector (Stroke)" fill-rule="evenodd" clip-rule="evenodd" d="M8.22876 2.22875C9.22896 1.22856 10.5855 0.666656 12 0.666656C13.4145 0.666656 14.771 1.22856 15.7712 2.22875C16.7714 3.22895 17.3333 4.5855 17.3333 5.99999C17.3333 7.41448 16.7714 8.77103 15.7712 9.77123C14.771 10.7714 13.4145 11.3333 12 11.3333C10.5855 11.3333 9.22896 10.7714 8.22876 9.77123C7.22857 8.77103 6.66667 7.41448 6.66667 5.99999C6.66667 4.5855 7.22857 3.22895 8.22876 2.22875ZM12 3.33332C11.2928 3.33332 10.6145 3.61427 10.1144 4.11437C9.61428 4.61447 9.33333 5.29275 9.33333 5.99999C9.33333 6.70723 9.61428 7.38551 10.1144 7.88561C10.6145 8.3857 11.2928 8.66666 12 8.66666C12.7072 8.66666 13.3855 8.3857 13.8856 7.88561C14.3857 7.38551 14.6667 6.70723 14.6667 5.99999C14.6667 5.29275 14.3857 4.61447 13.8856 4.11437C13.3855 3.61427 12.7072 3.33332 12 3.33332ZM3.29236 13.0726C3.93943 12.8046 4.63295 12.6667 5.33333 12.6667C6.03372 12.6667 6.72724 12.8046 7.37431 13.0726C8.02138 13.3407 8.60932 13.7335 9.10457 14.2288C9.59982 14.724 9.99267 15.3119 10.2607 15.959C10.5287 16.6061 10.6667 17.2996 10.6667 18C10.6667 18.7004 10.5287 19.3939 10.2607 20.041C9.99267 20.688 9.59982 21.276 9.10457 21.7712C8.60932 22.2665 8.02138 22.6593 7.37431 22.9273C6.72724 23.1954 6.03372 23.3333 5.33333 23.3333C4.63295 23.3333 3.93943 23.1954 3.29236 22.9273C2.64529 22.6593 2.05734 22.2665 1.5621 21.7712C1.06685 21.276 0.674001 20.688 0.405976 20.041C0.137951 19.3939 0 18.7004 0 18C0 17.2996 0.137951 16.6061 0.405976 15.959C0.674001 15.3119 1.06685 14.724 1.5621 14.2288C2.05734 13.7335 2.64529 13.3407 3.29236 13.0726ZM5.33333 15.3333C4.98314 15.3333 4.63638 15.4023 4.31284 15.5363C3.98931 15.6703 3.69534 15.8667 3.44772 16.1144C3.20009 16.362 3.00367 16.656 2.86966 16.9795C2.73564 17.303 2.66667 17.6498 2.66667 18C2.66667 18.3502 2.73564 18.6969 2.86966 19.0205C3.00367 19.344 3.20009 19.638 3.44772 19.8856C3.69534 20.1332 3.98931 20.3297 4.31284 20.4637C4.63638 20.5977 4.98314 20.6667 5.33333 20.6667C5.68353 20.6667 6.03029 20.5977 6.35382 20.4637C6.67736 20.3297 6.97133 20.1332 7.21895 19.8856C7.46657 19.638 7.663 19.344 7.79701 19.0205C7.93102 18.6969 8 18.3502 8 18C8 17.6498 7.93102 17.303 7.79701 16.9795C7.663 16.656 7.46657 16.362 7.21895 16.1144C6.97133 15.8667 6.67736 15.6703 6.35382 15.5363C6.03029 15.4023 5.68353 15.3333 5.33333 15.3333ZM14.8954 14.2288C15.8956 13.2286 17.2522 12.6667 18.6667 12.6667C20.0812 12.6667 21.4377 13.2286 22.4379 14.2288C23.4381 15.2289 24 16.5855 24 18C24 19.4145 23.4381 20.771 22.4379 21.7712C21.4377 22.7714 20.0812 23.3333 18.6667 23.3333C17.2522 23.3333 15.8956 22.7714 14.8954 21.7712C13.8952 20.771 13.3333 19.4145 13.3333 18C13.3333 16.5855 13.8952 15.2289 14.8954 14.2288ZM18.6667 15.3333C17.9594 15.3333 17.2811 15.6143 16.781 16.1144C16.281 16.6145 16 17.2927 16 18C16 18.7072 16.281 19.3855 16.781 19.8856C17.2811 20.3857 17.9594 20.6667 18.6667 20.6667C19.3739 20.6667 20.0522 20.3857 20.5523 19.8856C21.0524 19.3855 21.3333 18.7072 21.3333 18C21.3333 17.2927 21.0524 16.6145 20.5523 16.1144C20.0522 15.6143 19.3739 15.3333 18.6667 15.3333Z" fill="#1B4539"/>
</g>
<defs>
<clipPath id="clip0_182_2305">
<rect width="24" height="24" fill="white"/>
</clipPath>
</defs>
</svg>
