<svg width="24" height="24" viewBox="0 0 24 24" fill="none" xmlns="http://www.w3.org/2000/svg">
<path fill-rule="evenodd" clip-rule="evenodd" d="M7.19995 0C7.86269 0 8.39995 0.537258 8.39995 1.2V2.4H15.6V1.2C15.6 0.537258 16.1372 0 16.8 0C17.4627 0 18 0.537258 18 1.2V2.4H19.2C20.1547 2.4 21.0704 2.77928 21.7455 3.45442C22.4207 4.12955 22.8 5.04522 22.8 6V20.4C22.8 21.3548 22.4207 22.2705 21.7455 22.9456C21.0704 23.6207 20.1547 24 19.2 24H4.79995C3.84517 24 2.9295 23.6207 2.25437 22.9456C1.57924 22.2705 1.19995 21.3548 1.19995 20.4V6C1.19995 5.04522 1.57924 4.12955 2.25437 3.45442C2.9295 2.77928 3.84517 2.4 4.79995 2.4H5.99995V1.2C5.99995 0.537258 6.53721 0 7.19995 0ZM5.99995 4.8H4.79995C4.48169 4.8 4.17647 4.92643 3.95142 5.15147C3.72638 5.37652 3.59995 5.68174 3.59995 6V9.6H20.4V6C20.4 5.68174 20.2735 5.37652 20.0485 5.15147C19.8234 4.92643 19.5182 4.8 19.2 4.8H18V6C18 6.66274 17.4627 7.2 16.8 7.2C16.1372 7.2 15.6 6.66274 15.6 6V4.8H8.39995V6C8.39995 6.66274 7.86269 7.2 7.19995 7.2C6.53721 7.2 5.99995 6.66274 5.99995 6V4.8ZM20.4 12H3.59995V20.4C3.59995 20.7183 3.72638 21.0235 3.95142 21.2485C4.17647 21.4736 4.48169 21.6 4.79995 21.6H19.2C19.5182 21.6 19.8234 21.4736 20.0485 21.2485C20.2735 21.0235 20.4 20.7183 20.4 20.4V12Z" fill="#1B1B1F"/>
<path fill-rule="evenodd" clip-rule="evenodd" d="M6 15.6C6 14.9373 6.53726 14.4 7.2 14.4H9.6C10.2627 14.4 10.8 14.9373 10.8 15.6V18C10.8 18.6627 10.2627 19.2 9.6 19.2H7.2C6.53726 19.2 6 18.6627 6 18V15.6Z" fill="#1B1B1F"/>
</svg>
