<svg width="24" height="24" viewBox="0 0 24 24" fill="none" xmlns="http://www.w3.org/2000/svg">
<g id="Caret">
<path id="Vector" d="M21.6943 4.03357C22.1295 4.03366 22.5558 4.1569 22.9239 4.38903C23.292 4.62117 23.5869 4.95273 23.7746 5.3454C23.9623 5.73807 24.035 6.17583 23.9843 6.60808C23.9337 7.04033 23.7618 7.44944 23.4885 7.78812L14.6925 18.6805C14.3683 19.082 13.9583 19.4059 13.4926 19.6284C13.0269 19.8509 12.5173 19.9664 12.0012 19.9664C11.485 19.9664 10.9754 19.8509 10.5097 19.6284C10.044 19.4059 9.63404 19.082 9.30978 18.6805L0.511493 7.78812C0.238183 7.44944 0.0662853 7.04033 0.0156605 6.60808C-0.0349662 6.17582 0.0377477 5.73807 0.2254 5.3454C0.413053 4.95273 0.707984 4.62117 1.07611 4.38903C1.44424 4.1569 1.87054 4.03366 2.30574 4.03357L21.6943 4.03357Z" fill="#1B1B1F"/>
</g>
</svg>
