<svg width="24" height="24" viewBox="0 0 24 24" fill="none" xmlns="http://www.w3.org/2000/svg">
<g id="Cart">
<path id="Vector (Stroke)" fill-rule="evenodd" clip-rule="evenodd" d="M1.19995 1.2C1.19995 0.537258 1.73721 0 2.39995 0H4.79995C5.46269 0 5.99995 0.537258 5.99995 1.2V2.48266L21.6854 3.60305C22.0176 3.62677 22.3249 3.78742 22.5339 4.04657C22.743 4.30573 22.835 4.64009 22.7879 4.96971L21.5879 13.3697C21.5034 13.9609 20.9971 14.4 20.4 14.4H5.99995V16.8H18C18.9547 16.8 19.8704 17.1793 20.5455 17.8544C21.2207 18.5295 21.6 19.4452 21.6 20.4C21.6 21.3548 21.2207 22.2705 20.5455 22.9456C19.8704 23.6207 18.9547 24 18 24C17.0452 24 16.1295 23.6207 15.4544 22.9456C14.7792 22.2705 14.4 21.3548 14.4 20.4C14.4 19.9873 14.4708 19.5818 14.6058 19.2H8.19407C8.32908 19.5818 8.39995 19.9873 8.39995 20.4C8.39995 21.3548 8.02067 22.2705 7.34554 22.9456C6.6704 23.6207 5.75473 24 4.79995 24C3.84517 24 2.9295 23.6207 2.25437 22.9456C1.57924 22.2705 1.19995 21.3548 1.19995 20.4C1.19995 19.4452 1.57924 18.5295 2.25437 17.8544C2.63765 17.4711 3.09847 17.1832 3.59995 17.0059V3.61239C3.59988 3.60497 3.59988 3.59754 3.59995 3.59009V2.4H2.39995C1.73721 2.4 1.19995 1.86274 1.19995 1.2ZM5.99995 4.88877V12H19.3592L20.2299 5.9052L5.99995 4.88877ZM4.79995 19.2C4.48169 19.2 4.17647 19.3264 3.95142 19.5515C3.72638 19.7765 3.59995 20.0817 3.59995 20.4C3.59995 20.7183 3.72638 21.0235 3.95142 21.2485C4.17647 21.4736 4.48169 21.6 4.79995 21.6C5.11821 21.6 5.42344 21.4736 5.64848 21.2485C5.87352 21.0235 5.99995 20.7183 5.99995 20.4C5.99995 20.0817 5.87352 19.7765 5.64848 19.5515C5.42344 19.3264 5.11821 19.2 4.79995 19.2ZM18 19.2C17.6817 19.2 17.3765 19.3264 17.1514 19.5515C16.9264 19.7765 16.8 20.0817 16.8 20.4C16.8 20.7183 16.9264 21.0235 17.1514 21.2485C17.3765 21.4736 17.6817 21.6 18 21.6C18.3182 21.6 18.6234 21.4736 18.8485 21.2485C19.0735 21.0235 19.1999 20.7183 19.1999 20.4C19.1999 20.0817 19.0735 19.7765 18.8485 19.5515C18.6234 19.3264 18.3182 19.2 18 19.2Z" fill="black"/>
</g>
</svg>
