<svg width="24" height="24" viewBox="0 0 24 24" fill="none" xmlns="http://www.w3.org/2000/svg">
<g id="Chat" clip-path="url(#clip0_22_848)">
<path id="Vector (Stroke)" fill-rule="evenodd" clip-rule="evenodd" d="M4.8 3C4.16348 3 3.55303 3.25285 3.10294 3.70294C2.65286 4.15303 2.4 4.76348 2.4 5.4V15C2.4 15.6365 2.65286 16.247 3.10294 16.6971C3.55303 17.1471 4.16348 17.4 4.8 17.4H7.2C7.86274 17.4 8.4 17.9373 8.4 18.6V20.0806L12.5826 17.571C12.7691 17.4591 12.9825 17.4 13.2 17.4H19.2C19.8365 17.4 20.447 17.1471 20.8971 16.6971C21.3471 16.247 21.6 15.6365 21.6 15V5.4C21.6 4.76348 21.3471 4.15303 20.8971 3.70294C20.447 3.25286 19.8365 3 19.2 3H4.8ZM1.40589 2.00589C2.30606 1.10571 3.52696 0.599998 4.8 0.599998H19.2C20.473 0.599998 21.6939 1.10571 22.5941 2.00589C23.4943 2.90606 24 4.12696 24 5.4V15C24 16.273 23.4943 17.4939 22.5941 18.3941C21.6939 19.2943 20.473 19.8 19.2 19.8H13.5324L7.8174 23.229C7.44668 23.4514 6.98497 23.4572 6.60876 23.2442C6.23255 23.0312 6 22.6323 6 22.2V19.8H4.8C3.52696 19.8 2.30606 19.2943 1.40589 18.3941C0.505713 17.4939 0 16.273 0 15V5.4C0 4.12696 0.505713 2.90606 1.40589 2.00589ZM6 7.8C6 7.13726 6.53726 6.6 7.2 6.6H16.8C17.4627 6.6 18 7.13726 18 7.8C18 8.46274 17.4627 9 16.8 9H7.2C6.53726 9 6 8.46274 6 7.8ZM6 12.6C6 11.9373 6.53726 11.4 7.2 11.4H14.4C15.0627 11.4 15.6 11.9373 15.6 12.6C15.6 13.2627 15.0627 13.8 14.4 13.8H7.2C6.53726 13.8 6 13.2627 6 12.6Z" fill="#1B1B1F"/>
</g>
<defs>
<clipPath id="clip0_22_848">
<rect width="24" height="24" fill="white"/>
</clipPath>
</defs>
</svg>
