<svg width="24" height="24" viewBox="0 0 24 24" fill="none" xmlns="http://www.w3.org/2000/svg">
<g id="Clock" clip-path="url(#clip0_22_847)">
<path id="Vector (Stroke)" fill-rule="evenodd" clip-rule="evenodd" d="M7.4078 0.913446C8.86371 0.310389 10.4241 0 12 0C13.5759 0 15.1363 0.310389 16.5922 0.913446C18.0481 1.5165 19.371 2.40042 20.4853 3.51472C21.5996 4.62902 22.4835 5.95189 23.0866 7.4078C23.6896 8.86371 24 10.4241 24 12C24 13.5759 23.6896 15.1363 23.0866 16.5922C22.4835 18.0481 21.5996 19.371 20.4853 20.4853C19.371 21.5996 18.0481 22.4835 16.5922 23.0866C15.1363 23.6896 13.5759 24 12 24C10.4241 24 8.86371 23.6896 7.4078 23.0866C5.95189 22.4835 4.62902 21.5996 3.51472 20.4853C2.40042 19.371 1.5165 18.0481 0.913446 16.5922C0.310389 15.1363 0 13.5759 0 12C0 10.4241 0.310389 8.86371 0.913446 7.4078C1.5165 5.95189 2.40042 4.62902 3.51472 3.51472C4.62902 2.40042 5.95189 1.5165 7.4078 0.913446ZM12 2.4C10.7393 2.4 9.49096 2.64831 8.32624 3.13076C7.16151 3.6132 6.10322 4.32033 5.21177 5.21178C4.32033 6.10322 3.6132 7.16151 3.13076 8.32624C2.64831 9.49096 2.4 10.7393 2.4 12C2.4 13.2607 2.64831 14.509 3.13076 15.6738C3.6132 16.8385 4.32033 17.8968 5.21177 18.7882C6.10322 19.6797 7.16151 20.3868 8.32624 20.8692C9.49096 21.3517 10.7393 21.6 12 21.6C13.2607 21.6 14.509 21.3517 15.6738 20.8692C16.8385 20.3868 17.8968 19.6797 18.7882 18.7882C19.6797 17.8968 20.3868 16.8385 20.8692 15.6738C21.3517 14.509 21.6 13.2607 21.6 12C21.6 10.7393 21.3517 9.49096 20.8692 8.32624C20.3868 7.16151 19.6797 6.10322 18.7882 5.21178C17.8968 4.32033 16.8385 3.6132 15.6738 3.13076C14.509 2.64831 13.2607 2.4 12 2.4ZM12 4.8C12.6627 4.8 13.2 5.33726 13.2 6V12C13.2 12.4012 12.9995 12.7759 12.6656 12.9985L9.06564 15.3985C8.51421 15.7661 7.76916 15.6171 7.40154 15.0656C7.03392 14.5142 7.18293 13.7692 7.73436 13.4015L10.8 11.3578V6C10.8 5.33726 11.3373 4.8 12 4.8Z" fill="#1B1B1F"/>
</g>
<defs>
<clipPath id="clip0_22_847">
<rect width="24" height="24" fill="white"/>
</clipPath>
</defs>
</svg>
