<svg width="24" height="24" viewBox="0 0 24 24" fill="none" xmlns="http://www.w3.org/2000/svg">
<g id="Delete">
<path id="Vector (Stroke)" fill-rule="evenodd" clip-rule="evenodd" d="M7.9029 0.702944C8.35298 0.252856 8.96343 0 9.59995 0H14.4C15.0365 0 15.6469 0.252856 16.097 0.702944C16.5471 1.15303 16.8 1.76348 16.8 2.4V4.8H20.3859C20.3944 4.79991 20.4028 4.79991 20.4113 4.8H21.6C22.2627 4.8 22.8 5.33726 22.8 6C22.8 6.66274 22.2627 7.2 21.6 7.2H21.5041L20.3995 20.4549C20.3853 21.3898 20.0077 22.2834 19.3455 22.9456C18.6704 23.6207 17.7547 24 16.8 24H7.19995C6.24517 24 5.3295 23.6207 4.65437 22.9456C3.9922 22.2834 3.61462 21.3898 3.60037 20.4549L2.49579 7.2H2.39995C1.73721 7.2 1.19995 6.66274 1.19995 6C1.19995 5.33726 1.73721 4.8 2.39995 4.8H3.5886C3.59708 4.79991 3.60554 4.79991 3.61399 4.8H7.19995V2.4C7.19995 1.76348 7.45281 1.15303 7.9029 0.702944ZM4.90411 7.2L5.99581 20.3003C5.99857 20.3335 5.99995 20.3667 5.99995 20.4C5.99995 20.7183 6.12638 21.0235 6.35142 21.2485C6.57647 21.4736 6.88169 21.6 7.19995 21.6H16.8C17.1182 21.6 17.4234 21.4736 17.6485 21.2485C17.8735 21.0235 18 20.7183 18 20.4C18 20.3667 18.0013 20.3335 18.0041 20.3003L19.0958 7.2H4.90411ZM14.4 4.8H9.59995V2.4H14.4V4.8ZM9.59995 9.6C10.2627 9.6 10.8 10.1373 10.8 10.8V18C10.8 18.6627 10.2627 19.2 9.59995 19.2C8.93721 19.2 8.39995 18.6627 8.39995 18V10.8C8.39995 10.1373 8.93721 9.6 9.59995 9.6ZM14.4 9.6C15.0627 9.6 15.6 10.1373 15.6 10.8V18C15.6 18.6627 15.0627 19.2 14.4 19.2C13.7372 19.2 13.2 18.6627 13.2 18V10.8C13.2 10.1373 13.7372 9.6 14.4 9.6Z" fill="#1B1B1F"/>
</g>
</svg>
