<svg width="24" height="24" viewBox="0 0 24 24" fill="none" xmlns="http://www.w3.org/2000/svg">
<g id="Download" clip-path="url(#clip0_22_817)">
<path id="Vector (Stroke)" fill-rule="evenodd" clip-rule="evenodd" d="M12 0C12.6976 0 13.2632 0.565535 13.2632 1.26316V13.3715L17.4226 9.21208C17.9159 8.71878 18.7157 8.71878 19.209 9.21208C19.7023 9.70537 19.7023 10.5052 19.209 10.9985L12.8932 17.3142C12.3999 17.8075 11.6001 17.8075 11.1068 17.3142L4.79104 10.9985C4.29774 10.5052 4.29774 9.70537 4.79104 9.21208C5.28433 8.71878 6.08412 8.71878 6.57741 9.21208L10.7369 13.3715V1.26316C10.7369 0.565535 11.3024 0 12 0ZM1.89475 16.4211C2.59237 16.4211 3.15791 16.9866 3.15791 17.6842V20.2105C3.15791 20.5455 3.29099 20.8668 3.52788 21.1037C3.76477 21.3406 4.08606 21.4737 4.42107 21.4737H19.579C19.914 21.4737 20.2353 21.3406 20.4721 21.1037C20.709 20.8668 20.8421 20.5455 20.8421 20.2105V17.6842C20.8421 16.9866 21.4077 16.4211 22.1053 16.4211C22.8029 16.4211 23.3684 16.9866 23.3684 17.6842V20.2105C23.3684 21.2156 22.9692 22.1794 22.2585 22.8901C21.5479 23.6008 20.584 24 19.579 24H4.42107C3.41603 24 2.45217 23.6008 1.7415 22.8901C1.03084 22.1794 0.631592 21.2156 0.631592 20.2105V17.6842C0.631592 16.9866 1.19713 16.4211 1.89475 16.4211Z" fill="black"/>
</g>
<defs>
<clipPath id="clip0_22_817">
<rect width="24" height="24" fill="white"/>
</clipPath>
</defs>
</svg>
