<svg width="24" height="24" viewBox="0 0 24 24" fill="none" xmlns="http://www.w3.org/2000/svg">
<g id="edit">
<path id="Vector (Stroke)" fill-rule="evenodd" clip-rule="evenodd" d="M14.9482 1.55304C15.9426 0.558645 17.2913 0 18.6976 0C20.1039 0 21.4526 0.558644 22.447 1.55304C23.4414 2.54743 24 3.89612 24 5.3024C24 6.70868 23.4414 8.05737 22.447 9.05176L7.90439 23.5943C7.64465 23.8541 7.29236 24 6.92504 24H1.38501C0.620089 24 0 23.3799 0 22.615V17.075C0 16.7076 0.14592 16.3554 0.405659 16.0956L13.563 2.9383L14.9482 1.55304ZM14.5426 5.87609L2.77002 17.6487V21.23H6.35135L18.1239 9.45742L14.5426 5.87609ZM20.0826 7.49873L16.5013 3.91739L16.9069 3.51173C17.3818 3.03682 18.026 2.77002 18.6976 2.77002C19.3692 2.77002 20.0134 3.03682 20.4883 3.51173C20.9632 3.98665 21.23 4.63077 21.23 5.3024C21.23 5.97403 20.9632 6.61815 20.4883 7.09307L20.0826 7.49873Z" fill="#1B1B1F"/>
</g>
</svg>
