<svg width="24" height="24" viewBox="0 0 24 24" fill="none" xmlns="http://www.w3.org/2000/svg">
<g id="Files">
<path id="Vector (Stroke)" fill-rule="evenodd" clip-rule="evenodd" d="M10.2 2.4C9.88179 2.4 9.57656 2.52643 9.35152 2.75147C9.12648 2.97652 9.00005 3.28174 9.00005 3.6V15.6C9.00005 15.9183 9.12648 16.2235 9.35152 16.4485C9.57657 16.6736 9.88179 16.8 10.2 16.8H18.6C18.9183 16.8 19.2235 16.6736 19.4486 16.4485C19.6736 16.2235 19.8 15.9183 19.8 15.6V8.4H16.2C15.5635 8.4 14.9531 8.14714 14.503 7.69706C14.0529 7.24697 13.8 6.63652 13.8 6V2.4H10.2ZM16.2 4.09706L18.103 6H16.2V4.09706ZM17.4 19.2H18.6C19.5548 19.2 20.4705 18.8207 21.1456 18.1456C21.8208 17.4705 22.2 16.5548 22.2 15.6V7.2C22.2 6.88174 22.0736 6.57652 21.8486 6.35147L15.8486 0.351472C15.6235 0.126428 15.3183 0 15 0H10.2C9.24527 0 8.3296 0.379285 7.65446 1.05442C6.97933 1.72955 6.60005 2.64522 6.60005 3.6V4.8H5.40005C4.44527 4.8 3.5296 5.17928 2.85446 5.85442C2.17933 6.52955 1.80005 7.44522 1.80005 8.4V20.4C1.80005 21.3548 2.17933 22.2705 2.85446 22.9456C3.52959 23.6207 4.44527 24 5.40005 24H13.8C14.7548 24 15.6705 23.6207 16.3456 22.9456C17.0208 22.2705 17.4 21.3548 17.4 20.4V19.2ZM15 19.2H10.2C9.24527 19.2 8.3296 18.8207 7.65446 18.1456C6.97933 17.4705 6.60005 16.5548 6.60005 15.6V7.2H5.40005C5.08179 7.2 4.77656 7.32643 4.55152 7.55147C4.32648 7.77652 4.20005 8.08174 4.20005 8.4V20.4C4.20005 20.7183 4.32648 21.0235 4.55152 21.2485C4.77656 21.4736 5.08179 21.6 5.40005 21.6H13.8C14.1183 21.6 14.4235 21.4736 14.6486 21.2485C14.8736 21.0235 15 20.7183 15 20.4V19.2Z" fill="#1B4539"/>
</g>
</svg>
