<svg width="24" height="24" viewBox="0 0 24 24" fill="none" xmlns="http://www.w3.org/2000/svg">
<g id="File">
<path id="Vector (Stroke)" fill-rule="evenodd" clip-rule="evenodd" d="M5.9999 2.4C5.68164 2.4 5.37642 2.52643 5.15137 2.75147C4.92633 2.97652 4.7999 3.28174 4.7999 3.6V20.4C4.7999 20.7183 4.92633 21.0235 5.15137 21.2485C5.37642 21.4736 5.68164 21.6 5.9999 21.6H17.9999C18.3182 21.6 18.6234 21.4736 18.8484 21.2485C19.0735 21.0235 19.1999 20.7183 19.1999 20.4V8.4H15.5999C14.9634 8.4 14.3529 8.14714 13.9028 7.69706C13.4528 7.24697 13.1999 6.63652 13.1999 6V2.4H5.9999ZM15.5999 4.09706L17.5028 6H15.5999V4.09706ZM3.45432 1.05442C4.12945 0.379284 5.04512 0 5.9999 0H14.3999C14.7182 0 15.0234 0.126428 15.2484 0.351472L21.2484 6.35147C21.4735 6.57652 21.5999 6.88174 21.5999 7.2V20.4C21.5999 21.3548 21.2206 22.2705 20.5455 22.9456C19.8704 23.6207 18.9547 24 17.9999 24H5.9999C5.04512 24 4.12945 23.6207 3.45432 22.9456C2.77919 22.2705 2.3999 21.3548 2.3999 20.4V3.6C2.3999 2.64522 2.77919 1.72955 3.45432 1.05442ZM7.1999 13.2C7.1999 12.5373 7.73716 12 8.3999 12H15.5999C16.2626 12 16.7999 12.5373 16.7999 13.2C16.7999 13.8627 16.2626 14.4 15.5999 14.4H8.3999C7.73716 14.4 7.1999 13.8627 7.1999 13.2ZM7.1999 18C7.1999 17.3373 7.73716 16.8 8.3999 16.8H15.5999C16.2626 16.8 16.7999 17.3373 16.7999 18C16.7999 18.6627 16.2626 19.2 15.5999 19.2H8.3999C7.73716 19.2 7.1999 18.6627 7.1999 18Z" fill="#1B4539"/>
</g>
</svg>
