<svg width="24" height="24" viewBox="0 0 24 24" fill="none" xmlns="http://www.w3.org/2000/svg">
<g id="Filter">
<path id="Vector (Stroke)" fill-rule="evenodd" clip-rule="evenodd" d="M4 0C4.73638 0 5.33333 0.596954 5.33333 1.33333V5.5621C5.89054 5.75911 6.40255 6.07903 6.82843 6.50491C7.57857 7.25505 8 8.27247 8 9.33333C8 10.3942 7.57857 11.4116 6.82843 12.1618C6.40255 12.5876 5.89054 12.9076 5.33333 13.1046V22.6667C5.33333 23.403 4.73638 24 4 24C3.26362 24 2.66667 23.403 2.66667 22.6667V13.1046C2.10946 12.9076 1.59745 12.5876 1.17157 12.1618C0.421427 11.4116 0 10.3942 0 9.33333C0 8.27247 0.421427 7.25505 1.17157 6.50491C1.59745 6.07903 2.10946 5.75911 2.66667 5.5621V1.33333C2.66667 0.596954 3.26362 0 4 0ZM12 0C12.7364 0 13.3333 0.596954 13.3333 1.33333V13.5621C13.8905 13.7591 14.4026 14.079 14.8284 14.5049C15.5786 15.2551 16 16.2725 16 17.3333C16 18.3942 15.5786 19.4116 14.8284 20.1618C14.4026 20.5876 13.8905 20.9076 13.3333 21.1046V22.6667C13.3333 23.403 12.7364 24 12 24C11.2636 24 10.6667 23.403 10.6667 22.6667V21.1046C10.1095 20.9076 9.59745 20.5876 9.17157 20.1618C8.42143 19.4116 8 18.3942 8 17.3333C8 16.2725 8.42143 15.2551 9.17157 14.5049C9.59745 14.079 10.1095 13.7591 10.6667 13.5621V1.33333C10.6667 0.596954 11.2636 0 12 0ZM20 0C20.7364 0 21.3333 0.596954 21.3333 1.33333V1.5621C21.8905 1.75911 22.4026 2.07903 22.8284 2.50491C23.5786 3.25505 24 4.27247 24 5.33333C24 6.3942 23.5786 7.41162 22.8284 8.16176C22.4026 8.58763 21.8905 8.90756 21.3333 9.10457V22.6667C21.3333 23.403 20.7364 24 20 24C19.2636 24 18.6667 23.403 18.6667 22.6667V9.10457C18.1095 8.90756 17.5974 8.58763 17.1716 8.16176C16.4214 7.41162 16 6.3942 16 5.33333C16 4.27247 16.4214 3.25505 17.1716 2.50491C17.5974 2.07903 18.1095 1.75911 18.6667 1.5621V1.33333C18.6667 0.596954 19.2636 0 20 0ZM20 4C19.6464 4 19.3072 4.14048 19.0572 4.39052C18.8071 4.64057 18.6667 4.97971 18.6667 5.33333C18.6667 5.68695 18.8071 6.02609 19.0572 6.27614C19.3072 6.52619 19.6464 6.66667 20 6.66667C20.3536 6.66667 20.6928 6.52619 20.9428 6.27614C21.1929 6.02609 21.3333 5.68695 21.3333 5.33333C21.3333 4.97971 21.1929 4.64057 20.9428 4.39052C20.6928 4.14048 20.3536 4 20 4ZM4 8C3.64638 8 3.30724 8.14048 3.05719 8.39052C2.80714 8.64057 2.66667 8.97971 2.66667 9.33333C2.66667 9.68696 2.80714 10.0261 3.05719 10.2761C3.30724 10.5262 3.64638 10.6667 4 10.6667C4.35362 10.6667 4.69276 10.5262 4.94281 10.2761C5.19286 10.0261 5.33333 9.68696 5.33333 9.33333C5.33333 8.97971 5.19286 8.64057 4.94281 8.39052C4.69276 8.14048 4.35362 8 4 8ZM12 16C11.6464 16 11.3072 16.1405 11.0572 16.3905C10.8071 16.6406 10.6667 16.9797 10.6667 17.3333C10.6667 17.687 10.8071 18.0261 11.0572 18.2761C11.3072 18.5262 11.6464 18.6667 12 18.6667C12.3536 18.6667 12.6928 18.5262 12.9428 18.2761C13.1929 18.0261 13.3333 17.687 13.3333 17.3333C13.3333 16.9797 13.1929 16.6406 12.9428 16.3905C12.6928 16.1405 12.3536 16 12 16Z" fill="#1B1B1F"/>
</g>
</svg>
