<svg width="24" height="24" viewBox="0 0 24 24" fill="none" xmlns="http://www.w3.org/2000/svg">
<g id="Folder">
<path id="Vector (Stroke)" fill-rule="evenodd" clip-rule="evenodd" d="M3.6 4.2C3.28174 4.2 2.97652 4.32643 2.75147 4.55147C2.52643 4.77652 2.4 5.08174 2.4 5.4V18.6C2.4 18.9183 2.52643 19.2235 2.75147 19.4485C2.97652 19.6736 3.28174 19.8 3.6 19.8H20.4C20.7183 19.8 21.0235 19.6736 21.2485 19.4485C21.4736 19.2235 21.6 18.9183 21.6 18.6V9C21.6 8.68174 21.4736 8.37652 21.2485 8.15147C21.0235 7.92643 20.7183 7.8 20.4 7.8H12C11.6817 7.8 11.3765 7.67357 11.1515 7.44853L7.90294 4.2H3.6ZM1.05442 2.85442C1.72955 2.17929 2.64522 1.8 3.6 1.8H8.4C8.71826 1.8 9.02349 1.92643 9.24853 2.15147L12.4971 5.4H20.4C21.3548 5.4 22.2705 5.77929 22.9456 6.45442C23.6207 7.12955 24 8.04522 24 9V18.6C24 19.5548 23.6207 20.4705 22.9456 21.1456C22.2705 21.8207 21.3548 22.2 20.4 22.2H3.6C2.64522 22.2 1.72955 21.8207 1.05442 21.1456C0.379285 20.4705 0 19.5548 0 18.6V5.4C0 4.44522 0.379284 3.52955 1.05442 2.85442Z" fill="#1B1B1F"/>
</g>
</svg>
