<svg width="24" height="24" viewBox="0 0 24 24" fill="none" xmlns="http://www.w3.org/2000/svg">
<path fill-rule="evenodd" clip-rule="evenodd" d="M4.8 3.6C4.16348 3.6 3.55303 3.85285 3.10294 4.30294C2.65286 4.75303 2.4 5.36348 2.4 6V18C2.4 18.6365 2.65286 19.247 3.10294 19.6971C3.55303 20.1471 4.16348 20.4 4.8 20.4H19.2C19.8365 20.4 20.447 20.1471 20.8971 19.6971C21.3471 19.247 21.6 18.6365 21.6 18V6C21.6 5.36348 21.3471 4.75303 20.8971 4.30294C20.447 3.85285 19.8365 3.6 19.2 3.6H4.8ZM1.40589 2.60588C2.30606 1.70571 3.52696 1.2 4.8 1.2H19.2C20.473 1.2 21.6939 1.70571 22.5941 2.60588C23.4943 3.50606 24 4.72696 24 6V18C24 19.273 23.4943 20.4939 22.5941 21.3941C21.6939 22.2943 20.473 22.8 19.2 22.8H4.8C3.52696 22.8 2.30606 22.2943 1.40589 21.3941C0.505713 20.4939 0 19.273 0 18V6C0 4.72696 0.505713 3.50606 1.40589 2.60588Z" fill="#1B1B1F"/>
<path fill-rule="evenodd" clip-rule="evenodd" d="M5.85446 7.05442C6.52959 6.37929 7.44527 6 8.40005 6C9.35483 6 10.2705 6.37929 10.9456 7.05442C11.6208 7.72955 12 8.64522 12 9.6C12 10.5548 11.6208 11.4705 10.9456 12.1456C10.2705 12.8207 9.35483 13.2 8.40005 13.2C7.44527 13.2 6.52959 12.8207 5.85446 12.1456C5.17933 11.4705 4.80005 10.5548 4.80005 9.6C4.80005 8.64522 5.17933 7.72955 5.85446 7.05442ZM8.40005 8.4C8.08179 8.4 7.77656 8.52643 7.55152 8.75147C7.32648 8.97652 7.20005 9.28174 7.20005 9.6C7.20005 9.91826 7.32648 10.2235 7.55152 10.4485C7.77656 10.6736 8.08179 10.8 8.40005 10.8C8.71831 10.8 9.02353 10.6736 9.24858 10.4485C9.47362 10.2235 9.60005 9.91826 9.60005 9.6C9.60005 9.28174 9.47362 8.97652 9.24858 8.75147C9.02353 8.52643 8.71831 8.4 8.40005 8.4ZM14.4 7.2C14.4 6.53726 14.9373 6 15.6 6H18C18.6628 6 19.2 6.53726 19.2 7.2C19.2 7.86274 18.6628 8.4 18 8.4H15.6C14.9373 8.4 14.4 7.86274 14.4 7.2ZM14.4 12C14.4 11.3373 14.9373 10.8 15.6 10.8H18C18.6628 10.8 19.2 11.3373 19.2 12C19.2 12.6627 18.6628 13.2 18 13.2H15.6C14.9373 13.2 14.4 12.6627 14.4 12ZM4.80005 16.8C4.80005 16.1373 5.33731 15.6 6.00005 15.6H18C18.6628 15.6 19.2 16.1373 19.2 16.8C19.2 17.4627 18.6628 18 18 18H6.00005C5.33731 18 4.80005 17.4627 4.80005 16.8Z" fill="#1B1B1F"/>
</svg>
