<svg width="24" height="24" viewBox="0 0 24 24" fill="none" xmlns="http://www.w3.org/2000/svg">
<g id="Info" clip-path="url(#clip0_341_8681)">
<path id="Vector (Stroke)" fill-rule="evenodd" clip-rule="evenodd" d="M3.51472 3.51472C5.76516 1.26428 8.8174 0 12 0C15.1826 0 18.2348 1.26428 20.4853 3.51472C22.7357 5.76516 24 8.8174 24 12C24 13.5759 23.6896 15.1363 23.0866 16.5922C22.4835 18.0481 21.5996 19.371 20.4853 20.4853C19.371 21.5996 18.0481 22.4835 16.5922 23.0866C15.1363 23.6896 13.5759 24 12 24C10.4241 24 8.86371 23.6896 7.4078 23.0866C5.95189 22.4835 4.62902 21.5996 3.51472 20.4853C2.40042 19.371 1.5165 18.0481 0.913446 16.5922C0.310389 15.1363 0 13.5759 0 12C7.15256e-08 8.8174 1.26428 5.76516 3.51472 3.51472ZM12 2.4C9.45392 2.4 7.01212 3.41143 5.21177 5.21178C3.41143 7.01212 2.4 9.45392 2.4 12C2.4 13.2607 2.64831 14.509 3.13076 15.6738C3.6132 16.8385 4.32033 17.8968 5.21177 18.7882C6.10322 19.6797 7.16151 20.3868 8.32624 20.8692C9.49096 21.3517 10.7393 21.6 12 21.6C13.2607 21.6 14.509 21.3517 15.6738 20.8692C16.8385 20.3868 17.8968 19.6797 18.7882 18.7882C19.6797 17.8968 20.3868 16.8385 20.8692 15.6738C21.3517 14.509 21.6 13.2607 21.6 12C21.6 9.45392 20.5886 7.01212 18.7882 5.21178C16.9879 3.41143 14.5461 2.4 12 2.4ZM10.8 8.4C10.8 7.73726 11.3373 7.2 12 7.2H12.012C12.6747 7.2 13.212 7.73726 13.212 8.4C13.212 9.06274 12.6747 9.6 12.012 9.6H12C11.3373 9.6 10.8 9.06274 10.8 8.4ZM9.6 12C9.6 11.3373 10.1373 10.8 10.8 10.8H12C12.6627 10.8 13.2 11.3373 13.2 12V15.6C13.8627 15.6 14.4 16.1373 14.4 16.8C14.4 17.4627 13.8627 18 13.2 18H12C11.3373 18 10.8 17.4627 10.8 16.8V13.2C10.1373 13.2 9.6 12.6627 9.6 12Z" fill="#9D9D9D"/>
</g>
<defs>
<clipPath id="clip0_341_8681">
<rect width="24" height="24" fill="white"/>
</clipPath>
</defs>
</svg>
