<svg width="24" height="24" viewBox="0 0 24 24" fill="none" xmlns="http://www.w3.org/2000/svg">
<g id="Kid" clip-path="url(#clip0_182_2306)">
<path id="Vector (Stroke)" fill-rule="evenodd" clip-rule="evenodd" d="M7.26865 1.03413C7.60282 0.532874 8.28007 0.397424 8.78133 0.731595C9.82987 1.43062 10.6201 2.58238 11.1418 3.7004C11.6658 4.82325 11.9941 6.07324 11.9941 7.09323C11.9941 7.69567 11.5057 8.18404 10.9033 8.18404C10.3008 8.18404 9.81246 7.69567 9.81246 7.09323C9.81246 6.47702 9.59533 5.5454 9.16487 4.62298C8.73216 3.69574 8.15885 2.93858 7.57118 2.54681C7.06993 2.21264 6.93448 1.53539 7.26865 1.03413ZM11.885 0.766556C12.3669 0.405095 13.0507 0.502769 13.4121 0.984717C15.1453 3.29566 15.8119 5.15614 15.8119 7.09323C15.8119 7.69567 15.3235 8.18404 14.7211 8.18404C14.1187 8.18404 13.6303 7.69567 13.6303 7.09323C13.6303 5.75791 13.206 4.34597 11.6668 2.29368C11.3054 1.81174 11.403 1.12802 11.885 0.766556ZM16.5405 3.76106C16.8747 3.25984 17.552 3.12445 18.0532 3.45867C19.2737 4.27252 20.3176 5.3242 21.1222 6.5508C21.8468 7.65521 22.364 8.88099 22.65 10.168C23.0411 10.4994 23.3628 10.9073 23.5943 11.3684C23.8996 11.9766 24.0367 12.6554 23.9916 13.3344C23.9464 14.0135 23.7206 14.6681 23.3374 15.2305C23.047 15.6569 22.6741 16.0185 22.2427 16.2951C21.501 18.3203 20.174 20.0836 18.4259 21.358C16.5596 22.7186 14.3096 23.4517 12 23.4517C9.69039 23.4517 7.44038 22.7186 5.57407 21.358C3.82599 20.0836 2.49905 18.3203 1.75733 16.2951C1.32586 16.0185 0.953036 15.6569 0.662593 15.2305C0.279437 14.6681 0.0535842 14.0135 0.00841839 13.3344C-0.0367474 12.6554 0.100416 11.9766 0.405707 11.3684C0.637167 10.9073 0.95889 10.4994 1.35001 10.168C1.62971 8.90928 2.13066 7.70889 2.83065 6.62322C3.60982 5.41472 4.62025 4.37221 5.8038 3.55563C6.29966 3.21352 6.97898 3.33816 7.3211 3.83402C7.66322 4.32989 7.53858 5.00921 7.04271 5.35133C6.09587 6.00459 5.28753 6.8386 4.66419 7.8054C4.04085 8.77219 3.61481 9.85269 3.41057 10.9847C3.35699 11.2817 3.18279 11.5432 2.92938 11.7071C2.68446 11.8654 2.48633 12.0864 2.35549 12.3471C2.22465 12.6077 2.16586 12.8986 2.18522 13.1896C2.20458 13.4807 2.30137 13.7612 2.46558 14.0023C2.62979 14.2433 2.85545 14.4361 3.11918 14.5606C3.3922 14.6895 3.59957 14.9258 3.69193 15.2133C4.25719 16.9724 5.36621 18.5067 6.85926 19.5951C8.3523 20.6836 10.1523 21.2701 12 21.2701C13.8477 21.2701 15.6477 20.6836 17.1407 19.5951C18.6338 18.5067 19.7428 16.9724 20.3081 15.2133C20.4004 14.9258 20.6078 14.6895 20.8808 14.5606C21.1446 14.4361 21.3702 14.2433 21.5344 14.0023C21.6986 13.7612 21.7954 13.4807 21.8148 13.1896C21.8341 12.8986 21.7753 12.6077 21.6445 12.3471C21.5137 12.0864 21.3155 11.8654 21.0706 11.7071C20.8172 11.5432 20.643 11.2817 20.5894 10.9847C20.3811 9.8298 19.9419 8.72875 19.2981 7.74747C18.6544 6.7662 17.8193 5.92485 16.8429 5.27377C16.3417 4.93955 16.2063 4.26229 16.5405 3.76106ZM7.63085 12.5473C7.63085 11.9448 8.11922 11.4565 8.72166 11.4565H8.73257C9.335 11.4565 9.82337 11.9448 9.82337 12.5473C9.82337 13.1497 9.335 13.6381 8.73257 13.6381H8.72166C8.11922 13.6381 7.63085 13.1497 7.63085 12.5473ZM14.1757 12.5473C14.1757 11.9448 14.6641 11.4565 15.2665 11.4565H15.2774C15.8798 11.4565 16.3682 11.9448 16.3682 12.5473C16.3682 13.1497 15.8798 13.6381 15.2774 13.6381H15.2665C14.6641 13.6381 14.1757 13.1497 14.1757 12.5473ZM8.50366 16.1313C8.93397 15.7097 9.62459 15.7168 10.0462 16.1471C10.3001 16.4062 10.6032 16.6121 10.9377 16.7526C11.2721 16.8932 11.6313 16.9656 11.9941 16.9656C12.3569 16.9656 12.716 16.8932 13.0505 16.7526C13.385 16.6121 13.688 16.4062 13.9419 16.1471C14.3636 15.7168 15.0542 15.7097 15.4845 16.1313C15.9148 16.553 15.9219 17.2436 15.5002 17.6739C15.0432 18.1404 14.4977 18.5109 13.8956 18.7639C13.2936 19.0169 12.6471 19.1472 11.9941 19.1472C11.341 19.1472 10.6946 19.0169 10.0925 18.7639C9.49046 18.5109 8.94495 18.1404 8.48791 17.6739C8.0663 17.2436 8.07334 16.553 8.50366 16.1313Z" fill="black"/>
</g>
<defs>
<clipPath id="clip0_182_2306">
<rect width="24" height="24" fill="white"/>
</clipPath>
</defs>
</svg>
