<svg width="24" height="24" viewBox="0 0 24 24" fill="none" xmlns="http://www.w3.org/2000/svg">
<g id="Logout">
<path id="Vector (Stroke)" fill-rule="evenodd" clip-rule="evenodd" d="M1.05442 2.25443C1.72955 1.5793 2.64522 1.20001 3.6 1.20001H12C12.9548 1.20001 13.8705 1.5793 14.5456 2.25443C15.2207 2.92956 15.6 3.84523 15.6 4.80001V7.20001C15.6 7.86275 15.0627 8.40001 14.4 8.40001C13.7373 8.40001 13.2 7.86275 13.2 7.20001V4.80001C13.2 4.48175 13.0736 4.17653 12.8485 3.95148C12.6235 3.72644 12.3183 3.60001 12 3.60001H3.6C3.28174 3.60001 2.97652 3.72644 2.75147 3.95148C2.52643 4.17653 2.4 4.48175 2.4 4.80001V19.2C2.4 19.5183 2.52643 19.8235 2.75147 20.0485C2.97652 20.2736 3.28174 20.4 3.6 20.4H12C12.3183 20.4 12.6235 20.2736 12.8485 20.0485C13.0736 19.8235 13.2 19.5183 13.2 19.2V16.8C13.2 16.1373 13.7373 15.6 14.4 15.6C15.0627 15.6 15.6 16.1373 15.6 16.8V19.2C15.6 20.1548 15.2207 21.0705 14.5456 21.7456C13.8705 22.4207 12.9548 22.8 12 22.8H3.6C2.64522 22.8 1.72955 22.4207 1.05442 21.7456C0.379285 21.0705 0 20.1548 0 19.2V4.80001C0 3.84523 0.379284 2.92956 1.05442 2.25443ZM18.3515 7.55148C18.8201 7.08286 19.5799 7.08286 20.0485 7.55148L23.6485 11.1515C24.1172 11.6201 24.1172 12.3799 23.6485 12.8485L20.0485 16.4485C19.5799 16.9172 18.8201 16.9172 18.3515 16.4485C17.8828 15.9799 17.8828 15.2201 18.3515 14.7515L19.9029 13.2H8.4C7.73726 13.2 7.2 12.6628 7.2 12C7.2 11.3373 7.73726 10.8 8.4 10.8H19.9029L18.3515 9.24854C17.8828 8.77991 17.8828 8.02011 18.3515 7.55148Z" fill="#1B4539"/>
</g>
</svg>
