<svg width="24" height="24" viewBox="0 0 24 24" fill="none" xmlns="http://www.w3.org/2000/svg">
<g id="Menu">
<path id="Vector (Stroke)" fill-rule="evenodd" clip-rule="evenodd" d="M0 4.00001C0 3.26363 0.596954 2.66667 1.33333 2.66667H22.6667C23.403 2.66667 24 3.26363 24 4.00001C24 4.73638 23.403 5.33334 22.6667 5.33334H1.33333C0.596954 5.33334 0 4.73638 0 4.00001ZM0 12C0 11.2636 0.596954 10.6667 1.33333 10.6667H22.6667C23.403 10.6667 24 11.2636 24 12C24 12.7364 23.403 13.3333 22.6667 13.3333H1.33333C0.596954 13.3333 0 12.7364 0 12ZM0 20C0 19.2636 0.596954 18.6667 1.33333 18.6667H22.6667C23.403 18.6667 24 19.2636 24 20C24 20.7364 23.403 21.3333 22.6667 21.3333H1.33333C0.596954 21.3333 0 20.7364 0 20Z" fill="black"/>
</g>
</svg>
