<svg width="20" height="20" viewBox="0 0 20 20" fill="none" xmlns="http://www.w3.org/2000/svg">
<g id="Menu">
<path id="Vector (Stroke)" fill-rule="evenodd" clip-rule="evenodd" d="M0 3.33334C0 2.71969 0.497461 2.22223 1.11111 2.22223H18.8889C19.5025 2.22223 20 2.71969 20 3.33334C20 3.94699 19.5025 4.44445 18.8889 4.44445H1.11111C0.497461 4.44445 0 3.94699 0 3.33334ZM3.33333 10C3.33333 9.38636 3.8308 8.8889 4.44444 8.8889H18.8889C19.5025 8.8889 20 9.38636 20 10C20 10.6137 19.5025 11.1111 18.8889 11.1111H4.44444C3.8308 11.1111 3.33333 10.6137 3.33333 10ZM6.66667 16.6667C6.66667 16.053 7.16413 15.5556 7.77778 15.5556H18.8889C19.5025 15.5556 20 16.053 20 16.6667C20 17.2803 19.5025 17.7778 18.8889 17.7778H7.77778C7.16413 17.7778 6.66667 17.2803 6.66667 16.6667Z" fill="#1B4539"/>
</g>
</svg>
