<svg width="24" height="24" viewBox="0 0 24 24" fill="none" xmlns="http://www.w3.org/2000/svg">
<g id="Notif">
<path id="Vector (Stroke)" fill-rule="evenodd" clip-rule="evenodd" d="M12.0001 2.4C11.6818 2.4 11.3766 2.52643 11.1515 2.75147C10.9265 2.97652 10.8001 3.28174 10.8001 3.6C10.8001 4.06403 10.5325 4.48647 10.113 4.68483C8.93181 5.24338 7.92484 6.11283 7.20006 7.2C6.48028 8.27966 6.06575 9.53363 6.00006 10.8292V14.4C6.00006 14.4482 5.99716 14.4964 5.99137 14.5442C5.89506 15.3398 5.64054 16.1066 5.24432 16.8H18.7558C18.3596 16.1066 18.1051 15.3398 18.0088 14.5442C18.003 14.4964 18.0001 14.4482 18.0001 14.4V10.8292C17.9344 9.53364 17.5198 8.27967 16.8001 7.2C16.0753 6.11283 15.0683 5.24338 13.8871 4.68483C13.4676 4.48647 13.2001 4.06403 13.2001 3.6C13.2001 3.28174 13.0736 2.97652 12.8486 2.75147C12.6235 2.52643 12.3183 2.4 12.0001 2.4ZM14.4001 19.2H9.60006C9.60006 19.8365 9.85292 20.447 10.303 20.8971C10.7531 21.3471 11.3635 21.6 12.0001 21.6C12.6366 21.6 13.247 21.3471 13.6971 20.8971C14.1472 20.447 14.4001 19.8365 14.4001 19.2ZM7.20006 19.2C7.20006 20.473 7.70577 21.6939 8.60595 22.5941C9.50612 23.4943 10.727 24 12.0001 24C13.2731 24 14.494 23.4943 15.3942 22.5941C16.2943 21.6939 16.8001 20.473 16.8001 19.2H21.6001C22.1451 19.2 22.6216 18.8327 22.7605 18.3057C22.8993 17.7787 22.6656 17.2243 22.1914 16.9558C21.7009 16.6781 21.2825 16.2891 20.9699 15.8201C20.6697 15.3698 20.475 14.8578 20.4001 14.3224V10.8C20.4001 10.7812 20.3996 10.7625 20.3987 10.7437C20.3171 9.0035 19.7634 7.31828 18.797 5.86872C17.9564 4.60789 16.8312 3.56668 15.5161 2.82686C15.3696 2.16071 15.0355 1.54425 14.5456 1.05442C13.8705 0.379285 12.9548 0 12.0001 0C11.0453 0 10.1296 0.379285 9.45448 1.05442C8.96464 1.54425 8.63054 2.16071 8.48405 2.82686C7.16889 3.56668 6.04369 4.60789 5.20314 5.86872C4.23677 7.31828 3.68306 9.0035 3.60138 10.7437C3.6005 10.7625 3.60006 10.7812 3.60006 10.8V14.3224C3.52509 14.8578 3.33044 15.3698 3.03023 15.8201C2.71759 16.2891 2.2992 16.6781 1.80876 16.9558C1.33452 17.2243 1.10081 17.7787 1.23966 18.3057C1.37852 18.8327 1.85507 19.2 2.40006 19.2H7.20006Z" fill="#1B1B1F"/>
</g>
</svg>
