<svg width="24" height="24" viewBox="0 0 24 24" fill="none" xmlns="http://www.w3.org/2000/svg">
<g id="Open" clip-path="url(#clip0_22_826)">
<path id="Vector (Stroke)" fill-rule="evenodd" clip-rule="evenodd" d="M16 2.66667C15.2636 2.66667 14.6667 2.06971 14.6667 1.33333C14.6667 0.596954 15.2636 0 16 0H22.6667C23.403 0 24 0.596954 24 1.33333V8C24 8.73638 23.403 9.33333 22.6667 9.33333C21.9303 9.33333 21.3333 8.73638 21.3333 8V4.55229L11.6095 14.2761C11.0888 14.7968 10.2446 14.7968 9.72386 14.2761C9.20316 13.7554 9.20316 12.9112 9.72386 12.3905L19.4477 2.66667H16ZM1.17157 3.83824C1.92172 3.08809 2.93913 2.66667 4 2.66667H12C12.7364 2.66667 13.3333 3.26362 13.3333 4C13.3333 4.73638 12.7364 5.33333 12 5.33333H4C3.64638 5.33333 3.30724 5.47381 3.05719 5.72386C2.80714 5.97391 2.66667 6.31304 2.66667 6.66667V20C2.66667 20.3536 2.80714 20.6928 3.05719 20.9428C3.30724 21.1929 3.64638 21.3333 4 21.3333H17.3333C17.687 21.3333 18.0261 21.1929 18.2761 20.9428C18.5262 20.6928 18.6667 20.3536 18.6667 20V12C18.6667 11.2636 19.2636 10.6667 20 10.6667C20.7364 10.6667 21.3333 11.2636 21.3333 12V20C21.3333 21.0609 20.9119 22.0783 20.1618 22.8284C19.4116 23.5786 18.3942 24 17.3333 24H4C2.93913 24 1.92172 23.5786 1.17157 22.8284C0.421427 22.0783 0 21.0609 0 20V6.66667C0 5.6058 0.421427 4.58839 1.17157 3.83824Z" fill="#1B1B1F"/>
</g>
<defs>
<clipPath id="clip0_22_826">
<rect width="24" height="24" fill="white"/>
</clipPath>
</defs>
</svg>
