<svg width="24" height="24" viewBox="0 0 24 24" fill="none" xmlns="http://www.w3.org/2000/svg">
<path fill-rule="evenodd" clip-rule="evenodd" d="M8.68609 7.23028C9.56496 6.35141 10.757 5.85767 11.9999 5.85767C13.2428 5.85767 14.4348 6.35141 15.3137 7.23028C16.1925 8.10915 16.6863 9.30116 16.6863 10.5441C16.6863 11.787 16.1925 12.979 15.3137 13.8579C14.4348 14.7367 13.2428 15.2305 11.9999 15.2305C10.757 15.2305 9.56496 14.7367 8.68609 13.8579C7.80722 12.979 7.31348 11.787 7.31348 10.5441C7.31348 9.30116 7.80722 8.10915 8.68609 7.23028ZM11.9999 8.20087C11.3784 8.20087 10.7824 8.44774 10.343 8.88718C9.90355 9.32661 9.65668 9.92262 9.65668 10.5441C9.65668 11.1655 9.90355 11.7615 10.343 12.201C10.7824 12.6404 11.3784 12.8873 11.9999 12.8873C12.6213 12.8873 13.2173 12.6404 13.6568 12.201C14.0962 11.7615 14.3431 11.1655 14.3431 10.5441C14.3431 9.92262 14.0962 9.32661 13.6568 8.88718C13.2173 8.44774 12.6213 8.20087 11.9999 8.20087Z" fill="#1B4539"/>
<path fill-rule="evenodd" clip-rule="evenodd" d="M12 2.3432C10.378 2.3432 8.79235 2.82418 7.44368 3.72533C6.09501 4.62647 5.04384 5.9073 4.42309 7.40585C3.80235 8.9044 3.63992 10.5534 3.95633 12.1442C4.27273 13.735 5.05373 15.1963 6.20058 16.3433C6.20054 16.3432 6.20062 16.3433 6.20058 16.3433L11.1725 21.3141C11.3922 21.5335 11.69 21.6568 12.0006 21.6568C12.3111 21.6568 12.6089 21.5335 12.8286 21.3141L17.7993 16.3434C17.7993 16.3434 17.7993 16.3434 17.7993 16.3434C18.9462 15.1964 19.7272 13.7351 20.0436 12.1442C20.3601 10.5534 20.1976 8.9044 19.5769 7.40585C18.9561 5.9073 17.905 4.62647 16.5563 3.72533C15.2076 2.82418 13.622 2.3432 12 2.3432ZM6.14188 1.77702C7.87589 0.618405 9.91452 0 12 0C14.0854 0 16.1241 0.618405 17.8581 1.77702C19.5921 2.93563 20.9436 4.58241 21.7417 6.50912C22.5398 8.43582 22.7486 10.5559 22.3418 12.6013C21.935 14.6467 20.9308 16.5256 19.4562 18.0002L14.4851 22.9714C13.826 23.6298 12.9321 24 12.0006 24C11.069 24 10.1755 23.6302 9.51648 22.9718L4.54388 18.0004C3.06928 16.5257 2.06495 14.6467 1.65814 12.6013C1.25132 10.5559 1.46017 8.43582 2.25827 6.50912C3.05637 4.58241 4.40787 2.93563 6.14188 1.77702Z" fill="#1B4539"/>
</svg>
