<svg width="24" height="24" viewBox="0 0 24 24" fill="none" xmlns="http://www.w3.org/2000/svg">
<g id="Pin">
<path id="Vector" d="M19.4559 3.08836C21.3917 5.02398 22.4989 7.6366 22.5433 10.3738C22.5877 13.1109 21.5658 15.7581 19.6937 17.7554L19.4559 18.0015L14.4848 22.9713C13.8541 23.6017 13.0073 23.9687 12.1161 23.9981C11.2248 24.0275 10.3557 23.717 9.68485 23.1295L9.51614 22.9713L4.54393 18.0003C2.56648 16.0229 1.45557 13.3409 1.45557 10.5443C1.45557 7.7478 2.56648 5.06581 4.54393 3.08836C6.52138 1.11092 9.20337 0 11.9999 0C14.7964 0 17.4784 1.11092 19.4559 3.08836ZM11.9999 7.02958C11.5383 7.02958 11.0813 7.12049 10.6549 7.29712C10.2284 7.47375 9.84097 7.73265 9.51459 8.05903C9.18822 8.3854 8.92932 8.77287 8.75269 9.1993C8.57606 9.62572 8.48514 10.0828 8.48514 10.5443C8.48514 11.0059 8.57606 11.4629 8.75269 11.8894C8.92932 12.3158 9.18822 12.7033 9.51459 13.0296C9.84097 13.356 10.2284 13.6149 10.6549 13.7915C11.0813 13.9682 11.5383 14.0591 11.9999 14.0591C12.9321 14.0591 13.8261 13.6888 14.4852 13.0296C15.1444 12.3705 15.5147 11.4765 15.5147 10.5443C15.5147 9.61216 15.1444 8.71817 14.4852 8.05903C13.8261 7.39988 12.9321 7.02958 11.9999 7.02958Z" fill="black"/>
</g>
</svg>
