<svg width="24" height="24" viewBox="0 0 24 24" fill="none" xmlns="http://www.w3.org/2000/svg">
<g clip-path="url(#clip0_22_824)">
<path fill-rule="evenodd" clip-rule="evenodd" d="M5.85442 1.05442C6.52955 0.379284 7.44522 0 8.4 0H15.6C16.5548 0 17.4705 0.379285 18.1456 1.05442C18.8207 1.72955 19.2 2.64522 19.2 3.6V7.2H20.4C21.3548 7.2 22.2705 7.57929 22.9456 8.25442C23.6207 8.92955 24 9.84522 24 10.8V15.6C24 16.5548 23.6207 17.4705 22.9456 18.1456C22.2705 18.8207 21.3548 19.2 20.4 19.2H18C17.3373 19.2 16.8 18.6627 16.8 18C16.8 17.3373 17.3373 16.8 18 16.8H20.4C20.7183 16.8 21.0235 16.6736 21.2485 16.4485C21.4736 16.2235 21.6 15.9183 21.6 15.6V10.8C21.6 10.4817 21.4736 10.1765 21.2485 9.95147C21.0235 9.72643 20.7183 9.6 20.4 9.6H3.6C3.28174 9.6 2.97652 9.72643 2.75147 9.95147C2.52643 10.1765 2.4 10.4817 2.4 10.8V15.6C2.4 15.9183 2.52643 16.2235 2.75147 16.4485C2.97652 16.6736 3.28174 16.8 3.6 16.8H6C6.66274 16.8 7.2 17.3373 7.2 18C7.2 18.6627 6.66274 19.2 6 19.2H3.6C2.64522 19.2 1.72955 18.8207 1.05442 18.1456C0.379285 17.4705 0 16.5548 0 15.6V10.8C0 9.84522 0.379285 8.92955 1.05442 8.25442C1.72955 7.57929 2.64522 7.2 3.6 7.2H4.8V3.6C4.8 2.64522 5.17928 1.72955 5.85442 1.05442ZM7.2 7.2H16.8V3.6C16.8 3.28174 16.6736 2.97652 16.4485 2.75147C16.2235 2.52643 15.9183 2.4 15.6 2.4H8.4C8.08174 2.4 7.77652 2.52643 7.55147 2.75147C7.32643 2.97652 7.2 3.28174 7.2 3.6V7.2Z" fill="#1B1B1F"/>
<path fill-rule="evenodd" clip-rule="evenodd" d="M8.40005 14.4C8.08179 14.4 7.77656 14.5264 7.55152 14.7515C7.32648 14.9765 7.20005 15.2817 7.20005 15.6V20.4C7.20005 20.7183 7.32648 21.0235 7.55152 21.2485C7.77656 21.4736 8.08179 21.6 8.40005 21.6H15.6C15.9183 21.6 16.2235 21.4736 16.4486 21.2485C16.6736 21.0235 16.8 20.7183 16.8 20.4V15.6C16.8 15.2817 16.6736 14.9765 16.4486 14.7515C16.2235 14.5264 15.9183 14.4 15.6 14.4H8.40005ZM5.85446 13.0544C6.52959 12.3793 7.44527 12 8.40005 12H15.6C16.5548 12 17.4705 12.3793 18.1456 13.0544C18.8208 13.7295 19.2 14.6452 19.2 15.6V20.4C19.2 21.3548 18.8208 22.2705 18.1456 22.9456C17.4705 23.6207 16.5548 24 15.6 24H8.40005C7.44527 24 6.52959 23.6207 5.85446 22.9456C5.17933 22.2705 4.80005 21.3548 4.80005 20.4V15.6C4.80005 14.6452 5.17933 13.7295 5.85446 13.0544Z" fill="#1B1B1F"/>
</g>
<defs>
<clipPath id="clip0_22_824">
<rect width="24" height="24" fill="white"/>
</clipPath>
</defs>
</svg>
