<svg width="24" height="24" viewBox="0 0 24 24" fill="none" xmlns="http://www.w3.org/2000/svg">
<g id="Question">
<path id="Vector (Stroke)" fill-rule="evenodd" clip-rule="evenodd" d="M11.2468 2.99813C10.1846 2.99813 9.2037 3.36185 8.51235 3.95443C7.82814 4.5409 7.4991 5.28222 7.4991 5.99625C7.4991 6.82416 6.82795 7.49532 6.00004 7.49532C5.17213 7.49532 4.50098 6.82416 4.50098 5.99625C4.50098 4.32482 5.2775 2.7784 6.56119 1.67809C7.83774 0.583898 9.52593 0 11.2468 0H12.7458C14.4667 0 16.1548 0.583898 17.4314 1.67809C18.7041 2.76898 19.4783 4.29838 19.4914 5.95336C19.5552 7.2368 19.205 8.50721 18.4918 9.57703C17.7874 10.6336 16.7663 11.4386 15.5763 11.8772C15.0352 12.1483 14.4912 12.6823 14.0852 13.4944C13.6665 14.3317 13.4488 15.3629 13.494 16.426C13.5292 17.2531 12.8872 17.9522 12.06 17.9874C11.2328 18.0226 10.5338 17.3806 10.4986 16.5534C10.4334 15.0211 10.7407 13.4793 11.4036 12.1536C12.0654 10.8301 13.0777 9.73646 14.358 9.13616C14.4034 9.11488 14.4499 9.09589 14.4971 9.07926C15.1102 8.86368 15.6367 8.45471 15.9972 7.91397C16.3577 7.37322 16.5327 6.72999 16.4959 6.08114C16.4943 6.05287 16.4935 6.02456 16.4935 5.99625C16.4935 5.28222 16.1644 4.5409 15.4802 3.95443C14.7889 3.36185 13.808 2.99813 12.7458 2.99813H11.2468ZM11.9963 20.9869C12.8242 20.9869 13.4954 21.658 13.4954 22.4859V22.5009C13.4954 23.3288 12.8242 24 11.9963 24C11.1684 24 10.4972 23.3288 10.4972 22.5009V22.4859C10.4972 21.658 11.1684 20.9869 11.9963 20.9869Z" fill="#1B1B1F"/>
</g>
</svg>
