<svg width="24" height="24" viewBox="0 0 24 24" fill="none" xmlns="http://www.w3.org/2000/svg">
<g id="Route" clip-path="url(#clip0_288_8534)">
<path id="Vector (Stroke)" fill-rule="evenodd" clip-rule="evenodd" d="M16.8 1.2C16.8 0.537258 17.3373 0 18 0H22.8C23.4627 0 24 0.537258 24 1.2V6C24 6.66274 23.4627 7.2 22.8 7.2H18C17.3373 7.2 16.8 6.66274 16.8 6V1.2ZM19.2 2.4V4.8H21.6V2.4H19.2ZM11.8544 3.45442C12.5295 2.77928 13.4452 2.4 14.4 2.4C15.0627 2.4 15.6 2.93726 15.6 3.6C15.6 4.26274 15.0627 4.8 14.4 4.8C14.0817 4.8 13.7765 4.92643 13.5515 5.15147C13.3264 5.37652 13.2 5.68174 13.2 6V18C13.2 18.9548 12.8207 19.8705 12.1456 20.5456C11.4705 21.2207 10.5548 21.6 9.6 21.6C8.93726 21.6 8.4 21.0627 8.4 20.4C8.4 19.7373 8.93726 19.2 9.6 19.2C9.91826 19.2 10.2235 19.0736 10.4485 18.8485C10.6736 18.6235 10.8 18.3183 10.8 18V6C10.8 5.04522 11.1793 4.12955 11.8544 3.45442ZM0 18C0 17.3373 0.537258 16.8 1.2 16.8H6C6.66274 16.8 7.2 17.3373 7.2 18V22.8C7.2 23.4627 6.66274 24 6 24H1.2C0.537258 24 0 23.4627 0 22.8V18ZM2.4 19.2V21.6H4.8V19.2H2.4Z" fill="#1B4539"/>
</g>
<defs>
<clipPath id="clip0_288_8534">
<rect width="24" height="24" fill="white"/>
</clipPath>
</defs>
</svg>
