<svg width="24" height="24" viewBox="0 0 24 24" fill="none" xmlns="http://www.w3.org/2000/svg">
<g id="Search">
<path id="Vector (Stroke)" fill-rule="evenodd" clip-rule="evenodd" d="M5.92624 0.730756C7.09097 0.248311 8.33931 0 9.6 0C10.8607 0 12.109 0.248311 13.2738 0.730756C14.4385 1.2132 15.4968 1.92033 16.3882 2.81177C17.2797 3.70322 17.9868 4.76151 18.4692 5.92624C18.9517 7.09097 19.2 8.33931 19.2 9.6C19.2 10.8607 18.9517 12.109 18.4692 13.2738C18.1406 14.0671 17.7078 14.811 17.1835 15.4865L23.6485 21.9515C24.1172 22.4201 24.1172 23.1799 23.6485 23.6485C23.1799 24.1172 22.4201 24.1172 21.9515 23.6485L15.4865 17.1835C14.811 17.7078 14.0671 18.1406 13.2738 18.4692C12.109 18.9517 10.8607 19.2 9.6 19.2C8.33931 19.2 7.09097 18.9517 5.92624 18.4692C4.76151 17.9868 3.70322 17.2797 2.81177 16.3882C1.92033 15.4968 1.2132 14.4385 0.730757 13.2738C0.248312 12.109 0 10.8607 0 9.6C0 8.33931 0.248312 7.09097 0.730757 5.92624C1.2132 4.76151 1.92033 3.70322 2.81177 2.81177C3.70322 1.92033 4.76151 1.2132 5.92624 0.730756ZM9.6 2.4C8.65448 2.4 7.71822 2.58623 6.84468 2.94807C5.97114 3.3099 5.17741 3.84025 4.50883 4.50883C3.84025 5.17741 3.3099 5.97114 2.94807 6.84468C2.58623 7.71822 2.4 8.65448 2.4 9.6C2.4 10.5455 2.58623 11.4818 2.94807 12.3553C3.3099 13.2289 3.84025 14.0226 4.50883 14.6912C5.17741 15.3598 5.97114 15.8901 6.84468 16.2519C7.71822 16.6138 8.65448 16.8 9.6 16.8C10.5455 16.8 11.4818 16.6138 12.3553 16.2519C13.2289 15.8901 14.0226 15.3598 14.6912 14.6912C15.3598 14.0226 15.8901 13.2289 16.2519 12.3553C16.6138 11.4818 16.8 10.5455 16.8 9.6C16.8 8.65448 16.6138 7.71822 16.2519 6.84468C15.8901 5.97114 15.3598 5.17741 14.6912 4.50883C14.0226 3.84025 13.2289 3.3099 12.3553 2.94807C11.4818 2.58623 10.5455 2.4 9.6 2.4Z" fill="#1B1B1F"/>
</g>
</svg>
