<svg width="41" height="41" viewBox="0 0 41 41" fill="none" xmlns="http://www.w3.org/2000/svg">
<g id="tabler-icon-thumb-up">
<path id="Vector" d="M12.1667 19.1271V32.4605C12.1667 32.9025 11.9911 33.3264 11.6785 33.639C11.366 33.9515 10.942 34.1271 10.5 34.1271H7.16667C6.72464 34.1271 6.30072 33.9515 5.98816 33.639C5.67559 33.3264 5.5 32.9025 5.5 32.4605V20.7938C5.5 20.3518 5.67559 19.9278 5.98816 19.6153C6.30072 19.3027 6.72464 19.1271 7.16667 19.1271H12.1667ZM12.1667 19.1271C13.9348 19.1271 15.6305 18.4247 16.8807 17.1745C18.131 15.9243 18.8333 14.2286 18.8333 12.4605V10.7938C18.8333 9.90973 19.1845 9.06188 19.8096 8.43676C20.4348 7.81164 21.2826 7.46045 22.1667 7.46045C23.0507 7.46045 23.8986 7.81164 24.5237 8.43676C25.1488 9.06188 25.5 9.90973 25.5 10.7938V19.1271H30.5C31.3841 19.1271 32.2319 19.4783 32.857 20.1034C33.4822 20.7286 33.8333 21.5764 33.8333 22.4605L32.1667 30.7938C31.927 31.8163 31.4723 32.6942 30.8711 33.2954C30.2699 33.8966 29.5547 34.1885 28.8333 34.1271H17.1667C15.8406 34.1271 14.5688 33.6003 13.6311 32.6627C12.6935 31.725 12.1667 30.4532 12.1667 29.1271" stroke="white" stroke-width="2" stroke-linecap="round" stroke-linejoin="round"/>
</g>
</svg>
