<svg width="41" height="41" viewBox="0 0 41 41" fill="none" xmlns="http://www.w3.org/2000/svg">
<g id="tabler-icon-home-shield">
<path id="Vector" d="M15.5 35.7939V25.7939C15.5 24.9099 15.8512 24.062 16.4763 23.4369C17.1014 22.8118 17.9493 22.4606 18.8333 22.4606H21.0683M33.3033 18.5973L20.5 5.79395L5.5 20.7939H8.83333V32.4606C8.83333 33.3447 9.18452 34.1925 9.80964 34.8176C10.4348 35.4427 11.2826 35.7939 12.1667 35.7939H20.5M37.1667 27.4606C37.1667 34.1273 33 37.4606 31.3333 37.4606C29.6667 37.4606 25.5 34.1273 25.5 27.4606C27.1667 27.4606 29.6667 26.6273 31.3333 24.9606C33 26.6273 35.5 27.4606 37.1667 27.4606Z" stroke="white" stroke-width="2" stroke-linecap="round" stroke-linejoin="round"/>
</g>
</svg>
