<svg width="41" height="41" viewBox="0 0 41 41" fill="none" xmlns="http://www.w3.org/2000/svg">
<g id="tabler-icon-user-shield">
<path id="Vector" d="M10.5 35.7939V32.4606C10.5 30.6925 11.2024 28.9968 12.4526 27.7466C13.7029 26.4963 15.3986 25.7939 17.1667 25.7939H20.5M37.1667 27.4606C37.1667 34.1273 33 37.4606 31.3333 37.4606C29.6667 37.4606 25.5 34.1273 25.5 27.4606C27.1667 27.4606 29.6667 26.6273 31.3333 24.9606C33 26.6273 35.5 27.4606 37.1667 27.4606ZM13.8333 12.4606C13.8333 14.2287 14.5357 15.9244 15.786 17.1747C17.0362 18.4249 18.7319 19.1273 20.5 19.1273C22.2681 19.1273 23.9638 18.4249 25.214 17.1747C26.4643 15.9244 27.1667 14.2287 27.1667 12.4606C27.1667 10.6925 26.4643 8.99681 25.214 7.74657C23.9638 6.49632 22.2681 5.79395 20.5 5.79395C18.7319 5.79395 17.0362 6.49632 15.786 7.74657C14.5357 8.99681 13.8333 10.6925 13.8333 12.4606Z" stroke="white" stroke-width="2" stroke-linecap="round" stroke-linejoin="round"/>
</g>
</svg>
