<svg width="41" height="41" viewBox="0 0 41 41" fill="none" xmlns="http://www.w3.org/2000/svg">
<g id="tabler-icon-credit-card">
<path id="Vector" d="M5.5 17.4608H35.5M12.1667 25.7941H12.1833M18.8333 25.7941H22.1667M5.5 14.1274C5.5 12.8014 6.02678 11.5296 6.96447 10.5919C7.90215 9.65423 9.17392 9.12744 10.5 9.12744H30.5C31.8261 9.12744 33.0979 9.65423 34.0355 10.5919C34.9732 11.5296 35.5 12.8014 35.5 14.1274V27.4608C35.5 28.7869 34.9732 30.0586 34.0355 30.9963C33.0979 31.934 31.8261 32.4608 30.5 32.4608H10.5C9.17392 32.4608 7.90215 31.934 6.96447 30.9963C6.02678 30.0586 5.5 28.7869 5.5 27.4608V14.1274Z" stroke="white" stroke-width="2" stroke-linecap="round" stroke-linejoin="round"/>
</g>
</svg>
