<svg width="24" height="24" viewBox="0 0 24 24" fill="none" xmlns="http://www.w3.org/2000/svg">
<g id="user">
<path id="Vector (Stroke)" fill-rule="evenodd" clip-rule="evenodd" d="M4.15736 1.75736C5.28257 0.63214 6.8087 0 8.39999 0C9.99129 0 11.5174 0.63214 12.6426 1.75736C13.7678 2.88258 14.4 4.4087 14.4 5.99999C14.4 7.59129 13.7678 9.11741 12.6426 10.2426C11.5174 11.3678 9.99129 12 8.39999 12C6.8087 12 5.28257 11.3678 4.15736 10.2426C3.03214 9.11741 2.4 7.59129 2.4 5.99999C2.4 4.4087 3.03214 2.88258 4.15736 1.75736ZM8.39999 2.4C7.44521 2.4 6.52954 2.77928 5.85441 3.45441C5.17928 4.12954 4.8 5.04522 4.8 5.99999C4.8 6.95477 5.17928 7.87045 5.85441 8.54558C6.52954 9.22071 7.44521 9.59999 8.39999 9.59999C9.35477 9.59999 10.2704 9.22071 10.9456 8.54558C11.6207 7.87045 12 6.95477 12 5.99999C12 5.04522 11.6207 4.12954 10.9456 3.45441C10.2704 2.77928 9.35477 2.4 8.39999 2.4ZM15.6375 1.05835C15.8019 0.416322 16.4556 0.0291142 17.0976 0.1935C18.3883 0.523951 19.5322 1.27455 20.3491 2.32696C21.166 3.37938 21.6094 4.67374 21.6094 6.00599C21.6094 7.33825 21.166 8.63261 20.3491 9.68503C19.5322 10.7374 18.3883 11.488 17.0976 11.8185C16.4556 11.9829 15.8019 11.5957 15.6375 10.9536C15.4731 10.3116 15.8603 9.65788 16.5023 9.49349C17.2767 9.29522 17.9631 8.84486 18.4532 8.21341C18.9434 7.58196 19.2094 6.80535 19.2094 6.00599C19.2094 5.20664 18.9434 4.43002 18.4532 3.79858C17.9631 3.16713 17.2767 2.71677 16.5023 2.5185C15.8603 2.35411 15.4731 1.70038 15.6375 1.05835ZM5.99999 16.8C5.04522 16.8 4.12954 17.1793 3.45441 17.8544C2.77928 18.5295 2.4 19.4452 2.4 20.4V22.8C2.4 23.4627 1.86274 24 1.2 24C0.537258 24 0 23.4627 0 22.8V20.4C0 18.8087 0.63214 17.2826 1.75736 16.1573C2.88257 15.0321 4.4087 14.4 5.99999 14.4H10.8C12.3913 14.4 13.9174 15.0321 15.0426 16.1573C16.1678 17.2826 16.8 18.8087 16.8 20.4V22.8C16.8 23.4627 16.2627 24 15.6 24C14.9372 24 14.4 23.4627 14.4 22.8V20.4C14.4 19.4452 14.0207 18.5295 13.3456 17.8544C12.6704 17.1793 11.7548 16.8 10.8 16.8H5.99999ZM18.0381 15.48C18.2038 14.8383 18.8583 14.4524 19.5 14.6181C20.7822 14.9491 21.9189 15.6951 22.7329 16.7397C23.5468 17.7843 23.9923 19.0688 24 20.3931L24 20.4L24 22.8C24 23.4627 23.4627 24 22.8 24C22.1372 24 21.6 23.4627 21.6 22.8V20.4036C21.5947 19.6102 21.3274 18.8407 20.8397 18.2148C20.3514 17.5881 19.6693 17.1405 18.9 16.9419C18.2583 16.7762 17.8724 16.1217 18.0381 15.48Z" fill="#1B1B1F"/>
</g>
</svg>
