<svg width="24" height="24" viewBox="0 0 24 24" fill="none" xmlns="http://www.w3.org/2000/svg">
<g id="User">
<path id="Vector (Stroke)" fill-rule="evenodd" clip-rule="evenodd" d="M7.75746 1.75736C8.88268 0.632141 10.4088 0 12.0001 0C13.5914 0 15.1175 0.632141 16.2427 1.75736C17.368 2.88258 18.0001 4.4087 18.0001 6C18.0001 7.5913 17.368 9.11742 16.2427 10.2426C15.1175 11.3679 13.5914 12 12.0001 12C10.4088 12 8.88268 11.3679 7.75746 10.2426C6.63224 9.11742 6.0001 7.5913 6.0001 6C6.0001 4.4087 6.63224 2.88258 7.75746 1.75736ZM12.0001 2.4C11.0453 2.4 10.1296 2.77928 9.45451 3.45442C8.77938 4.12955 8.4001 5.04522 8.4001 6C8.4001 6.95478 8.77938 7.87045 9.45451 8.54559C10.1296 9.22072 11.0453 9.6 12.0001 9.6C12.9549 9.6 13.8706 9.22072 14.5457 8.54559C15.2208 7.87045 15.6001 6.95478 15.6001 6C15.6001 5.04522 15.2208 4.12955 14.5457 3.45442C13.8706 2.77928 12.9549 2.4 12.0001 2.4ZM9.6001 16.8C8.64532 16.8 7.72964 17.1793 7.05451 17.8544C6.37938 18.5295 6.0001 19.4452 6.0001 20.4V22.8C6.0001 23.4627 5.46284 24 4.8001 24C4.13736 24 3.6001 23.4627 3.6001 22.8V20.4C3.6001 18.8087 4.23224 17.2826 5.35746 16.1574C6.48267 15.0321 8.0088 14.4 9.6001 14.4H14.4001C15.9914 14.4 17.5175 15.0321 18.6427 16.1574C19.768 17.2826 20.4001 18.8087 20.4001 20.4V22.8C20.4001 23.4627 19.8628 24 19.2001 24C18.5374 24 18.0001 23.4627 18.0001 22.8V20.4C18.0001 19.4452 17.6208 18.5295 16.9457 17.8544C16.2705 17.1793 15.3549 16.8 14.4001 16.8H9.6001Z" fill="#0C0C0C"/>
</g>
</svg>
