<svg width="24" height="24" viewBox="0 0 24 24" fill="none" xmlns="http://www.w3.org/2000/svg">
<path fill-rule="evenodd" clip-rule="evenodd" d="M11.5027 0.702936C11.9528 0.252854 12.5633 0 13.1998 0C13.8363 0 14.4467 0.252854 14.8968 0.702936C15.3469 1.15302 15.5998 1.76346 15.5998 2.39997C15.5998 3.03649 15.3469 3.64693 14.8968 4.09701C14.4467 4.54709 13.8363 4.79995 13.1998 4.79995C12.5633 4.79995 11.9528 4.54709 11.5027 4.09701C11.0527 3.64693 10.7998 3.03649 10.7998 2.39997C10.7998 1.76346 11.0527 1.15302 11.5027 0.702936ZM12.1971 6.01626C12.8508 6.12521 13.2924 6.74348 13.1835 7.3972L12.085 13.988L15.2483 17.1513C15.3395 17.2425 15.4154 17.3478 15.4731 17.4632L17.873 22.2631C18.1694 22.8559 17.9292 23.5767 17.3364 23.873C16.7436 24.1694 16.0228 23.9292 15.7264 23.3364L13.4136 18.7106L9.95129 15.2484C9.67726 14.9743 9.55244 14.5848 9.61615 14.2026L10.8161 7.00264C10.9251 6.34893 11.5434 5.90731 12.1971 6.01626ZM10.3198 17.0398C10.85 17.4375 10.9575 18.1896 10.5598 18.7198L6.95985 23.5197C6.56221 24.0499 5.81006 24.1574 5.27987 23.7597C4.74968 23.3621 4.64223 22.6099 5.03987 22.0798L8.63983 17.2798C9.03747 16.7496 9.78963 16.6422 10.3198 17.0398Z" fill="#1B1B1F"/>
<path fill-rule="evenodd" clip-rule="evenodd" d="M11.7088 6.03576C12.1178 5.93353 12.5504 6.05335 12.8484 6.3514L16.2481 9.75105L19.5793 10.8615C20.208 11.071 20.5478 11.7506 20.3382 12.3793C20.1286 13.0081 19.4491 13.3479 18.8203 13.1383L15.2204 11.9383C15.0436 11.8794 14.8831 11.7801 14.7513 11.6484L11.6318 8.52886L7.94105 9.45155L5.79842 12.6655C5.4308 13.2169 4.68576 13.3659 4.13433 12.9983C3.58291 12.6307 3.4339 11.8857 3.80152 11.3342L6.20149 7.73427C6.36708 7.48589 6.6193 7.30815 6.9089 7.23575L11.7088 6.03576Z" fill="#1B1B1F"/>
</svg>
