<svg width="24" height="24" viewBox="0 0 24 24" fill="none" xmlns="http://www.w3.org/2000/svg">
<g id="Wallet" clip-path="url(#clip0_288_8884)">
<path id="Vector (Stroke)" fill-rule="evenodd" clip-rule="evenodd" d="M1.17157 1.17157C1.92172 0.421427 2.93913 0 4 0H17.3333C18.0406 0 18.7189 0.280952 19.219 0.781049C19.7191 1.28115 20 1.95942 20 2.66667V5.33333C20.7072 5.33333 21.3855 5.61429 21.8856 6.11438C22.3857 6.61448 22.6667 7.29276 22.6667 8V10.6667C23.403 10.6667 24 11.2636 24 12V17.3333C24 18.0697 23.403 18.6667 22.6667 18.6667V21.3333C22.6667 22.0406 22.3857 22.7189 21.8856 23.219C21.3855 23.7191 20.7072 24 20 24H4C2.93913 24 1.92172 23.5786 1.17157 22.8284C0.421427 22.0783 0 21.0609 0 20V4C0 2.93913 0.421427 1.92172 1.17157 1.17157ZM2.66667 7.77124V20C2.66667 20.3536 2.80714 20.6928 3.05719 20.9428C3.30724 21.1929 3.64638 21.3333 4 21.3333H20V18.6667H17.3333C16.2725 18.6667 15.2551 18.2452 14.5049 17.4951C13.7548 16.7449 13.3333 15.7275 13.3333 14.6667C13.3333 13.6058 13.7548 12.5884 14.5049 11.8382C15.2551 11.0881 16.2725 10.6667 17.3333 10.6667H20V8H4C3.54141 8 3.09094 7.92125 2.66667 7.77124ZM17.3333 5.33333H4C3.64638 5.33333 3.30724 5.19286 3.05719 4.94281C2.80714 4.69276 2.66667 4.35362 2.66667 4C2.66667 3.64638 2.80714 3.30724 3.05719 3.05719C3.30724 2.80714 3.64638 2.66667 4 2.66667L17.3333 2.66667L17.3333 5.33333ZM21.3333 13.3333H17.3333C16.9797 13.3333 16.6406 13.4738 16.3905 13.7239C16.1405 13.9739 16 14.313 16 14.6667C16 15.0203 16.1405 15.3594 16.3905 15.6095C16.6406 15.8595 16.9797 16 17.3333 16H21.3333V13.3333Z" fill="#1B4539"/>
</g>
<defs>
<clipPath id="clip0_288_8884">
<rect width="24" height="24" fill="white"/>
</clipPath>
</defs>
</svg>
