<svg width="16" height="16" viewBox="0 0 16 16" fill="none" xmlns="http://www.w3.org/2000/svg">
<g id="Warning" clip-path="url(#clip0_2339_378)">
<path id="Vector" d="M0.770876 15.015C0.627981 15.015 0.498077 14.9792 0.381163 14.9075C0.264249 14.8358 0.173316 14.7417 0.108364 14.6253C0.0434118 14.5084 0.00755822 14.3816 0.000803189 14.2449C-0.00595184 14.1083 0.0299018 13.9753 0.108364 13.8459L7.31806 1.37506C7.396 1.24516 7.49681 1.14773 7.62047 1.08278C7.74414 1.01783 7.87067 0.985352 8.00006 0.985352C8.12996 0.985352 8.25675 1.01783 8.38041 1.08278C8.50408 1.14773 8.60463 1.24516 8.68205 1.37506L15.8917 13.8459C15.9697 13.9758 16.0055 14.1091 15.9993 14.2457C15.9931 14.3824 15.9572 14.5089 15.8917 14.6253C15.8268 14.7422 15.7359 14.8365 15.6189 14.9082C15.502 14.9799 15.3721 15.0155 15.2292 15.015H0.770876ZM2.11539 13.4562H13.8847L8.00006 3.32363L2.11539 13.4562ZM8.00006 12.6767C8.22089 12.6767 8.40614 12.6019 8.55579 12.4523C8.70544 12.3026 8.78 12.1176 8.77948 11.8973C8.77948 11.6765 8.70466 11.4912 8.55501 11.3416C8.40536 11.1919 8.22037 11.1174 8.00006 11.1179C7.77922 11.1179 7.59397 11.1927 7.44432 11.3424C7.29467 11.492 7.22011 11.677 7.22063 11.8973C7.22063 12.1182 7.29545 12.3034 7.4451 12.453C7.59475 12.6027 7.77974 12.6773 8.00006 12.6767ZM8.00006 10.3385C8.22089 10.3385 8.40614 10.2636 8.55579 10.114C8.70544 9.96434 8.78 9.77936 8.77948 9.55904V7.22076C8.77948 6.99992 8.70466 6.81468 8.55501 6.66503C8.40536 6.51538 8.22037 6.44082 8.00006 6.44134C7.77922 6.44134 7.59397 6.51616 7.44432 6.66581C7.29467 6.81546 7.22011 7.00044 7.22063 7.22076V9.55904C7.22063 9.77988 7.29545 9.96512 7.4451 10.1148C7.59475 10.2644 7.77974 10.339 8.00006 10.3385Z" fill="#FD6318"/>
</g>
<defs>
<clipPath id="clip0_2339_378">
<rect width="16" height="16" fill="white"/>
</clipPath>
</defs>
</svg>
