<svg width="24" height="24" viewBox="0 0 24 24" fill="none" xmlns="http://www.w3.org/2000/svg">
<g clip-path="url(#clip0_22_818)">
<path d="M11.9993 0L12.7697 0.00600014L13.5089 0.0264001L13.8677 0.0420001L14.5625 0.0828L15.2261 0.138C20.8505 0.684 23.2061 2.9376 23.8253 8.4252L23.8613 8.7732L23.9165 9.4368L23.9657 10.3092L23.9729 10.4892L23.9933 11.2296L23.9993 12L23.9933 12.7704L23.9729 13.5096L23.9573 13.8684L23.9165 14.5632L23.8613 15.2268C23.3153 20.8512 21.0617 23.2068 15.5741 23.826L15.2261 23.862L14.5625 23.9172L13.6901 23.9664L13.5101 23.9736L12.7697 23.994L11.9993 24L11.2289 23.994L10.4897 23.9736L10.1309 23.958L9.43609 23.9172L8.77249 23.862C3.14809 23.316 0.792488 21.0624 0.173288 15.5748L0.137288 15.2268L0.0820884 14.5632L0.0328885 13.6908L0.0256885 13.5108L0.00528851 12.7704L0.000488281 12.3888V11.6112L0.00528851 11.2296L0.0256885 10.4904L0.0412885 10.1316L0.0820884 9.4368L0.137288 8.7732C0.683288 3.1488 2.93689 0.7932 8.42449 0.174L8.77249 0.138L9.43609 0.0828L10.3085 0.0336001L10.4885 0.0264001L11.2289 0.00600014C11.4809 0.00240014 11.7377 0 11.9993 0ZM12.0113 15.6L11.8589 15.6084C11.5672 15.6431 11.2984 15.7835 11.1034 16.0032C10.9083 16.2228 10.8006 16.5063 10.8006 16.8C10.8006 17.0937 10.9083 17.3772 11.1034 17.5968C11.2984 17.8165 11.5672 17.9569 11.8589 17.9916L11.9993 18L12.1517 17.9916C12.4433 17.9569 12.7122 17.8165 12.9072 17.5968C13.1022 17.3772 13.2099 17.0937 13.2099 16.8C13.2099 16.5063 13.1022 16.2228 12.9072 16.0032C12.7122 15.7835 12.4433 15.6431 12.1517 15.6084L12.0113 15.6ZM11.9993 6C11.7054 6.00004 11.4217 6.10795 11.202 6.30326C10.9824 6.49857 10.8421 6.7677 10.8077 7.0596L10.7993 7.2V12L10.8077 12.1404C10.8424 12.4321 10.9828 12.7009 11.2024 12.8959C11.4221 13.0909 11.7056 13.1987 11.9993 13.1987C12.293 13.1987 12.5765 13.0909 12.7961 12.8959C13.0157 12.7009 13.1562 12.4321 13.1909 12.1404L13.1993 12V7.2L13.1909 7.0596C13.1565 6.7677 13.0162 6.49857 12.7965 6.30326C12.5769 6.10795 12.2932 6.00004 11.9993 6Z" fill="#1B1B1F"/>
</g>
<defs>
<clipPath id="clip0_22_818">
<rect width="24" height="24" fill="white"/>
</clipPath>
</defs>
</svg>
