<svg width="178" height="165" viewBox="0 0 178 165" fill="none" xmlns="http://www.w3.org/2000/svg">
<path d="M70.2071 57.9609C60.3395 66.0938 34.6967 95.3298 33.3833 97.3469C29.9487 102.64 26.98 128.392 42.3043 124.774C57.6285 121.156 74.7072 78.0033 79.8615 63.3779C82.5973 55.6265 78.2607 51.3246 70.2071 57.9609Z" fill="#C7C7C7"/>
<path opacity="0.1" d="M47.6226 122.093C61.3955 111.685 75.2875 76.3331 79.8372 63.3778C81.5074 58.6547 80.5459 55.2052 77.716 54.7443L47.6226 122.093Z" fill="black"/>
<path d="M35.8764 70.2817C34.112 66.9958 10.417 76.3925 12.33 81.537C19.328 100.37 29.3839 118.296 33.0465 121.85C37.8489 126.509 45.3772 123.807 47.6769 119.867C50.8686 114.356 37.6259 73.5378 35.8764 70.2817Z" fill="#D3766A"/>
<path d="M17.5737 85.5266C20.592 86.8796 36.6547 72.9927 35.9112 69.6671C35.2372 66.6935 34.8606 57.832 36.8281 51.4386C38.4735 46.0662 41.5364 38.2802 38.6767 37.284C34.5186 35.8269 29.4683 45.2138 26.8961 50.7695C24.9484 48.0685 23.0155 45.9274 21.4444 45.0899C16.191 42.3144 0.812198 64.2055 3.22086 69.7514C5.52049 75.1089 14.5505 84.1786 17.5737 85.5266Z" fill="#D3766A"/>
<path d="M31.9943 40.3071L28.1445 37.5793L16.1445 54.515L19.9943 57.2428L31.9943 40.3071Z" fill="#C7C7C7"/>
<path d="M12.7018 69.6473L6.87842 65.5189L17.5142 50.5069L23.3376 54.6304L12.7018 69.6473Z" fill="#263238"/>
<path d="M28.6654 50.9975C28.254 54.0554 24.8839 51.8202 24.8839 51.8202C24.8839 51.8202 28.9627 56.2113 27.3173 59.2048C25.7215 62.0843 21.7417 59.2345 21.4543 59.0363C21.6674 59.2692 25.3101 63.4026 23.3475 66.2375C21.3056 69.2112 17.8016 65.6428 17.5786 65.4098C17.7124 65.6973 19.3975 69.4887 17.415 71.3026C14.0102 74.425 9.43079 64.8597 5.85249 63.7545C5.85249 63.7545 3.30506 69.6027 3.19602 69.7563C3.19602 69.7563 -1.34871 60.7362 0.400786 55.9933C0.643938 55.3003 1.11653 54.7113 1.74027 54.3237C2.36401 53.9361 3.10145 53.7733 3.8304 53.8621C3.8304 53.8621 2.04125 51.1165 3.51817 48.8317C4.27645 47.6621 6.82388 47.8405 6.82388 47.8405C6.82388 47.8405 5.48574 45.5805 6.92796 43.6328C8.06786 42.0716 10.4468 42.4929 10.4468 42.4929C10.4468 42.4929 10.1643 39.7274 11.8494 38.528C15.2344 36.0599 29.5426 44.4406 28.6654 50.9975Z" fill="#D3766A"/>
<path d="M10.8334 42.4978C10.8263 42.4976 10.8194 42.4956 10.8133 42.4922C10.8071 42.4887 10.8019 42.4838 10.798 42.4779C10.7941 42.4721 10.7916 42.4653 10.7908 42.4583C10.79 42.4513 10.7909 42.4442 10.7934 42.4376C10.7958 42.431 10.7999 42.4251 10.8051 42.4203C10.8103 42.4156 10.8166 42.4121 10.8234 42.4102C10.8302 42.4084 10.8373 42.4082 10.8443 42.4096C10.8512 42.411 10.8576 42.4141 10.8631 42.4185C16.2355 44.0243 21.6476 47.4391 25.0772 51.9194C25.1912 52.068 25.0029 52.3159 24.8443 52.1771C20.4284 48.232 16.1909 45.0849 10.8334 42.4978Z" fill="#263238"/>
<path d="M6.76965 47.7662C6.71513 47.7662 6.76965 47.6423 6.82417 47.6621C12.3552 49.3521 18.3421 53.3616 21.6924 58.9917C21.8064 59.185 21.6924 59.4873 21.5636 59.2643C19.0558 55.686 11.6068 50.0856 6.76965 47.7662Z" fill="#263238"/>
<path d="M17.6776 65.8856C14.2579 60.6124 9.49505 56.9647 4.06317 53.9167C3.99379 53.877 4.06318 53.7779 4.12265 53.7977C7.18551 54.561 10.4466 56.8655 12.8305 58.8678C15.0802 60.6894 16.8144 63.0678 17.8609 65.7667C17.9006 65.8757 17.7469 65.9996 17.6776 65.8856Z" fill="#263238"/>
<path d="M24.9883 51.8153C25.1221 51.9937 24.7157 51.9937 24.8446 52.1771C25.3897 52.9354 28.2692 57.7923 26.9162 59.2891C25.8358 60.4835 23.4767 59.8541 22.6639 59.2593L20.622 57.7725L22.0196 59.8937C22.6453 60.8296 23.1156 61.8606 23.4122 62.9467C23.6848 64.0122 23.6749 65.1422 23.1099 65.96C22.8651 66.3748 22.4862 66.6937 22.0356 66.864C21.585 67.0343 21.0899 67.0459 20.6319 66.8967C19.6058 66.5339 18.6896 65.9145 17.9705 65.0976L15.9137 62.9169L17.1378 65.6378C17.48 66.3969 17.7248 67.1962 17.8664 68.0167C18.0272 68.7878 17.9583 69.5891 17.6681 70.3213C17.5234 70.6461 17.2908 70.924 16.9966 71.1237C16.7024 71.3234 16.3582 71.4368 16.0029 71.4513C15.2055 71.3621 14.4496 71.0495 13.8222 70.5493C12.4515 69.4826 11.1656 68.3111 9.97628 67.0453C9.35181 66.4258 8.72734 65.8063 8.07314 65.2116C7.45002 64.5781 6.69782 64.0862 5.86768 63.7694C6.64317 64.1714 7.33326 64.7201 7.89967 65.3851C8.50432 66.0194 9.07427 66.6835 9.64918 67.3675C10.7769 68.7441 12.0314 70.0118 13.396 71.154C14.1225 71.7852 15.0189 72.1885 15.9732 72.3137C16.5008 72.3282 17.0211 72.1876 17.4695 71.9092C17.9179 71.6308 18.2748 71.2269 18.4958 70.7475C18.8865 69.8497 18.9987 68.8552 18.8179 67.8928C18.6767 66.9775 18.4168 66.0845 18.0448 65.2364L17.2171 65.7419C18.0539 66.7185 19.1297 67.4613 20.3395 67.8978C21.0178 68.1184 21.7515 68.0974 22.4161 67.8383C23.0584 67.5629 23.6025 67.1 23.9772 66.5101C24.3079 65.9365 24.5128 65.2993 24.5786 64.6405C24.6444 63.9818 24.5695 63.3166 24.3589 62.6889C24.018 61.4972 23.4821 60.3701 22.7729 59.3535L22.1286 59.973C23.1843 60.6966 25.7466 61.6878 27.6646 60.0424C29.8205 57.5197 25.7912 52.6529 24.9883 51.8153Z" fill="#263238"/>
<path d="M24.8838 51.8202C25.4724 52.0608 26.094 52.2112 26.7275 52.2663C26.981 52.2945 27.2376 52.2542 27.4703 52.1496C27.703 52.045 27.9035 51.8799 28.0507 51.6715C28.3117 51.1719 28.4219 50.6071 28.3679 50.0459C28.3382 49.4215 28.2738 48.7722 28.1845 48.0982C28.5934 48.6525 28.8836 49.2852 29.037 49.9567C29.1396 50.3222 29.1687 50.7044 29.1228 51.0813C29.0769 51.4581 28.9567 51.8221 28.7694 52.1523C28.5256 52.4995 28.1789 52.7614 27.7781 52.9007C27.4003 53.0191 26.9969 53.0294 26.6135 52.9304C25.934 52.7526 25.3284 52.3639 24.8838 51.8202Z" fill="#263238"/>
<path d="M38.9047 74.9156L12.2905 94.1948C12.2905 94.1948 29.1016 123.882 37.071 124.888C42.3889 125.557 49.0945 124.016 48.8467 113.905C48.5989 103.795 38.9047 74.9156 38.9047 74.9156Z" fill="#C7C7C7"/>
<path d="M41.3429 82.8206C42.2301 84.6116 42.9806 86.4672 43.588 88.3714C44.2472 90.2498 44.8518 92.1381 45.3821 94.0561C46.433 97.9253 47.2212 101.861 47.7412 105.837C48.0435 108.057 48.2368 110.297 48.5094 112.513C48.5094 112.523 48.5052 112.533 48.4978 112.541C48.4904 112.548 48.4803 112.552 48.4698 112.552C48.4592 112.552 48.4492 112.548 48.4417 112.541C48.4343 112.533 48.4301 112.523 48.4301 112.513C48.212 110.53 47.8651 108.548 47.4835 106.615C47.1019 104.682 46.6806 102.685 46.2048 100.737C45.2731 96.9157 44.272 93.1095 43.1618 89.3379C42.8496 88.2822 42.5274 87.2266 42.1706 86.1808C41.8137 85.1351 41.447 84.0101 41.1793 82.895C41.1744 82.7958 41.2933 82.7314 41.3429 82.8206Z" fill="#263238"/>
<path d="M39.6826 82.8305C38.9343 83.2468 38.2404 83.7722 37.5416 84.2578L35.3659 85.7447C33.879 86.7359 32.4467 87.7767 30.9995 88.8125C28.1052 90.8792 25.2108 92.936 22.3561 95.0522C21.5681 95.6321 20.785 96.2169 20.0168 96.8215C19.2486 97.4262 18.4458 98.1448 17.633 98.7742C17.5834 98.8089 17.633 98.8783 17.6974 98.8436C18.4309 98.348 19.1842 97.9218 19.9376 97.4311C20.6909 96.9405 21.4244 96.4399 22.1777 95.9047C23.6315 94.8804 25.077 93.8462 26.5143 92.8021C29.3442 90.7454 32.189 88.6985 34.9743 86.5823L37.3037 84.803C38.1165 84.1835 38.9789 83.5987 39.7322 82.9098C39.7718 82.8751 39.7322 82.7958 39.6826 82.8305Z" fill="#263238"/>
<path d="M63.7188 148.456C63.358 149.732 64.3168 151 65.643 151H104.422C104.764 149.655 105.092 148.329 105.415 147.024C105.793 145.518 106.165 144.057 106.523 142.632C106.602 142.31 106.687 141.994 106.766 141.678L107.566 138.485C107.725 137.853 107.884 137.235 108.033 136.618C108.182 136 108.351 135.378 108.5 134.776C108.544 134.62 108.579 134.459 108.624 134.304C108.669 134.148 108.708 133.962 108.748 133.802C108.788 133.641 108.852 133.385 108.907 133.179L109.071 132.537C109.175 132.135 109.275 131.739 109.369 131.352C109.513 130.775 109.657 130.212 109.791 129.67C109.851 129.429 109.915 129.168 109.97 128.957C110.069 128.576 110.164 128.204 110.253 127.838C110.318 127.592 110.377 127.336 110.432 127.12C110.68 126.163 110.909 125.261 111.117 124.414C111.172 124.194 111.227 123.978 111.286 123.762C111.376 123.395 111.465 123.049 111.545 122.708C111.604 122.497 111.659 122.286 111.704 122.085C111.887 121.367 112.056 120.71 112.2 120.127C112.245 119.977 112.28 119.826 112.319 119.686C112.414 119.299 112.503 118.963 112.578 118.682C112.608 118.556 112.632 118.441 112.662 118.335C112.692 118.23 112.722 118.099 112.747 117.999C112.772 117.899 112.786 117.853 112.801 117.788C112.816 117.723 112.856 117.587 112.876 117.502C112.896 117.417 112.876 117.412 112.906 117.376C112.97 117.125 113 117 113 117H72.6861C72.6861 117 71.3549 121.623 69.209 129.083L67.8132 133.982C66.6122 138.244 65.2186 143.152 63.7188 148.456Z" fill="#37474F"/>
<path d="M97.8325 150.788H98.8634C100.393 144.461 101.88 138.119 103.324 131.762C103.671 130.216 104.013 128.668 104.35 127.118C104.384 126.974 104.414 126.831 104.444 126.687C104.474 126.543 104.345 126.573 104.325 126.652L104.285 126.796C103.819 128.456 103.349 130.122 102.898 131.787C101.143 138.114 99.4548 144.448 97.8325 150.788Z" fill="#263238"/>
<path d="M74.2368 117.186L76.0111 126.072L77.4682 133.348L79.9462 145.773L80.199 147.047L80.6252 149.168L80.9424 150.774H104.603C104.94 149.44 105.277 148.132 105.594 146.848C105.971 145.362 106.342 143.919 106.699 142.512C106.779 142.195 106.863 141.882 106.942 141.57L107.74 138.418C107.899 137.794 108.057 137.184 108.206 136.574C108.355 135.965 108.523 135.35 108.672 134.755C108.716 134.602 108.751 134.443 108.796 134.29C108.84 134.136 108.88 133.953 108.92 133.794C108.959 133.635 109.024 133.383 109.078 133.179L109.242 132.545C109.346 132.149 109.445 131.757 109.539 131.375C109.683 130.805 109.827 130.25 109.96 129.715C110.025 129.472 110.084 129.22 110.139 129.011C110.238 128.635 110.332 128.268 110.421 127.906C110.486 127.663 110.545 127.411 110.6 127.197C110.847 126.252 111.075 125.362 111.284 124.526C111.338 124.308 111.393 124.095 111.452 123.882C111.541 123.52 111.631 123.178 111.71 122.841C111.769 122.633 111.824 122.425 111.868 122.226C112.052 121.518 112.22 120.869 112.364 120.294C112.409 120.145 112.443 119.996 112.483 119.857C112.577 119.476 112.666 119.144 112.741 118.866C112.77 118.742 112.795 118.628 112.825 118.524C112.855 118.42 112.884 118.291 112.909 118.192C112.934 118.093 112.949 118.049 112.964 117.984C112.979 117.92 113.018 117.786 113.038 117.702C113.058 117.617 113.038 117.612 113.068 117.578C113.132 117.33 113.162 117.206 113.162 117.206L74.2368 117.186Z" fill="#263238"/>
<path d="M74 117.02C74 117.241 74.1651 119.666 74.5602 123.37C74.6703 124.448 74.8003 125.635 74.9554 126.908C75.1905 128.913 75.4906 131.128 75.8558 133.469C76.4761 137.553 77.2914 141.989 78.3569 146.359C78.732 147.928 79.1472 149.481 79.5874 151H132C131.385 142.981 130.814 135.759 130.369 130.056C129.739 122.037 129.339 117 129.339 117H81.7884L74 117.02Z" fill="#37474F"/>
<path d="M74.3408 121.949C74.3953 123.807 74.4746 125.661 74.5985 127.515C74.7224 129.497 74.9058 131.519 75.1685 133.521C75.1685 133.596 75.1685 133.665 75.1685 133.74C75.4163 135.613 75.6971 137.483 76.011 139.35C76.3084 141.089 76.5066 142.963 77.2996 144.574C77.5904 145.195 78.0033 145.751 78.5138 146.209C78.9828 146.636 79.5551 146.933 80.1741 147.071C80.2769 147.096 80.3812 147.112 80.4864 147.121H80.5756C80.5558 147.132 80.5397 147.149 80.5291 147.169C80.5186 147.189 80.5141 147.212 80.5161 147.235C80.5161 147.854 80.5161 148.489 80.5905 149.108C80.5905 149.108 80.5905 149.163 80.5905 149.188C80.6549 149.728 80.754 150.258 80.8531 150.793H81.7452C81.7452 150.793 81.7452 150.793 81.7452 150.764C81.5916 150.179 81.4578 149.584 81.314 148.994C81.1703 148.405 80.9572 147.8 80.8184 147.185C80.8184 147.161 80.7937 147.146 80.7788 147.126C81.344 147.154 81.9044 147.009 82.384 146.708C82.8636 146.408 83.2392 145.967 83.46 145.446C83.6837 144.65 83.6974 143.81 83.4997 143.007C83.3411 141.942 83.1825 140.881 83.0041 139.816C82.7017 137.863 82.3102 135.93 81.9633 133.987C81.9088 133.695 81.8592 133.393 81.8047 133.1C81.1108 129.135 80.3823 125.17 79.5051 121.275C79.4753 121.111 79.4357 120.948 79.401 120.779C79.3663 120.611 79.2027 120.7 79.2127 120.804C79.2374 121.067 79.2672 121.334 79.2969 121.592C79.4489 123.099 79.629 124.597 79.8371 126.087C80.0899 127.842 80.2584 129.606 80.5062 131.361C80.5905 131.96 80.6747 132.555 80.7639 133.155C81.1654 136.039 81.5866 138.929 82.0773 141.803C82.3102 143.136 83.1428 145.53 81.2199 145.946C80.7794 146.042 80.3197 145.984 79.9164 145.783C79.0661 145.271 78.4304 144.468 78.1273 143.523C77.6549 141.951 77.3134 140.343 77.1063 138.715C76.7957 136.958 76.5165 135.197 76.2687 133.432C75.9582 131.225 75.6278 129.023 75.2775 126.826C75.109 125.706 74.9306 124.586 74.7522 123.466L74.4994 121.909C74.5143 121.8 74.3408 121.83 74.3408 121.949Z" fill="#263238"/>
<path d="M120.303 135.747C118.14 135.726 115.987 135.436 113.895 134.884C112.929 134.637 111.977 134.329 111.031 134.017C110.091 133.759 109.212 133.317 108.443 132.719C106.986 131.465 106.307 129.487 105.678 127.728C104.985 125.748 104.423 123.725 103.998 121.671C103.998 121.567 103.829 121.602 103.824 121.696C103.774 124.02 104.068 126.338 104.697 128.575C105.217 130.473 105.921 132.595 107.457 133.928C109.068 135.325 111.264 135.816 113.325 136.074C115.647 136.343 117.995 136.31 120.308 135.975C120.339 135.974 120.367 135.961 120.388 135.94C120.409 135.918 120.421 135.888 120.42 135.858C120.419 135.828 120.407 135.799 120.385 135.778C120.363 135.757 120.334 135.746 120.303 135.747Z" fill="#263238"/>
<path d="M123.897 121.731C124.012 124.635 124.135 127.544 124.263 130.459C124.561 137.232 124.891 144.005 125.255 150.779H126.246C125.8 143.989 125.329 137.2 124.833 130.414C124.619 127.513 124.399 124.614 124.174 121.716C124.172 121.679 124.156 121.645 124.128 121.62C124.101 121.595 124.065 121.583 124.028 121.585C123.991 121.587 123.957 121.603 123.932 121.631C123.907 121.658 123.895 121.694 123.897 121.731Z" fill="#263238"/>
<path d="M65.291 138.681L133.759 133.348C133.759 133.348 120.413 80.8728 93.6993 53.0593C87.5389 46.6461 80.2187 51.2899 76.69 55.235C67.7344 65.2711 65.0779 138.458 65.291 138.681Z" fill="#C7C7C7"/>
<path d="M132.198 127.708L65.4941 132.302C65.5371 131.311 65.5883 130.207 65.6478 128.992L131.207 124.482C131.554 125.661 131.886 126.741 132.198 127.708Z" fill="#DBDBDB"/>
<path d="M130.295 121.676L65.7617 126.137C65.8212 125.083 65.8823 123.979 65.9451 122.826L129.224 118.48C129.608 119.59 129.965 120.655 130.295 121.676Z" fill="#DBDBDB"/>
<path d="M100.975 59.6657C115.387 78.6822 139.449 128.233 142.987 135.494C145.386 140.45 119.069 153.47 117.954 149.867C116.522 145.257 92.9854 84.4462 89.7045 62.2875C87.8757 50.1698 95.969 53.089 100.975 59.6657Z" fill="#D3766A"/>
<path d="M117.226 147.418C117.841 151.904 120.938 160.929 123.248 162.287C125.557 163.645 137.665 163.372 143.771 163.372C149.877 163.372 151.081 161.697 150.977 159.635C150.873 157.573 138.066 157.157 138.066 157.157C138.066 157.157 155.18 161.974 159.482 162.762C163.784 163.55 173.701 166.004 175.133 162.5C175.782 160.919 173.066 159.318 173.066 159.318C173.066 159.318 177.229 160.512 177.889 158.48C178.642 156.171 175.336 154.897 175.336 154.897C175.336 154.897 177.933 155.393 177.998 153.529C178.127 149.316 161.856 147.245 161.856 147.245C161.856 147.245 174.315 153.192 174.742 149.767C175.297 145.01 149.758 139.796 147.101 137.724C145.17 136.142 143.36 134.416 141.689 132.56L117.226 147.418Z" fill="#D3766A"/>
<path d="M150.887 160.696C150.929 160.401 150.898 160.101 150.797 159.821C150.696 159.541 150.528 159.29 150.308 159.09C149.868 158.694 149.366 158.374 148.821 158.143C147.69 157.668 146.519 157.295 145.322 157.028C142.913 156.428 140.45 156.002 137.992 155.383C140.529 155.343 143.062 155.623 145.53 156.215C146.785 156.498 147.996 156.951 149.128 157.563C149.703 157.883 150.209 158.314 150.615 158.832C150.819 159.092 150.952 159.401 151 159.728C151.048 160.055 151.009 160.388 150.887 160.696Z" fill="#263238"/>
<path d="M173.066 159.353C171.307 158.931 169.597 158.446 167.838 157.95C166.078 157.454 164.368 156.959 162.663 156.428L157.509 154.843C155.789 154.312 154.07 153.792 152.335 153.281C154.136 153.474 155.923 153.787 157.683 154.218C159.447 154.615 161.187 155.11 162.911 155.626C164.636 156.141 166.356 156.711 168.046 157.34C169.736 157.97 171.421 158.624 173.066 159.353Z" fill="#263238"/>
<path d="M156.483 149.084C158.149 149.189 159.805 149.413 161.439 149.753C163.069 150.074 164.68 150.483 166.266 150.977C167.844 151.454 169.393 152.022 170.905 152.677C172.432 153.321 173.912 154.069 175.336 154.917C173.76 154.382 172.228 153.792 170.662 153.276C169.096 152.761 167.55 152.236 165.974 151.765C164.398 151.294 162.827 150.823 161.246 150.367C159.665 149.911 158.069 149.51 156.483 149.084Z" fill="#263238"/>
<path d="M158.986 145.074C161.665 145.284 164.305 145.84 166.841 146.729C169.39 147.552 171.82 148.707 174.067 150.164C171.54 149.282 169.081 148.345 166.564 147.522C164.046 146.7 161.538 145.882 158.986 145.074Z" fill="#263238"/>
<path d="M145.084 133.903L114.391 146.407C114.391 146.407 90.6465 80.0353 88.4758 64.8647C86.305 49.6941 90.6465 47.2557 101.193 59.2593C111.74 71.263 145.084 133.903 145.084 133.903Z" fill="#C7C7C7"/>
<path d="M139.915 128.144C139.097 128.377 138.299 128.724 137.501 129.026L135.023 129.958C133.358 130.587 131.702 131.247 130.067 131.911C126.766 133.239 123.465 134.557 120.194 135.94C119.292 136.322 118.395 136.703 117.503 137.105C116.611 137.506 115.664 138.022 114.733 138.443C114.673 138.468 114.733 138.552 114.772 138.527C115.6 138.225 116.452 137.987 117.285 137.685C118.118 137.382 118.98 137.055 119.818 136.723C121.47 136.062 123.122 135.401 124.774 134.741C128.01 133.407 131.251 132.089 134.458 130.687L137.139 129.507C138.076 129.101 139.057 128.729 139.949 128.238C139.962 128.234 139.972 128.224 139.977 128.212C139.983 128.2 139.984 128.186 139.979 128.174C139.974 128.161 139.965 128.151 139.953 128.146C139.941 128.14 139.927 128.139 139.915 128.144Z" fill="#263238"/>
<path d="M111.303 137.699C109.298 132.459 107.367 127.192 105.51 121.899C103.641 116.611 101.842 111.298 100.058 105.975C98.2738 100.653 96.5887 95.3099 94.9581 89.9425C93.3276 84.575 91.7664 79.1778 90.458 73.7212L91.7367 77.7307L93.05 81.7253L95.7065 89.7343L101.01 105.693C102.764 111.016 104.523 116.339 106.243 121.676C107.963 127.014 109.658 132.357 111.303 137.699Z" fill="#263238"/>
<path d="M92.5496 80.8728C92.1977 80.57 91.8877 80.2217 91.6278 79.837C91.3641 79.461 91.1273 79.0668 90.919 78.6575C90.4942 77.8405 90.1919 76.9655 90.022 76.0605C90.2795 76.4388 90.5161 76.8309 90.7307 77.2351C90.9537 77.6316 91.152 78.033 91.3601 78.4345C91.7517 79.2373 92.1432 80.0353 92.5496 80.8728Z" fill="#263238"/>
<path d="M89.6648 34.8754C89.6648 34.8754 89.4764 39.1525 89.858 40.6343C90.2397 42.1162 93.5801 43.6724 93.5801 43.6724C93.5801 43.6724 89.7788 45.0205 88.6983 44.7628C87.6179 44.5051 85.8733 41.7346 85.8733 41.7346C85.8733 41.7346 87.4791 46.1703 89.0254 46.4032C89.982 46.547 86.6713 46.5817 86.6713 46.5817C85.5739 46.5062 84.5431 46.0278 83.7769 45.2386C82.637 43.9648 89.6648 34.8754 89.6648 34.8754Z" fill="#263238"/>
<path d="M78.3552 65.0134C82.4638 64.9787 87.6776 57.4157 89.1298 51.969C89.2289 51.5972 84.6296 38.761 83.9804 36.1095C83.8515 35.5643 68.3984 44.1879 68.3984 44.1879C68.3984 44.1879 71.3721 49.3174 72.4823 53.9266C72.5715 54.3281 74.3854 65.0431 78.3552 65.0134Z" fill="#D3766A"/>
<path d="M68.3984 44.2027C68.3984 44.2027 71.3721 49.3323 72.4872 53.9414C72.4872 54.0306 72.621 54.6997 72.8391 55.6711C80.5359 53.0147 84.362 46.9533 86.1363 42.8348C85.1451 39.9256 84.2431 37.1898 83.9853 36.1243C83.8466 35.5841 68.3984 44.2027 68.3984 44.2027Z" fill="#263238"/>
<path d="M89.4519 18.1287C91.3997 24.1355 88.4954 41.6404 84.2579 45.6004C78.1173 51.3395 67.9028 52.0433 62.9914 44.6389C58.2186 37.4625 62.4065 14.719 67.1545 11.106C74.1426 5.78312 86.6022 9.25239 89.4519 18.1287Z" fill="#D3766A"/>
<path d="M73.2556 28.1499C73.7818 28.1285 74.3063 28.0772 74.8267 27.9963C75.3869 28.0205 75.9394 27.8584 76.3978 27.5354C76.5242 27.4062 76.6037 27.2383 76.6235 27.0586C76.6432 26.8789 76.6021 26.6978 76.5068 26.5442C76.0657 25.9098 75.3074 25.8057 74.5789 25.8553C73.8367 25.8772 73.1295 26.1759 72.5964 26.6928C72.4802 26.818 72.4036 26.9747 72.3761 27.1433C72.3486 27.3119 72.3714 27.4848 72.4418 27.6404C72.5122 27.796 72.627 27.9274 72.7718 28.018C72.9165 28.1087 73.0849 28.1546 73.2556 28.1499Z" fill="#263238"/>
<path d="M66.4806 27.9616C66.4806 27.917 66.3765 28.0013 66.3715 28.0508C66.2129 29.2353 65.8313 30.5685 64.6964 30.7816C64.6617 30.7816 64.6567 30.851 64.6964 30.851C66.0296 30.8857 66.5202 29.1114 66.4806 27.9616Z" fill="#263238"/>
<path d="M65.6276 26.5541C63.7542 26.0932 62.9761 29.8796 64.7107 30.3009C66.4454 30.7222 67.1987 26.9407 65.6276 26.5541Z" fill="#263238"/>
<path d="M64.3889 23.3673C64.9086 23.4625 65.4331 23.5303 65.96 23.5705C66.5021 23.7216 67.0791 23.6885 67.6004 23.4764C67.7533 23.3793 67.8691 23.2337 67.9293 23.063C67.9896 22.8922 67.9907 22.7062 67.9325 22.5347C67.65 21.8161 66.9413 21.5435 66.2078 21.4245C65.4823 21.2816 64.7295 21.4142 64.0965 21.7962C63.9562 21.8915 63.8468 22.0256 63.7815 22.1821C63.7163 22.3386 63.6981 22.5107 63.7291 22.6774C63.7601 22.8441 63.839 22.9981 63.9562 23.1206C64.0734 23.2432 64.2237 23.3289 64.3889 23.3673Z" fill="#263238"/>
<path d="M72.9431 40.0545C72.611 40.2874 72.269 40.6195 71.8329 40.5848C71.3964 40.5065 70.981 40.3377 70.6137 40.0892C70.6066 40.0837 70.5977 40.0808 70.5887 40.0809C70.5797 40.0811 70.571 40.0843 70.5641 40.0901C70.5571 40.0959 70.5524 40.1038 70.5506 40.1127C70.5488 40.1215 70.5501 40.1307 70.5542 40.1387C70.6836 40.3998 70.8815 40.6207 71.1269 40.7779C71.3722 40.935 71.6557 41.0225 71.9469 41.0308C72.1978 41.0071 72.4361 40.9098 72.6318 40.7511C72.8276 40.5923 72.9721 40.3793 73.0471 40.1387C73.0769 40.0644 72.9877 40.0247 72.9431 40.0545Z" fill="#263238"/>
<path d="M72.2887 36.3176C71.9116 36.7333 71.453 37.0671 70.9414 37.2982C70.4299 37.5292 69.8763 37.6526 69.315 37.6607C68.8236 37.6722 68.3329 37.6138 67.8579 37.4872C67.7649 37.469 67.6736 37.4425 67.5853 37.4079L67.3326 37.3237C67.2713 37.3019 67.2191 37.2604 67.1841 37.2056C67.1491 37.1509 67.1333 37.086 67.1393 37.0213C67.1427 36.9803 67.1528 36.9402 67.169 36.9024V36.7983C67.2929 35.8864 67.6101 34.5185 67.6101 34.5185C67.2533 34.6275 65.4344 35.1083 65.5385 34.6375C66.4256 30.7469 67.4119 26.4203 69.1168 22.7428C69.126 22.7152 69.1458 22.6924 69.1718 22.6794C69.1978 22.6664 69.2279 22.6642 69.2555 22.6734C69.2831 22.6826 69.306 22.7024 69.319 22.7285C69.332 22.7545 69.3341 22.7846 69.3249 22.8122C68.6212 26.5838 67.2582 30.2067 66.49 33.9882C67.1354 33.8087 67.8027 33.7203 68.4725 33.7255C68.5964 33.785 67.8133 36.3572 67.7885 36.7735V36.8181C69.2754 37.2691 70.5144 36.9966 72.1648 36.2184C72.2936 36.1391 72.3729 36.2333 72.2887 36.3176Z" fill="#263238"/>
<path d="M76.8335 29.3493C76.4948 29.1851 76.1343 29.0699 75.763 29.0073C75.3812 28.9445 74.9924 28.9361 74.6083 28.9826C74.2038 29.0367 73.8135 29.168 73.4585 29.3691C73.096 29.5862 72.7876 29.8828 72.5564 30.2365L72.1401 30.8758H72.9083C73.4534 30.8644 73.9981 30.9092 74.5339 31.0096C75.0912 31.0999 75.6164 31.3301 76.0604 31.6787C75.7911 31.1066 75.3092 30.6621 74.7173 30.4397C74.1351 30.1956 73.5099 30.0709 72.8786 30.0729L73.2305 30.6974C73.6035 30.1907 74.1387 29.8269 74.747 29.6665C75.4265 29.4737 76.1275 29.3672 76.8335 29.3493Z" fill="#263238"/>
<path d="M74.4104 32.1991C73.8477 32.0192 73.3111 31.7659 72.8146 31.4458C72.7006 31.3565 72.2644 30.9799 72.319 30.8857C72.403 30.6062 72.5247 30.3394 72.6808 30.0927C72.4522 30.3061 72.27 30.5642 72.1455 30.851C72.1708 31.0171 72.2323 31.1755 72.3256 31.3151C72.419 31.4547 72.5419 31.5721 72.6857 31.6589C73.2028 31.9882 73.7979 32.1746 74.4104 32.1991Z" fill="#263238"/>
<path d="M89.1643 34.6077C86.0122 33.3984 85.3382 22.4009 85.3382 22.4009L84.1834 28.3085C82.7699 26.8895 81.6677 25.1915 80.9471 23.3227C80.283 21.3403 80.7786 18.6888 81.2048 17.4051C81.2048 17.4051 77.1358 20.0666 72.9033 20.7852C71.3471 21.0528 61.5043 20.3639 61.5539 19.6651C61.7373 17.5935 65.3701 10.7689 68.3586 9.10367C71.7981 7.18566 79.6833 4.94551 86.146 8.11245C91.3152 10.6401 90.4281 14.7338 91.34 17.7322C91.34 17.7322 94.953 21.2015 95.0026 22.8221C95.1017 26.2964 90.324 35.0538 89.1643 34.6077Z" fill="#263238"/>
<path d="M73.2208 35.8022C71.9565 35.3574 70.9202 34.4292 70.3395 33.2213C69.7588 32.0134 69.681 30.6244 70.1232 29.3592C70.4358 28.466 70.9929 27.6784 71.7311 27.0862C72.4693 26.494 73.3588 26.1208 74.2986 26.0093C75.2384 25.8977 76.1906 26.0522 77.0469 26.4551C77.9032 26.858 78.6293 27.4932 79.1424 28.2884C79.6554 29.0836 79.935 30.0069 79.9492 30.9532C79.9635 31.8995 79.7118 32.8307 79.2229 33.641C78.7339 34.4513 78.0273 35.108 77.1835 35.5365C76.3397 35.965 75.3926 36.1481 74.4499 36.0648C74.0306 36.0303 73.6175 35.942 73.2208 35.8022ZM70.7427 29.5823C70.4564 30.4 70.4189 31.2842 70.6351 32.1232C70.8512 32.9622 71.3113 33.7183 71.9571 34.2959C72.6029 34.8734 73.4055 35.2466 74.2633 35.3681C75.1212 35.4896 75.9958 35.354 76.7766 34.9785C77.5574 34.603 78.2093 34.0044 78.6499 33.2584C79.0906 32.5125 79.3002 31.6526 79.2522 30.7875C79.2042 29.9224 78.9008 29.091 78.3803 28.3984C77.8599 27.7057 77.1458 27.1829 76.3282 26.8961C75.9838 26.7756 75.626 26.6974 75.2627 26.6631C74.2925 26.5812 73.3225 26.8233 72.5046 27.3515C71.6867 27.8797 71.0671 28.6643 70.7427 29.5823Z" fill="#FFC727"/>
<path d="M62.991 33.6462C60.9392 33.3241 59.6259 30.8213 60.057 28.0657C60.2337 26.8172 60.7949 25.6548 61.6628 24.7401C62.0109 24.324 62.4608 24.0051 62.9688 23.8145C63.4767 23.6238 64.0254 23.568 64.5613 23.6523C65.0972 23.7366 65.6022 23.9583 66.0271 24.2957C66.4519 24.6331 66.7822 25.0748 66.9856 25.5777C67.5274 26.7157 67.7006 27.9943 67.4813 29.2353C67.0699 31.8422 65.2362 33.7553 63.3033 33.6958C63.1982 33.686 63.0939 33.6695 62.991 33.6462ZM62.1386 25.2209C61.3673 26.0393 60.8732 27.0797 60.7261 28.1945C60.3494 30.5834 61.415 32.7393 63.0951 33.002C64.7752 33.2646 66.4504 31.5399 66.8271 29.156C67.0226 28.0544 66.8683 26.9193 66.386 25.9098C66.2134 25.514 65.9482 25.1655 65.6126 24.8938C65.2771 24.6221 64.8811 24.4351 64.458 24.3486C64.3727 24.3357 64.2866 24.3274 64.2003 24.3238C63.8136 24.3212 63.4305 24.3992 63.0755 24.5528C62.7206 24.7064 62.4015 24.9322 62.1386 25.2159V25.2209Z" fill="#FFC727"/>
<path d="M70.1429 29.9639L70.6732 29.5476C70.0537 28.7596 68.4925 27.5651 67.0156 28.596L67.4072 29.1461C68.7304 28.2094 70.0884 29.8945 70.1429 29.9639Z" fill="#FFC727"/>
<path d="M91.9395 35.8121L92.5888 35.6336C92.5045 35.3264 91.7215 32.66 90.2892 32.1049C88.956 31.6093 79.9111 30.5883 79.5245 30.5437L79.4502 31.2178C82.0472 31.5052 89.0204 32.3428 90.0513 32.7343C90.9929 33.0961 91.7314 35.0786 91.9395 35.8121Z" fill="#FFC727"/>
<path d="M85.6903 33.2944C85.6903 33.2944 89.6056 27.6295 92.1778 29.0222C94.75 30.4149 91.8259 38.6122 88.8225 39.7472C88.4472 39.919 88.041 40.0134 87.6284 40.0245C87.2157 40.0357 86.805 39.9634 86.4209 39.8121C86.0369 39.6608 85.6873 39.4335 85.3931 39.1439C85.0989 38.8543 84.8663 38.5082 84.709 38.1265L85.6903 33.2944Z" fill="#D3766A"/>
<path d="M91.2808 31.3516C91.2913 31.3516 91.3014 31.3557 91.3088 31.3632C91.3163 31.3706 91.3204 31.3807 91.3204 31.3912C91.3204 31.4017 91.3163 31.4118 91.3088 31.4192C91.3014 31.4267 91.2913 31.4309 91.2808 31.4309C89.1744 32.2932 88.0742 34.2558 87.3159 36.2878C87.9404 35.5048 88.8027 35.0686 89.8435 35.7922C89.898 35.8319 89.8435 35.9161 89.7841 35.9062C89.4132 35.7894 89.0152 35.7905 88.6451 35.9095C88.2749 36.0284 87.9507 36.2593 87.7174 36.5703C87.3283 37.0936 86.996 37.6568 86.7261 38.2504C86.627 38.4388 86.285 38.3397 86.3544 38.1216V38.077C86.3247 35.4056 88.3963 31.6341 91.2808 31.3516Z" fill="#263238"/>
<path d="M72.621 54.6403L77.6811 63.3481L88.198 48.8565L92.2421 52.2068C92.2421 52.2068 83.1328 73.3793 82.9346 72.502L77.6217 65.0134L72.3731 71.7784L71.4414 57.1431L72.621 54.6403Z" fill="#EBEBEB"/>
<path d="M71.3374 57.3017C71.3374 57.2125 71.4861 57.1481 71.496 57.2521C71.8429 59.9334 72.403 69.3301 72.5913 70.9755L72.6161 70.9458C72.8143 70.6584 77.5722 64.944 77.6217 64.9985C78.7022 66.178 82.5778 71.5802 82.8752 72.0956C84.2183 68.7106 90.0417 56.5087 91.7565 53.2377C91.7644 53.2167 91.7803 53.1996 91.8008 53.1903C91.8212 53.181 91.8445 53.1802 91.8655 53.1881C91.8866 53.196 91.9036 53.2119 91.9129 53.2324C91.9222 53.2528 91.923 53.2761 91.9151 53.2972C90.8148 56.816 83.3312 73.2801 83.1825 73.2603C83.0933 73.3495 78.2759 66.6638 77.6118 65.3306C76.9229 66.5299 72.1998 72.8737 72.1601 72.5169C71.8875 70.4056 71.3374 59.5617 71.3374 57.3017Z" fill="#263238"/>
<path d="M29.1116 35.2173C29.5617 35.6393 30.0494 36.0192 30.5687 36.3523C30.6876 36.4316 30.8165 36.5059 30.9454 36.5803C31.0742 36.6546 31.1733 36.7141 31.2923 36.7736L31.5351 36.9024L35.1977 38.7064C34.864 38.5461 34.5411 38.3639 34.2313 38.1613C33.9642 37.9914 33.7061 37.8078 33.4581 37.6111C33.2252 37.4327 32.9972 37.2345 32.7692 37.0263C27.2085 31.8422 27.5901 21.0528 33.6217 12.9298C38.2705 6.66033 44.9116 3.80562 50.2642 5.19828C50.9303 5.36721 51.5766 5.60644 52.1921 5.91196L48.5296 4.10299C48.52 4.09914 48.5094 4.09914 48.4998 4.10299C48.3462 4.01874 48.1827 3.94936 48.0042 3.87997C47.8258 3.81058 47.7267 3.76102 47.583 3.71146L47.3897 3.64207L47.0626 3.53305L46.8742 3.47853C43.6082 2.522 39.8267 3.19107 36.3079 5.27263L35.7726 5.59973C33.5074 7.0726 31.5305 8.94705 29.9393 11.1307C23.9325 19.2538 23.5459 30.0432 29.1116 35.2173Z" fill="#37474F"/>
<path d="M55.5127 33.334C49.3821 41.5909 40.2926 44.7975 33.7059 41.5562L30.0483 39.7472C36.6052 42.9934 45.6997 39.7819 51.8551 31.525C58.9225 21.9945 59.3686 9.32671 52.8464 3.24558C52.3176 2.75224 51.7453 2.30768 51.1365 1.91735C50.7721 1.68326 50.3949 1.46981 50.0065 1.27802L53.6641 3.08203C54.0507 3.28028 54.4323 3.49339 54.804 3.72633C55.4103 4.11798 55.9809 4.56245 56.5089 5.05455C63.0311 11.1406 62.5851 23.8183 55.5127 33.334Z" fill="#37474F"/>
<path d="M27.2232 37.7796C27.7515 38.2714 28.322 38.7159 28.9281 39.1079C29.3727 39.3923 29.8363 39.6456 30.3158 39.8661C30.3304 39.8699 30.3458 39.8699 30.3604 39.8661C30.5636 39.9603 30.7619 40.0446 30.9651 40.1239C31.089 40.1784 31.2079 40.218 31.3368 40.2626C33.0855 40.8715 34.945 41.0963 36.7885 40.9218C37.2097 40.8871 37.631 40.8326 38.0473 40.7632C38.692 40.6563 39.3292 40.509 39.9554 40.3221L40.5947 40.1239C41.021 39.9801 41.4472 39.8215 41.8635 39.6283C42.2798 39.435 42.7209 39.2565 43.1372 39.0434C43.5535 38.8303 43.9797 38.6023 44.3911 38.3545C47.3127 36.5884 49.852 34.2564 51.8599 31.4953C58.9224 21.9697 59.3734 9.30192 52.8511 3.21584C52.5835 2.96308 52.301 2.72023 52.0185 2.50712C51.736 2.29401 51.4436 2.0809 51.1463 1.88761C50.9778 1.78353 50.8092 1.67946 50.6507 1.58034L50.5317 1.5159C50.3929 1.43165 50.2443 1.35731 50.1005 1.28297C43.5287 -2.02275 34.3947 1.18385 28.2442 9.47043C21.1421 19.0307 20.6861 31.6936 27.2232 37.7796ZM29.9639 11.1307C31.5551 8.94705 33.5321 7.07259 35.7972 5.59973L36.3325 5.27262C39.8513 3.19106 43.6328 2.52199 46.8989 3.47852L47.0872 3.53304L47.4143 3.64206L47.6076 3.71145C47.7513 3.76101 47.8851 3.82049 48.0289 3.87996C48.1726 3.93944 48.351 4.01873 48.5245 4.10298C48.534 4.09913 48.5447 4.09913 48.5542 4.10298C49.1719 4.40145 49.7538 4.76889 50.2889 5.19828C50.5272 5.38081 50.7555 5.57604 50.9728 5.7831C56.5335 10.9721 56.1569 21.7665 50.1303 29.8895C45.4814 36.154 38.8353 39.0087 33.4827 37.6111C32.7306 37.4175 32.0037 37.1364 31.3169 36.7735C31.198 36.7141 31.084 36.6496 30.97 36.5803C30.856 36.5109 30.7123 36.4316 30.5933 36.3523C30.0655 36.0204 29.5694 35.6405 29.1115 35.2173C23.5458 30.0432 23.9324 19.2538 29.9639 11.1307Z" fill="#455A64"/>
<path opacity="0.4" d="M32.774 37.0362C33.002 37.2444 33.23 37.4426 33.4629 37.621C38.8155 39.0187 45.4616 36.164 50.1104 29.8995C56.137 21.7764 56.5137 10.9821 50.953 5.79302C50.7356 5.58596 50.5073 5.39074 50.269 5.2082C44.9164 3.81554 38.2753 6.69503 33.6265 12.9397C27.5949 21.0627 27.2133 31.8522 32.774 37.0362Z" fill="white"/>
<g opacity="0.3">
<path d="M41.7246 6.1895L53.0394 24.8095C53.536 23.6425 53.9388 22.4376 54.2437 21.2065L44.5347 5.24289C43.5688 5.464 42.6274 5.78111 41.7246 6.1895Z" fill="#EBEBEB"/>
<path d="M48.4404 4.90588L54.8833 15.5169C54.7743 11.6412 53.4758 8.14222 50.9581 5.79303C50.7408 5.58597 50.5125 5.39074 50.2742 5.20821C49.6732 5.05295 49.0595 4.95177 48.4404 4.90588Z" fill="#EBEBEB"/>
<path d="M39.7075 7.25506L51.8499 27.2083C52.1275 26.7127 52.3951 26.2171 52.628 25.6967L40.9713 6.54138C40.55 6.75945 40.1288 6.99239 39.7075 7.25506Z" fill="#EBEBEB"/>
<path d="M28.9977 24.3139C28.8905 25.1555 28.8392 26.0031 28.8441 26.8515L35.5893 37.9382C36.1518 37.9828 36.7169 37.9828 37.2793 37.9382L28.9977 24.3139Z" fill="#EBEBEB"/>
<path d="M30.7124 18.0098L42.047 36.6298C43.8865 35.7844 45.5808 34.6537 47.0675 33.2795L34.2263 12.1715C34.0231 12.4193 33.8248 12.6671 33.6266 12.9397C32.4588 14.509 31.4806 16.2108 30.7124 18.0098Z" fill="#EBEBEB"/>
</g>
</svg>
