<svg width="1440" height="35" viewBox="0 0 1440 35" fill="none" xmlns="http://www.w3.org/2000/svg">
<path d="M0 0.800843L34.4 3.00998C68.8 5.25721 137.6 9.67549 206.08 11.0086C274.72 12.3417 342.88 10.5896 411.52 10.8943C480 11.199 548.8 13.6367 617.28 13.6367C685.92 13.6367 754.08 11.199 822.72 8.87564C891.2 6.51414 960 4.22882 1028.48 2.62909C1097.12 1.06746 1165.28 0.153332 1233.92 0.343775C1302.4 0.534218 1371.2 1.82923 1405.6 2.43865L1440 3.08616V34.3188L1405.6 34.3188C1371.2 34.3188 1302.4 34.3188 1233.92 34.3188C1165.28 34.3188 1097.12 34.3188 1028.48 34.3188C960 34.3188 891.2 34.3188 822.72 34.3188C754.08 34.3188 685.92 34.3188 617.28 34.3188C548.8 34.3188 480 34.3188 411.52 34.3188C342.88 34.3188 274.72 34.3188 206.08 34.3188C137.6 34.3188 68.8 34.3188 34.4 34.3188L0 34.3188L0 0.800843Z" fill="#FFF2E1"/>
</svg>
